<svg xmlns="http://www.w3.org/2000/svg" xmlns:xlink="http://www.w3.org/1999/xlink" width="500" zoomAndPan="magnify" viewBox="0 0 375 374.999991" height="500" preserveAspectRatio="xMidYMid meet" version="1.0"><defs><clipPath id="c94555107a"><path d="M 3.347656 25 L 371.597656 25 L 371.597656 348 L 3.347656 348 Z M 3.347656 25 " clip-rule="nonzero"/></clipPath><clipPath id="da1618f05f"><path d="M 191.5 188.089844 L 195.761719 188.089844 L 195.761719 191.734375 L 191.5 191.734375 Z M 191.5 188.089844 " clip-rule="nonzero"/></clipPath><clipPath id="48047f7d34"><path d="M 195.75 189.375 C 193.875 192.375 192.074219 191.851562 191.699219 191.25 C 191.324219 190.574219 191.625 188.773438 192.226562 188.25 C 192.824219 187.800781 195.226562 188.476562 195.226562 188.476562 " clip-rule="nonzero"/></clipPath></defs><path fill="#333333" d="M 220.445312 186.714844 C 220.445312 187.792969 220.390625 188.871094 220.285156 189.945312 C 220.179688 191.015625 220.019531 192.082031 219.8125 193.140625 C 219.601562 194.199219 219.339844 195.246094 219.023438 196.277344 C 218.710938 197.3125 218.347656 198.324219 217.9375 199.324219 C 217.523438 200.320312 217.0625 201.292969 216.554688 202.246094 C 216.042969 203.195312 215.492188 204.121094 214.890625 205.019531 C 214.292969 205.914062 213.648438 206.78125 212.964844 207.617188 C 212.28125 208.449219 211.558594 209.25 210.792969 210.011719 C 210.03125 210.773438 209.230469 211.5 208.398438 212.183594 C 207.5625 212.867188 206.699219 213.507812 205.800781 214.109375 C 204.902344 214.707031 203.980469 215.261719 203.027344 215.769531 C 202.078125 216.28125 201.101562 216.742188 200.105469 217.152344 C 199.109375 217.566406 198.09375 217.929688 197.0625 218.242188 C 196.027344 218.554688 194.984375 218.816406 193.925781 219.027344 C 192.867188 219.238281 191.800781 219.398438 190.726562 219.503906 C 189.652344 219.609375 188.574219 219.660156 187.496094 219.660156 C 186.417969 219.660156 185.339844 219.609375 184.265625 219.503906 C 183.195312 219.398438 182.128906 219.238281 181.070312 219.027344 C 180.011719 218.816406 178.964844 218.554688 177.933594 218.242188 C 176.898438 217.929688 175.886719 217.566406 174.886719 217.152344 C 173.890625 216.742188 172.917969 216.28125 171.964844 215.769531 C 171.015625 215.261719 170.089844 214.707031 169.191406 214.109375 C 168.296875 213.507812 167.429688 212.867188 166.59375 212.183594 C 165.761719 211.5 164.960938 210.773438 164.199219 210.011719 C 163.4375 209.25 162.710938 208.449219 162.027344 207.617188 C 161.34375 206.78125 160.703125 205.914062 160.101562 205.019531 C 159.503906 204.121094 158.949219 203.195312 158.441406 202.246094 C 157.929688 201.292969 157.46875 200.320312 157.058594 199.324219 C 156.644531 198.324219 156.28125 197.3125 155.96875 196.277344 C 155.65625 195.246094 155.394531 194.199219 155.183594 193.140625 C 154.972656 192.082031 154.8125 191.015625 154.707031 189.945312 C 154.601562 188.871094 154.550781 187.792969 154.550781 186.714844 C 154.550781 185.636719 154.601562 184.558594 154.707031 183.484375 C 154.8125 182.410156 154.972656 181.34375 155.183594 180.285156 C 155.394531 179.226562 155.65625 178.183594 155.96875 177.148438 C 156.28125 176.117188 156.644531 175.101562 157.058594 174.105469 C 157.46875 173.109375 157.929688 172.132812 158.441406 171.183594 C 158.949219 170.230469 159.503906 169.308594 160.101562 168.410156 C 160.703125 167.511719 161.34375 166.648438 162.027344 165.8125 C 162.710938 164.980469 163.4375 164.179688 164.199219 163.417969 C 164.960938 162.652344 165.761719 161.929688 166.59375 161.246094 C 167.429688 160.5625 168.296875 159.917969 169.191406 159.320312 C 170.089844 158.71875 171.015625 158.167969 171.964844 157.65625 C 172.917969 157.148438 173.890625 156.6875 174.886719 156.273438 C 175.886719 155.863281 176.898438 155.5 177.933594 155.1875 C 178.964844 154.871094 180.011719 154.609375 181.070312 154.398438 C 182.128906 154.191406 183.195312 154.03125 184.265625 153.925781 C 185.339844 153.820312 186.417969 153.765625 187.496094 153.765625 C 188.574219 153.765625 189.652344 153.820312 190.726562 153.925781 C 191.800781 154.03125 192.867188 154.191406 193.925781 154.398438 C 194.984375 154.609375 196.027344 154.871094 197.0625 155.1875 C 198.09375 155.5 199.109375 155.863281 200.105469 156.273438 C 201.101562 156.6875 202.078125 157.148438 203.027344 157.65625 C 203.980469 158.167969 204.902344 158.71875 205.800781 159.320312 C 206.699219 159.917969 207.5625 160.5625 208.398438 161.246094 C 209.230469 161.929688 210.03125 162.652344 210.792969 163.417969 C 211.558594 164.179688 212.28125 164.980469 212.964844 165.8125 C 213.648438 166.648438 214.292969 167.511719 214.890625 168.410156 C 215.492188 169.308594 216.042969 170.230469 216.554688 171.183594 C 217.0625 172.132812 217.523438 173.109375 217.9375 174.105469 C 218.347656 175.101562 218.710938 176.117188 219.023438 177.148438 C 219.339844 178.183594 219.601562 179.226562 219.8125 180.285156 C 220.019531 181.34375 220.179688 182.410156 220.285156 183.484375 C 220.390625 184.558594 220.445312 185.636719 220.445312 186.714844 Z M 220.445312 186.714844 " fill-opacity="1" fill-rule="nonzero"/><g clip-path="url(#c94555107a)"><path fill="#333333" d="M 72.617188 245.058594 C 75.855469 246.132812 79.09375 247.222656 82.410156 248.160156 C 81.335938 252.46875 80.398438 256.722656 79.523438 261.109375 C 71.972656 301.039062 77.867188 332.683594 96.710938 343.546875 C 116.140625 354.765625 148.792969 343.253906 180.589844 315.417969 C 183.109375 313.195312 185.625 310.890625 188.140625 308.4375 C 191.300781 311.535156 194.617188 314.484375 197.917969 317.351562 C 228.699219 343.824219 259.128906 354.535156 277.914062 343.683594 C 297.339844 332.46875 303.664062 298.445312 295.46875 257.011719 C 294.824219 253.851562 294.101562 250.613281 293.304688 247.300781 C 295.605469 246.65625 297.832031 245.933594 300.074219 245.210938 C 341.582031 231.476562 371.644531 209.242188 371.644531 186.4375 C 371.644531 164.648438 343.300781 143.5 304.171875 130.042969 L 304.171875 130.027344 C 300.289062 128.738281 296.40625 127.511719 292.523438 126.359375 C 293.167969 123.703125 293.75 121.035156 294.316406 118.378906 C 303.171875 75.503906 297.339844 41.066406 277.699219 29.695312 C 258.777344 18.832031 227.917969 30.125 196.703125 57.320312 C 193.605469 59.972656 190.597656 62.78125 187.710938 65.589844 C 185.761719 63.71875 183.753906 61.847656 181.742188 60.050781 C 149.007812 30.984375 116.214844 18.753906 96.574219 30.203125 C 77.730469 41.144531 72.113281 73.585938 80.03125 114.128906 C 80.828125 118.164062 81.6875 122.109375 82.683594 126.144531 C 78.082031 127.433594 73.554688 128.875 69.304688 130.394531 C 30.894531 143.699219 3.347656 164.707031 3.347656 186.4375 C 3.347656 208.890625 32.6875 231.386719 72.617188 245.058594 Z M 170.449219 303.664062 C 158.585938 314.527344 144.835938 323.152344 129.875 329.0625 C 121.894531 332.867188 112.6875 333.234375 104.476562 329.996094 C 93.042969 323.382812 88.285156 297.984375 94.761719 263.8125 C 95.5625 259.789062 96.417969 255.753906 97.417969 251.796875 C 113.53125 255.25 129.78125 257.625 146.261719 258.839844 C 155.761719 272.296875 166.179688 285.171875 177.335938 297.25 C 175.035156 299.472656 172.734375 301.636719 170.433594 303.648438 Z M 261.800781 168.589844 C 258.425781 162.253906 254.972656 155.929688 251.367188 149.746094 C 247.835938 143.640625 244.167969 137.59375 240.363281 131.625 C 251.949219 133.066406 263.027344 135 273.386719 137.378906 C 270.070312 148.027344 266.1875 158.386719 261.800781 168.589844 Z M 261.9375 204.40625 C 266.542969 214.84375 270.578125 225.417969 274.09375 236.28125 C 262.9375 238.796875 251.65625 240.746094 240.285156 242.035156 C 244.167969 235.988281 247.835938 229.804688 251.441406 223.621094 C 255.109375 217.28125 258.5625 210.882812 261.9375 204.40625 Z M 253.621094 186.515625 C 248.800781 196.445312 243.617188 206.21875 238.089844 215.855469 C 232.628906 225.417969 226.796875 234.699219 220.6875 243.90625 C 209.976562 244.707031 198.820312 245.058594 187.527344 245.058594 C 176.234375 245.058594 165.308594 244.707031 154.734375 244.046875 C 148.472656 234.914062 142.578125 225.554688 137.039062 215.992188 C 131.5 206.433594 126.390625 196.71875 121.570312 186.789062 L 121.539062 186.789062 C 126.28125 176.863281 131.46875 167.148438 136.933594 157.589844 C 142.394531 148.027344 148.304688 138.742188 154.488281 129.613281 C 165.277344 128.816406 176.277344 128.386719 187.511719 128.386719 C 198.746094 128.386719 209.808594 128.816406 220.535156 129.613281 C 226.644531 138.683594 232.476562 147.949219 238.015625 157.449219 C 243.554688 166.949219 248.726562 176.664062 253.621094 186.515625 Z M 123.535156 149.882812 C 120.007812 155.992188 116.554688 162.238281 113.316406 168.574219 C 108.789062 157.863281 104.96875 147.367188 101.804688 137.222656 C 112.164062 134.921875 123.167969 133.050781 134.601562 131.609375 C 130.808594 137.578125 127.066406 143.683594 123.535156 149.882812 Z M 113.332031 204.976562 C 116.644531 211.3125 120.023438 217.574219 123.613281 223.757812 C 127.28125 230.019531 131.023438 236.28125 134.984375 242.386719 C 123.765625 241.160156 112.609375 239.367188 101.605469 236.988281 C 104.769531 226.628906 108.726562 215.917969 113.332031 204.976562 Z M 188.078125 286.167969 C 180.746094 278.265625 173.410156 269.503906 166.289062 260.066406 C 173.195312 260.359375 180.316406 260.496094 187.511719 260.496094 C 194.925781 260.496094 202.183594 260.359375 209.378906 259.988281 C 202.765625 269.121094 195.644531 277.835938 188.078125 286.167969 Z M 282.101562 307.777344 C 281.441406 316.539062 277.132812 324.734375 270.226562 330.273438 C 258.792969 336.886719 234.410156 328.261719 208.074219 305.675781 C 205.050781 303.082031 202.027344 300.273438 198.945312 297.402344 C 209.949219 285.25 220.089844 272.375 229.296875 258.855469 C 245.765625 257.488281 262.167969 254.972656 278.359375 251.304688 C 279.078125 254.25 279.722656 257.195312 280.308594 260.082031 C 283.835938 275.628906 284.40625 291.800781 282.101562 307.777344 Z M 288.347656 141.183594 C 292.09375 142.257812 295.683594 143.410156 299.136719 144.558594 C 332.652344 156.070312 356.175781 173.195312 356.175781 186.285156 C 356.175781 200.386719 331.070312 218.585938 295.175781 230.449219 C 293.167969 231.09375 291.15625 231.738281 289.070312 232.320312 C 284.035156 216.636719 277.851562 201.324219 270.730469 186.421875 C 277.636719 171.753906 283.46875 156.636719 288.347656 141.183594 Z M 206.832031 68.964844 C 233.609375 45.671875 258.5625 36.542969 269.933594 43.078125 C 282.085938 50.0625 286.769531 78.25 279.140625 115.296875 C 278.632812 117.734375 278.128906 120.113281 277.484375 122.492188 C 261.507812 118.902344 245.335938 116.308594 229.066406 114.867188 C 219.722656 101.46875 209.503906 88.671875 198.421875 76.65625 C 201.230469 74 203.960938 71.484375 206.832031 68.964844 Z M 187.648438 87.671875 C 195.199219 95.867188 202.320312 104.492188 208.933594 113.40625 C 194.695312 112.761719 180.375 112.761719 166.136719 113.40625 C 173.179688 104.140625 180.453125 95.515625 187.648438 87.671875 Z M 104.199219 43.585938 C 116.292969 36.542969 143.117188 46.609375 171.382812 71.636719 C 173.179688 73.21875 174.972656 74.953125 176.847656 76.671875 C 165.691406 88.671875 155.410156 101.46875 145.988281 114.851562 C 129.734375 116.292969 113.621094 118.808594 97.648438 122.339844 C 96.710938 118.671875 95.929688 114.925781 95.132812 111.183594 C 88.363281 76.363281 92.828125 50.121094 104.199219 43.585938 Z M 74.351562 144.988281 C 78.449219 143.546875 82.625 142.257812 86.796875 141.03125 C 91.695312 156.636719 97.585938 171.96875 104.414062 186.777344 C 97.507812 201.816406 91.539062 217.34375 86.582031 233.164062 L 86.566406 233.179688 C 83.542969 232.320312 80.597656 231.386719 77.652344 230.371094 C 62.335938 225.554688 44.917969 217.925781 32.335938 207.9375 C 25.078125 202.902344 20.183594 195.140625 18.816406 186.421875 C 18.816406 173.257812 41.542969 156.421875 74.351562 144.988281 Z M 74.351562 144.988281 " fill-opacity="1" fill-rule="nonzero"/></g><g clip-path="url(#da1618f05f)"><g clip-path="url(#48047f7d34)"><path fill="#333333" d="M 188.699219 185.25 L 198.832031 185.25 L 198.832031 195.074219 L 188.699219 195.074219 Z M 188.699219 185.25 " fill-opacity="1" fill-rule="nonzero"/></g></g></svg>