<svg xmlns="http://www.w3.org/2000/svg" xmlns:xlink="http://www.w3.org/1999/xlink" width="500" zoomAndPan="magnify" viewBox="0 0 375 374.999991" height="500" preserveAspectRatio="xMidYMid meet" version="1.0"><path fill="#000000" d="M 250.492188 162.210938 C 251.84375 162.210938 253.128906 161.554688 254.113281 162.539062 C 254.441406 163.890625 254.113281 164.84375 254.113281 166.160156 L 254.113281 212.253906 C 252.90625 212.589844 251.699219 212.589844 250.492188 212.253906 L 250.492188 204.6875 C 247.53125 208.640625 243.578125 211.605469 239.007812 212.59375 C 233.410156 213.945312 226.824219 212.921875 222.214844 209.300781 C 219.253906 206.996094 216.945312 203.703125 215.300781 200.414062 C 212.996094 194.816406 213.65625 187.90625 216.945312 182.632812 C 219.582031 178.355469 223.863281 175.066406 229.128906 174.074219 C 234.398438 172.722656 240.324219 173.746094 244.601562 176.707031 C 246.90625 178.058594 248.554688 180.003906 250.199219 181.980469 L 250.527344 162.226562 M 230.40625 177.363281 C 222.5 179.007812 216.90625 187.242188 217.894531 195.144531 C 218.554688 200.742188 222.503906 205.347656 227.441406 207.980469 C 231.722656 209.628906 236.664062 209.957031 240.613281 207.65625 C 247.199219 205.019531 251.476562 197.453125 250.160156 190.203125 C 249.5 185.265625 246.207031 180.980469 241.929688 178.71875 C 238.308594 177.074219 234.363281 176.742188 230.441406 177.367188 Z M 371.621094 162.21875 C 372.609375 161.230469 373.925781 161.890625 375.242188 162.21875 L 375.242188 212.261719 C 374.035156 212.597656 372.828125 212.597656 371.621094 212.261719 L 371.621094 204.730469 C 368.328125 209.335938 362.738281 212.957031 356.804688 213.289062 C 352.851562 213.617188 348.898438 212.628906 345.609375 210.65625 C 340.667969 208.019531 337.046875 203.085938 335.730469 197.484375 C 334.742188 192.546875 335.402344 187.28125 338.363281 183 C 341.328125 178.390625 345.933594 175.09375 351.203125 174.113281 C 356.472656 173.132812 362.066406 174.113281 366.347656 177.078125 C 368.324219 178.429688 369.96875 180.039062 371.617188 182.015625 L 371.617188 162.230469 M 351.515625 177.363281 C 347.238281 178.351562 343.289062 181.316406 340.976562 185.269531 C 339 188.5625 338.671875 192.511719 339.332031 196.132812 C 340.316406 201.40625 344.269531 206.011719 349.535156 207.984375 C 352.828125 209.335938 356.449219 209.335938 360.074219 208.3125 C 363.367188 206.960938 366.664062 205.019531 368.636719 201.726562 C 371.269531 198.105469 372.257812 193.164062 370.9375 188.886719 C 369.953125 183.949219 366.332031 180.003906 362.054688 177.691406 C 358.761719 176.703125 354.8125 176.703125 351.511719 177.363281 Z M 325.839844 162.542969 C 327.816406 161.882812 329.792969 164.519531 328.476562 166.164062 C 327.816406 167.515625 325.511719 167.808594 324.523438 166.492188 C 323.171875 165.140625 324.195312 162.871094 325.875 162.539062 Z M 143.410156 173.410156 C 147.6875 172.753906 152.292969 173.082031 155.917969 175.386719 C 158.882812 176.738281 161.1875 179.007812 163.488281 181.644531 L 163.488281 173.738281 L 166.78125 173.738281 C 167.109375 186.578125 166.78125 199.421875 166.78125 212.257812 C 165.792969 212.585938 164.476562 212.585938 163.160156 212.257812 L 163.160156 204.691406 C 159.863281 208.644531 155.914062 211.933594 150.648438 212.597656 C 146.367188 213.582031 141.761719 212.925781 137.480469 210.953125 C 131.554688 207.988281 127.601562 202.390625 126.613281 196.132812 C 126.289062 192.511719 126.613281 188.566406 128.261719 185.269531 C 131.222656 179.011719 137.144531 174.730469 143.40625 173.417969 M 143.734375 177.371094 C 138.136719 178.722656 133.191406 182.96875 131.550781 188.855469 C 129.574219 195.445312 132.539062 203.046875 138.136719 206.636719 C 142.089844 209.273438 147.023438 209.929688 151.308594 208.941406 C 156.578125 207.296875 160.855469 203.34375 162.503906 198.078125 C 164.808594 191.820312 162.175781 184.25 156.578125 180.296875 C 152.957031 177.332031 148.015625 176.34375 143.738281 177.332031 Z M 181.007812 177.027344 C 187.261719 171.753906 197.136719 171.753906 203.394531 177.027344 C 207.347656 180.320312 209.984375 185.585938 209.984375 190.855469 L 209.984375 212.253906 C 208.632812 212.582031 207.347656 212.582031 206.363281 212.253906 L 206.363281 190.203125 C 206.035156 182.957031 199.445312 176.703125 192.171875 177.03125 C 184.929688 177.03125 178.671875 183.289062 178.34375 190.53125 L 178.34375 212.261719 C 177.136719 212.597656 175.929688 212.597656 174.722656 212.261719 L 174.722656 191.554688 C 174.394531 185.953125 176.699219 180.6875 180.980469 177.066406 Z M 260.683594 189.863281 C 260.683594 180.640625 269.242188 172.414062 278.132812 173.074219 C 278.132812 174.058594 278.460938 175.378906 278.132812 176.367188 C 277.144531 177.027344 276.15625 176.695312 275.167969 177.027344 C 271.214844 178.011719 267.601562 180.648438 265.621094 184.59375 C 263.976562 188.214844 264.269531 192.160156 264.269531 196.078125 L 264.269531 212.210938 C 263.285156 212.871094 261.964844 212.539062 260.648438 212.539062 L 260.648438 189.863281 Z M 293.609375 173.734375 C 298.214844 172.75 303.488281 173.40625 307.4375 176.039062 C 312.375 179.003906 316.320312 183.945312 317.3125 189.867188 C 317.972656 193.488281 317.640625 197.433594 315.960938 201.0625 C 313.328125 207.652344 306.738281 212.550781 299.832031 213.246094 C 295.222656 213.574219 290.285156 212.585938 286.332031 209.625 C 284.207031 208.144531 282.4375 206.320312 281.015625 204.160156 C 279.59375 201.996094 278.621094 199.648438 278.101562 197.113281 C 277.113281 192.175781 278.101562 187.234375 280.738281 182.925781 C 283.371094 177.984375 288.304688 174.695312 293.574219 173.703125 M 294.234375 177.324219 C 286.328125 178.96875 280.40625 187.203125 281.722656 195.429688 C 282.382812 199.710938 284.359375 203.335938 287.980469 205.972656 C 291.601562 209.265625 297.203125 210.253906 302.167969 208.933594 C 305.132812 207.949219 308.09375 206.300781 310.074219 203.996094 C 313.039062 201.03125 314.355469 196.753906 314.355469 192.507812 C 314.027344 186.910156 310.734375 181.644531 305.792969 179.007812 C 302.171875 177.03125 297.886719 176.703125 294.308594 177.363281 Z M 324.558594 174.6875 C 325.542969 173.703125 327.191406 174.03125 328.511719 174.359375 L 328.511719 210.578125 C 328.511719 212.222656 326.207031 211.234375 325.214844 211.5625 C 325.039062 211.550781 324.890625 211.480469 324.761719 211.355469 C 324.636719 211.230469 324.570312 211.082031 324.558594 210.90625 Z M 324.558594 174.6875 " fill-opacity="1" fill-rule="nonzero"/><path fill="#000000" d="M 31.417969 125.066406 L 37.117188 135.242188 C 26.535156 140.53125 19.207031 150.714844 19.207031 162.515625 L 87.601562 162.515625 C 87.601562 150.710938 80.269531 140.53125 69.6875 135.242188 L 75.386719 125.066406 C 75.386719 125.066406 75.792969 124.660156 74.984375 124.253906 C 74.578125 123.851562 74.171875 124.660156 74.171875 124.660156 L 68.066406 134.835938 C 63.277344 132.683594 58.257812 131.597656 53.007812 131.578125 C 47.753906 131.597656 42.734375 132.683594 37.945312 134.835938 L 31.863281 124.660156 C 31.863281 124.660156 31.460938 124.253906 31.054688 124.253906 C 31.054688 124.660156 31.460938 125.066406 31.460938 125.066406 Z M 37.117188 145.011719 C 37.539062 145.042969 37.945312 145.144531 38.328125 145.320312 C 38.714844 145.496094 39.054688 145.734375 39.355469 146.03125 C 39.652344 146.332031 39.890625 146.675781 40.066406 147.058594 C 40.242188 147.445312 40.34375 147.847656 40.375 148.269531 C 40.34375 148.691406 40.242188 149.09375 40.066406 149.480469 C 39.890625 149.863281 39.652344 150.207031 39.355469 150.503906 C 39.054688 150.804688 38.714844 151.042969 38.328125 151.21875 C 37.945312 151.394531 37.539062 151.496094 37.117188 151.527344 C 36.683594 151.53125 36.265625 151.453125 35.863281 151.292969 C 35.460938 151.128906 35.109375 150.894531 34.800781 150.585938 C 34.496094 150.28125 34.257812 149.925781 34.097656 149.523438 C 33.933594 149.121094 33.855469 148.703125 33.863281 148.269531 C 33.855469 147.835938 33.933594 147.417969 34.097656 147.015625 C 34.257812 146.613281 34.496094 146.257812 34.800781 145.953125 C 35.109375 145.644531 35.460938 145.410156 35.863281 145.246094 C 36.265625 145.085938 36.683594 145.007812 37.117188 145.011719 Z M 69.6875 145.011719 C 70.109375 145.042969 70.511719 145.144531 70.894531 145.320312 C 71.28125 145.496094 71.625 145.734375 71.921875 146.03125 C 72.222656 146.332031 72.457031 146.675781 72.632812 147.058594 C 72.808594 147.445312 72.914062 147.847656 72.941406 148.269531 C 72.914062 148.691406 72.808594 149.09375 72.632812 149.480469 C 72.457031 149.863281 72.222656 150.207031 71.921875 150.503906 C 71.625 150.804688 71.28125 151.042969 70.894531 151.21875 C 70.511719 151.394531 70.109375 151.496094 69.6875 151.527344 C 69.253906 151.53125 68.835938 151.453125 68.433594 151.292969 C 68.03125 151.128906 67.675781 150.894531 67.367188 150.585938 C 67.0625 150.28125 66.828125 149.925781 66.664062 149.523438 C 66.5 149.121094 66.421875 148.703125 66.429688 148.269531 C 66.421875 147.835938 66.5 147.417969 66.664062 147.015625 C 66.828125 146.613281 67.0625 146.257812 67.367188 145.953125 C 67.675781 145.644531 68.03125 145.410156 68.433594 145.246094 C 68.835938 145.085938 69.253906 145.007812 69.6875 145.011719 Z M 18.804688 166.554688 L 18.804688 218.660156 C 18.804688 221.105469 22.0625 224.765625 24.503906 224.765625 L 32.613281 224.765625 L 32.613281 242.679688 C 32.613281 247.15625 35.867188 250.785156 39.941406 250.785156 C 44.015625 250.785156 47.273438 247.125 47.273438 242.679688 L 47.273438 224.796875 L 59.078125 224.796875 L 59.078125 242.707031 C 59.078125 247.183594 62.335938 250.816406 66.410156 250.816406 C 70.484375 250.816406 73.738281 247.15625 73.738281 242.707031 L 73.738281 224.796875 L 81.847656 224.796875 C 84.289062 224.796875 87.546875 221.539062 87.546875 218.691406 L 87.546875 166.554688 Z M 18.804688 166.554688 " fill-opacity="1" fill-rule="nonzero"/><path fill="#000000" d="M 7.40625 165.371094 C 11.476562 165.371094 14.738281 169.03125 14.738281 173.480469 L 14.738281 204.417969 C 14.738281 208.894531 11.480469 212.527344 7.40625 212.527344 C 3.332031 212.527344 0.0742188 208.863281 0.0742188 204.417969 L 0.0742188 173.511719 C 0.0742188 169.035156 3.332031 165.40625 7.40625 165.40625 Z M 7.40625 165.371094 " fill-opacity="1" fill-rule="nonzero"/><path fill="#000000" d="M 99.410156 165.371094 C 103.480469 165.371094 106.738281 169.03125 106.738281 173.480469 L 106.738281 204.417969 C 106.738281 208.894531 103.484375 212.527344 99.410156 212.527344 C 95.335938 212.527344 92.078125 208.863281 92.078125 204.417969 L 92.078125 173.511719 C 92.078125 169.035156 95.335938 165.40625 99.410156 165.40625 Z M 99.410156 165.371094 " fill-opacity="1" fill-rule="nonzero"/></svg>