<svg xmlns="http://www.w3.org/2000/svg" xmlns:xlink="http://www.w3.org/1999/xlink" width="500" zoomAndPan="magnify" viewBox="0 0 375 374.999991" height="500" preserveAspectRatio="xMidYMid meet" version="1.0"><path fill="#000000" d="M 144.53125 270.496094 C 140.53125 270.496094 136.703125 268.433594 134.53125 264.882812 L 70.3125 159.6875 L 70.3125 258.765625 C 70.3125 265.242188 65.0625 270.496094 58.59375 270.496094 C 52.125 270.496094 46.875 265.242188 46.875 258.765625 L 46.875 117.988281 C 46.875 112.730469 50.375 108.117188 55.421875 106.691406 C 60.453125 105.300781 65.859375 107.382812 68.59375 111.871094 L 132.8125 217.078125 L 132.8125 117.988281 C 132.8125 111.511719 138.0625 106.253906 144.53125 106.253906 C 151 106.253906 156.25 111.511719 156.25 117.988281 L 156.25 258.765625 C 156.25 264.019531 152.75 268.636719 147.703125 270.058594 C 146.65625 270.355469 145.578125 270.496094 144.53125 270.496094 Z M 144.53125 270.496094 " fill-opacity="1" fill-rule="nonzero"/><path fill="#000000" d="M 252.546875 270.496094 L 183.59375 270.496094 C 177.125 270.496094 171.875 265.242188 171.875 258.765625 L 171.875 117.988281 C 171.875 111.511719 177.125 106.253906 183.59375 106.253906 L 252.546875 106.253906 C 259.015625 106.253906 264.265625 111.511719 264.265625 117.988281 C 264.265625 124.460938 259.015625 129.71875 252.546875 129.71875 L 195.3125 129.71875 L 195.3125 247.035156 L 252.546875 247.035156 C 259.015625 247.035156 264.265625 252.289062 264.265625 258.765625 C 264.265625 265.242188 259.015625 270.496094 252.546875 270.496094 Z M 252.546875 270.496094 " fill-opacity="1" fill-rule="nonzero"/><path fill="#000000" d="M 252.546875 207.929688 L 183.59375 207.929688 C 177.125 207.929688 171.875 202.671875 171.875 196.195312 C 171.875 189.722656 177.125 184.464844 183.59375 184.464844 L 252.546875 184.464844 C 259.015625 184.464844 264.265625 189.722656 264.265625 196.195312 C 264.265625 202.671875 259.015625 207.929688 252.546875 207.929688 Z M 252.546875 207.929688 " fill-opacity="1" fill-rule="nonzero"/><path fill="#000000" d="M 363.28125 129.71875 L 286.859375 129.71875 C 280.390625 129.71875 275.140625 124.460938 275.140625 117.988281 C 275.140625 111.511719 280.390625 106.253906 286.859375 106.253906 L 363.28125 106.253906 C 369.75 106.253906 375 111.511719 375 117.988281 C 375 124.460938 369.75 129.71875 363.28125 129.71875 Z M 363.28125 129.71875 " fill-opacity="1" fill-rule="nonzero"/><path fill="#000000" d="M 324.21875 270.496094 C 317.75 270.496094 312.5 265.242188 312.5 258.765625 L 312.5 117.988281 C 312.5 111.511719 317.75 106.253906 324.21875 106.253906 C 330.6875 106.253906 335.9375 111.511719 335.9375 117.988281 L 335.9375 258.765625 C 335.9375 265.242188 330.6875 270.496094 324.21875 270.496094 Z M 324.21875 270.496094 " fill-opacity="1" fill-rule="nonzero"/><path fill="#000000" d="M 15.546875 270.496094 C 6.96875 270.496094 0 263.472656 0 254.855469 C 0 246.234375 6.96875 239.210938 15.546875 239.210938 C 24.125 239.210938 31.09375 246.234375 31.09375 254.855469 C 31.09375 263.472656 24.109375 270.496094 15.546875 270.496094 Z M 15.546875 247.035156 C 11.1875 247.035156 7.65625 250.539062 7.65625 254.855469 C 7.65625 259.171875 11.1875 262.675781 15.546875 262.675781 C 19.90625 262.675781 23.4375 259.171875 23.4375 254.855469 C 23.4375 250.539062 19.890625 247.035156 15.546875 247.035156 Z M 15.546875 247.035156 " fill-opacity="1" fill-rule="nonzero"/></svg>