<svg xmlns="http://www.w3.org/2000/svg" xmlns:xlink="http://www.w3.org/1999/xlink" width="500" zoomAndPan="magnify" viewBox="0 0 375 374.999991" height="500" preserveAspectRatio="xMidYMid meet" version="1.0"><defs><clipPath id="0a71b0128b"><path d="M 54.546875 73 L 320.796875 73 L 320.796875 375 L 54.546875 375 Z M 54.546875 73 " clip-rule="nonzero"/></clipPath></defs><g clip-path="url(#0a71b0128b)"><path fill="#000000" d="M 320.375 73.695312 L 296.171875 344.828125 L 187.378906 374.984375 L 78.890625 344.867188 L 54.714844 73.695312 L 320.371094 73.691406 L 320.378906 73.691406 Z M 320.375 73.695312 " fill-opacity="1" fill-rule="nonzero"/></g><path fill="#949190" d="M 187.546875 351.933594 L 275.460938 327.566406 L 296.140625 95.871094 L 187.546875 95.867188 Z M 187.546875 351.933594 " fill-opacity="1" fill-rule="nonzero"/><path fill="#ebebeb" d="M 140.496094 162.382812 L 187.546875 162.382812 L 187.546875 129.121094 L 104.148438 129.121094 L 104.945312 138.046875 L 113.121094 229.695312 L 187.546875 229.695312 L 187.546875 196.445312 L 143.535156 196.445312 Z M 140.496094 162.382812 " fill-opacity="1" fill-rule="nonzero"/><path fill="#ebebeb" d="M 147.992188 246.328125 L 114.605469 246.328125 L 119.265625 298.550781 L 187.390625 317.464844 L 187.546875 317.421875 L 187.546875 282.816406 L 187.402344 282.859375 L 150.359375 272.851562 Z M 147.992188 246.328125 " fill-opacity="1" fill-rule="nonzero"/><path fill="#000000" d="M 79.433594 0 L 96.332031 0 L 96.332031 16.699219 L 111.792969 16.699219 L 111.792969 0 L 128.695312 0 L 128.695312 50.566406 L 111.792969 50.566406 L 111.792969 33.632812 L 96.332031 33.632812 L 96.332031 50.566406 L 79.433594 50.566406 Z M 79.433594 0 " fill-opacity="1" fill-rule="nonzero"/><path fill="#000000" d="M 150.921875 16.769531 L 136.042969 16.769531 L 136.042969 0 L 182.714844 0 L 182.714844 16.769531 L 167.824219 16.769531 L 167.824219 50.566406 L 150.921875 50.566406 Z M 150.921875 16.769531 " fill-opacity="1" fill-rule="nonzero"/><path fill="#000000" d="M 190.117188 0 L 207.738281 0 L 218.578125 17.769531 L 229.410156 0 L 247.039062 0 L 247.039062 50.566406 L 230.210938 50.566406 L 230.210938 25.503906 L 218.578125 43.484375 L 218.289062 43.484375 L 206.65625 25.503906 L 206.65625 50.566406 L 190.117188 50.566406 Z M 190.117188 0 " fill-opacity="1" fill-rule="nonzero"/><path fill="#000000" d="M 255.453125 0 L 272.355469 0 L 272.355469 33.851562 L 296.132812 33.851562 L 296.132812 50.566406 L 255.453125 50.566406 Z M 255.453125 0 " fill-opacity="1" fill-rule="nonzero"/><path fill="#ffffff" d="M 187.433594 229.695312 L 228.390625 229.695312 L 224.527344 272.832031 L 187.433594 282.847656 L 187.433594 317.441406 L 255.609375 298.550781 L 256.109375 292.929688 L 263.933594 205.371094 L 264.742188 196.445312 L 187.433594 196.445312 Z M 187.433594 229.695312 " fill-opacity="1" fill-rule="nonzero"/><path fill="#ffffff" d="M 187.433594 162.296875 L 187.433594 162.382812 L 267.765625 162.382812 L 268.429688 154.90625 L 269.949219 138.046875 L 270.742188 129.121094 L 187.433594 129.121094 Z M 187.433594 162.296875 " fill-opacity="1" fill-rule="nonzero"/></svg>