<svg xmlns="http://www.w3.org/2000/svg" xmlns:xlink="http://www.w3.org/1999/xlink" width="100" zoomAndPan="magnify" viewBox="0 0 75 74.999997" height="100" preserveAspectRatio="xMidYMid meet" version="1.0"><defs><clipPath id="70969e2930"><path d="M 4.15625 0 L 69 0 L 69 74.996094 L 4.15625 74.996094 Z M 4.15625 0 " clip-rule="nonzero"/></clipPath></defs><g clip-path="url(#70969e2930)"><path fill="#0075ff" d="M 51.019531 74.671875 C 50.765625 74.515625 50.578125 74.308594 50.449219 74.039062 C 50.320312 73.773438 50.277344 73.492188 50.320312 73.199219 C 50.359375 72.90625 50.476562 72.648438 50.671875 72.425781 C 50.867188 72.203125 51.105469 72.050781 51.390625 71.972656 C 50.675781 72.289062 51.433594 71.90625 51.710938 71.808594 C 52.421875 71.507812 52.070312 71.664062 52.722656 71.378906 C 55.546875 70.136719 59.296875 68.472656 62.160156 66.898438 C 58.992188 66.1875 55.1875 66.503906 51.140625 66.242188 C 42.78125 65.585938 33.816406 64.417969 27.042969 59.058594 C 23.640625 56.292969 20.648438 53.132812 18.074219 49.578125 C 15.496094 46.027344 13.421875 42.203125 11.847656 38.109375 C 8.335938 30.375 6.144531 22.28125 5.273438 13.832031 C 4.820312 9.753906 4.484375 5.664062 4.179688 1.574219 C 4.175781 1.234375 4.28125 0.933594 4.496094 0.671875 C 4.707031 0.40625 4.980469 0.238281 5.308594 0.167969 C 5.640625 0.0976562 5.957031 0.136719 6.257812 0.292969 C 6.5625 0.445312 6.78125 0.675781 6.917969 0.984375 C 8.265625 10.242188 9.648438 25.714844 14.726562 36.15625 C 18.621094 45.707031 24.054688 53.679688 31.886719 58.628906 C 35.757812 61.039062 40.464844 62.003906 45.742188 62.890625 C 49.167969 63.332031 52.605469 63.558594 56.054688 63.574219 C 57.675781 63.636719 59.34375 63.632812 60.964844 63.832031 C 57.480469 62.34375 53.410156 60.710938 50.042969 59.027344 C 49.703125 58.820312 49.46875 58.53125 49.332031 58.15625 C 49.199219 57.78125 49.195312 57.402344 49.324219 57.027344 C 49.457031 56.652344 49.691406 56.355469 50.027344 56.144531 C 50.363281 55.933594 50.730469 55.851562 51.125 55.894531 C 54.933594 57.394531 57.015625 58.546875 60.261719 59.777344 C 62.878906 61.035156 65.914062 61.660156 68.214844 63.464844 C 70.753906 66.886719 65.320312 68.988281 62.976562 70.375 C 59.691406 72.101562 56.28125 73.535156 52.746094 74.667969 C 51.695312 74.875 52.160156 75.058594 51.019531 74.671875 Z M 51.019531 74.671875 " fill-opacity="1" fill-rule="nonzero"/></g></svg>