<svg xmlns="http://www.w3.org/2000/svg" xmlns:xlink="http://www.w3.org/1999/xlink" width="150" zoomAndPan="magnify" viewBox="0 0 112.5 74.999997" height="100" preserveAspectRatio="xMidYMid meet" version="1.0"><defs><clipPath id="ee526deff0"><path d="M 13 54 L 28 54 L 28 69.847656 L 13 69.847656 Z M 13 54 " clip-rule="nonzero"/></clipPath><clipPath id="6f4332447a"><path d="M 13 43.714844 L 28 43.714844 L 28 54 L 13 54 Z M 13 43.714844 " clip-rule="nonzero"/></clipPath><clipPath id="abbc540a4e"><path d="M 10.578125 54 L 13 54 L 13 63 L 10.578125 63 Z M 10.578125 54 " clip-rule="nonzero"/></clipPath><clipPath id="ac4791f0bb"><path d="M 28 54 L 30.738281 54 L 30.738281 63 L 28 63 Z M 28 54 " clip-rule="nonzero"/></clipPath><clipPath id="256d63c9f2"><path d="M 25 0.164062 L 77.613281 0.164062 L 77.613281 74.355469 L 25 74.355469 Z M 25 0.164062 " clip-rule="nonzero"/></clipPath><clipPath id="996757335a"><path d="M 36.199219 0.164062 L 66.410156 0.164062 C 69.382812 0.164062 72.230469 1.347656 74.332031 3.445312 C 76.433594 5.546875 77.613281 8.394531 77.613281 11.367188 L 77.613281 62.957031 C 77.613281 65.929688 76.433594 68.777344 74.332031 70.878906 C 72.230469 72.976562 69.382812 74.160156 66.410156 74.160156 L 36.199219 74.160156 C 33.230469 74.160156 30.382812 72.976562 28.28125 70.878906 C 26.179688 68.777344 25 65.929688 25 62.957031 L 25 11.367188 C 25 8.394531 26.179688 5.546875 28.28125 3.445312 C 30.382812 1.347656 33.230469 0.164062 36.199219 0.164062 Z M 36.199219 0.164062 " clip-rule="nonzero"/></clipPath><clipPath id="44a76cbf61"><path d="M 25 0.167969 L 77.269531 0.167969 L 77.269531 74.085938 L 25 74.085938 Z M 25 0.167969 " clip-rule="nonzero"/></clipPath><clipPath id="b5af12d4b0"><path d="M 36.199219 0.167969 L 66.40625 0.167969 C 69.378906 0.167969 72.226562 1.347656 74.324219 3.449219 C 76.425781 5.550781 77.605469 8.398438 77.605469 11.367188 L 77.605469 62.953125 C 77.605469 65.925781 76.425781 68.773438 74.324219 70.875 C 72.226562 72.972656 69.378906 74.152344 66.40625 74.152344 L 36.199219 74.152344 C 33.230469 74.152344 30.378906 72.972656 28.28125 70.875 C 26.179688 68.773438 25 65.925781 25 62.953125 L 25 11.367188 C 25 8.398438 26.179688 5.550781 28.28125 3.449219 C 30.378906 1.347656 33.230469 0.167969 36.199219 0.167969 Z M 36.199219 0.167969 " clip-rule="nonzero"/></clipPath><clipPath id="f59e02c338"><path d="M 38.5 11.550781 L 63.886719 11.550781 L 63.886719 36.9375 L 38.5 36.9375 Z M 38.5 11.550781 " clip-rule="nonzero"/></clipPath><clipPath id="684c25b142"><path d="M 42 25 L 60 25 L 60 36.9375 L 42 36.9375 Z M 42 25 " clip-rule="nonzero"/></clipPath><clipPath id="79c0364f1d"><path d="M 34.101562 43.890625 L 68.527344 43.890625 L 68.527344 50.082031 L 34.101562 50.082031 Z M 34.101562 43.890625 " clip-rule="nonzero"/></clipPath><clipPath id="6c84806715"><path d="M 37.199219 43.890625 L 65.414062 43.890625 C 67.121094 43.890625 68.507812 45.273438 68.507812 46.984375 C 68.507812 48.695312 67.121094 50.082031 65.414062 50.082031 L 37.199219 50.082031 C 35.488281 50.082031 34.101562 48.695312 34.101562 46.984375 C 34.101562 45.273438 35.488281 43.890625 37.199219 43.890625 Z M 37.199219 43.890625 " clip-rule="nonzero"/></clipPath><clipPath id="7b26f98bda"><path d="M 34.101562 43.890625 L 57.15625 43.890625 L 57.15625 50.082031 L 34.101562 50.082031 Z M 34.101562 43.890625 " clip-rule="nonzero"/></clipPath><clipPath id="2219f0675c"><path d="M 37.199219 43.890625 L 54.058594 43.890625 C 55.769531 43.890625 57.15625 45.273438 57.15625 46.984375 C 57.15625 48.695312 55.769531 50.082031 54.058594 50.082031 L 37.199219 50.082031 C 35.488281 50.082031 34.101562 48.695312 34.101562 46.984375 C 34.101562 45.273438 35.488281 43.890625 37.199219 43.890625 Z M 37.199219 43.890625 " clip-rule="nonzero"/></clipPath><clipPath id="457d983da8"><path d="M 34.101562 56.800781 L 68.527344 56.800781 L 68.527344 62.992188 L 34.101562 62.992188 Z M 34.101562 56.800781 " clip-rule="nonzero"/></clipPath><clipPath id="b9fe84e3ae"><path d="M 37.199219 56.800781 L 65.414062 56.800781 C 67.121094 56.800781 68.507812 58.183594 68.507812 59.894531 C 68.507812 61.605469 67.121094 62.992188 65.414062 62.992188 L 37.199219 62.992188 C 35.488281 62.992188 34.101562 61.605469 34.101562 59.894531 C 34.101562 58.183594 35.488281 56.800781 37.199219 56.800781 Z M 37.199219 56.800781 " clip-rule="nonzero"/></clipPath><clipPath id="a0e7beaad6"><path d="M 34.101562 56.800781 L 57.15625 56.800781 L 57.15625 62.992188 L 34.101562 62.992188 Z M 34.101562 56.800781 " clip-rule="nonzero"/></clipPath><clipPath id="981e452182"><path d="M 37.199219 56.800781 L 54.058594 56.800781 C 55.769531 56.800781 57.15625 58.183594 57.15625 59.894531 C 57.15625 61.605469 55.769531 62.992188 54.058594 62.992188 L 37.199219 62.992188 C 35.488281 62.992188 34.101562 61.605469 34.101562 59.894531 C 34.101562 58.183594 35.488281 56.800781 37.199219 56.800781 Z M 37.199219 56.800781 " clip-rule="nonzero"/></clipPath><clipPath id="278f4e4bb4"><path d="M 59.664062 24.355469 L 95.558594 24.355469 L 95.558594 74.832031 L 59.664062 74.832031 Z M 59.664062 24.355469 " clip-rule="nonzero"/></clipPath><clipPath id="dd84eb2580"><path d="M 70.867188 24.355469 L 84.359375 24.355469 C 87.328125 24.355469 90.175781 25.535156 92.277344 27.636719 C 94.378906 29.738281 95.558594 32.585938 95.558594 35.554688 L 95.558594 63.632812 C 95.558594 66.605469 94.378906 69.453125 92.277344 71.554688 C 90.175781 73.652344 87.328125 74.835938 84.359375 74.835938 L 70.867188 74.835938 C 67.894531 74.835938 65.046875 73.652344 62.945312 71.554688 C 60.847656 69.453125 59.664062 66.605469 59.664062 63.632812 L 59.664062 35.554688 C 59.664062 32.585938 60.847656 29.738281 62.945312 27.636719 C 65.046875 25.535156 67.894531 24.355469 70.867188 24.355469 Z M 70.867188 24.355469 " clip-rule="nonzero"/></clipPath><clipPath id="22add41910"><path d="M 59.667969 24.355469 L 95.507812 24.355469 L 95.507812 74.832031 L 59.667969 74.832031 Z M 59.667969 24.355469 " clip-rule="nonzero"/></clipPath><clipPath id="3da2c64502"><path d="M 70.863281 24.355469 L 84.355469 24.355469 C 87.324219 24.355469 90.171875 25.535156 92.273438 27.636719 C 94.375 29.734375 95.554688 32.585938 95.554688 35.554688 L 95.554688 63.628906 C 95.554688 66.597656 94.375 69.445312 92.273438 71.546875 C 90.171875 73.648438 87.324219 74.828125 84.355469 74.828125 L 70.863281 74.828125 C 67.894531 74.828125 65.046875 73.648438 62.945312 71.546875 C 60.847656 69.445312 59.667969 66.597656 59.667969 63.628906 L 59.667969 35.554688 C 59.667969 32.585938 60.847656 29.734375 62.945312 27.636719 C 65.046875 25.535156 67.894531 24.355469 70.863281 24.355469 Z M 70.863281 24.355469 " clip-rule="nonzero"/></clipPath><clipPath id="a401ee0f8d"><path d="M 68.875 32.121094 L 86.050781 32.121094 L 86.050781 49.296875 L 68.875 49.296875 Z M 68.875 32.121094 " clip-rule="nonzero"/></clipPath><clipPath id="2545c11761"><path d="M 71 41 L 84 41 L 84 49.296875 L 71 49.296875 Z M 71 41 " clip-rule="nonzero"/></clipPath><clipPath id="4bd583634e"><path d="M 65.875 54.183594 L 89.359375 54.183594 L 89.359375 58.410156 L 65.875 58.410156 Z M 65.875 54.183594 " clip-rule="nonzero"/></clipPath><clipPath id="8f11af1024"><path d="M 67.988281 54.183594 L 87.234375 54.183594 C 88.402344 54.183594 89.347656 55.128906 89.347656 56.296875 C 89.347656 57.464844 88.402344 58.410156 87.234375 58.410156 L 67.988281 58.410156 C 66.820312 58.410156 65.875 57.464844 65.875 56.296875 C 65.875 55.128906 66.820312 54.183594 67.988281 54.183594 Z M 67.988281 54.183594 " clip-rule="nonzero"/></clipPath><clipPath id="aab5a72856"><path d="M 65.875 54.183594 L 81.605469 54.183594 L 81.605469 58.410156 L 65.875 58.410156 Z M 65.875 54.183594 " clip-rule="nonzero"/></clipPath><clipPath id="6c25a4a09c"><path d="M 67.988281 54.183594 L 79.488281 54.183594 C 80.65625 54.183594 81.601562 55.128906 81.601562 56.296875 C 81.601562 57.464844 80.65625 58.410156 79.488281 58.410156 L 67.988281 58.410156 C 66.820312 58.410156 65.875 57.464844 65.875 56.296875 C 65.875 55.128906 66.820312 54.183594 67.988281 54.183594 Z M 67.988281 54.183594 " clip-rule="nonzero"/></clipPath><clipPath id="e7fc2ce63b"><path d="M 65.875 62.992188 L 89.359375 62.992188 L 89.359375 67.214844 L 65.875 67.214844 Z M 65.875 62.992188 " clip-rule="nonzero"/></clipPath><clipPath id="1f532f6239"><path d="M 67.988281 62.992188 L 87.234375 62.992188 C 88.402344 62.992188 89.347656 63.9375 89.347656 65.105469 C 89.347656 66.269531 88.402344 67.214844 87.234375 67.214844 L 67.988281 67.214844 C 66.820312 67.214844 65.875 66.269531 65.875 65.105469 C 65.875 63.9375 66.820312 62.992188 67.988281 62.992188 Z M 67.988281 62.992188 " clip-rule="nonzero"/></clipPath><clipPath id="60103df7ce"><path d="M 65.875 62.992188 L 81.605469 62.992188 L 81.605469 67.214844 L 65.875 67.214844 Z M 65.875 62.992188 " clip-rule="nonzero"/></clipPath><clipPath id="28c00ddcfe"><path d="M 67.988281 62.992188 L 79.488281 62.992188 C 80.65625 62.992188 81.601562 63.9375 81.601562 65.105469 C 81.601562 66.269531 80.65625 67.214844 79.488281 67.214844 L 67.988281 67.214844 C 66.820312 67.214844 65.875 66.269531 65.875 65.105469 C 65.875 63.9375 66.820312 62.992188 67.988281 62.992188 Z M 67.988281 62.992188 " clip-rule="nonzero"/></clipPath></defs><g clip-path="url(#ee526deff0)"><path fill="#a6a6a6" d="M 13.992188 64.054688 C 13.992188 64.285156 14.035156 64.507812 14.125 64.722656 C 14.214844 64.9375 14.339844 65.125 14.503906 65.289062 C 14.667969 65.453125 14.859375 65.582031 15.074219 65.667969 C 15.285156 65.757812 15.511719 65.800781 15.742188 65.800781 L 17.394531 65.800781 L 17.394531 68.71875 C 17.394531 68.875 17.425781 69.023438 17.484375 69.164062 C 17.542969 69.308594 17.625 69.433594 17.734375 69.542969 C 17.84375 69.652344 17.972656 69.738281 18.113281 69.796875 C 18.257812 69.855469 18.40625 69.886719 18.5625 69.886719 C 18.714844 69.886719 18.863281 69.855469 19.007812 69.796875 C 19.152344 69.738281 19.277344 69.652344 19.386719 69.542969 C 19.496094 69.433594 19.582031 69.308594 19.640625 69.164062 C 19.699219 69.023438 19.726562 68.875 19.726562 68.71875 L 19.726562 65.800781 L 21.476562 65.800781 L 21.476562 68.71875 C 21.476562 68.875 21.507812 69.023438 21.566406 69.164062 C 21.625 69.308594 21.710938 69.433594 21.820312 69.542969 C 21.929688 69.652344 22.054688 69.738281 22.199219 69.796875 C 22.339844 69.855469 22.492188 69.886719 22.644531 69.886719 C 22.800781 69.886719 22.949219 69.855469 23.089844 69.796875 C 23.234375 69.738281 23.359375 69.652344 23.46875 69.542969 C 23.578125 69.433594 23.664062 69.308594 23.722656 69.164062 C 23.78125 69.023438 23.8125 68.875 23.8125 68.71875 L 23.8125 65.800781 L 25.5625 65.800781 C 25.792969 65.800781 26.015625 65.757812 26.230469 65.667969 C 26.445312 65.582031 26.632812 65.453125 26.796875 65.289062 C 26.960938 65.125 27.089844 64.9375 27.179688 64.722656 C 27.265625 64.507812 27.3125 64.285156 27.3125 64.054688 L 27.3125 54.136719 L 13.992188 54.136719 Z M 13.992188 64.054688 " fill-opacity="1" fill-rule="nonzero"/></g><g clip-path="url(#6f4332447a)"><path fill="#a6a6a6" d="M 23.996094 47.007812 L 25.640625 43.847656 L 25.382812 43.714844 L 23.726562 46.890625 C 23.023438 46.601562 22.289062 46.453125 21.527344 46.457031 L 19.777344 46.457031 C 19.089844 46.453125 18.421875 46.574219 17.777344 46.8125 L 16.164062 43.714844 L 15.902344 43.847656 L 17.503906 46.921875 C 16.984375 47.144531 16.503906 47.4375 16.070312 47.800781 C 15.636719 48.164062 15.261719 48.582031 14.949219 49.054688 C 14.636719 49.527344 14.398438 50.035156 14.234375 50.578125 C 14.074219 51.121094 13.992188 51.675781 13.992188 52.242188 L 13.992188 53.164062 L 27.3125 53.164062 L 27.3125 52.242188 C 27.3125 51.691406 27.234375 51.15625 27.082031 50.628906 C 26.929688 50.101562 26.707031 49.605469 26.414062 49.144531 C 26.121094 48.679688 25.765625 48.265625 25.355469 47.902344 C 24.945312 47.542969 24.492188 47.242188 23.996094 47.007812 Z M 17.101562 50.539062 C 16.914062 50.539062 16.753906 50.472656 16.621094 50.339844 C 16.488281 50.207031 16.421875 50.046875 16.421875 49.859375 C 16.421875 49.671875 16.488281 49.511719 16.621094 49.378906 C 16.753906 49.246094 16.914062 49.179688 17.101562 49.179688 C 17.289062 49.179688 17.449219 49.246094 17.582031 49.378906 C 17.714844 49.511719 17.78125 49.671875 17.78125 49.859375 C 17.78125 50.046875 17.714844 50.207031 17.582031 50.339844 C 17.449219 50.472656 17.289062 50.539062 17.101562 50.539062 Z M 23.910156 50.539062 C 23.71875 50.539062 23.558594 50.472656 23.425781 50.339844 C 23.292969 50.207031 23.226562 50.046875 23.226562 49.859375 C 23.226562 49.671875 23.292969 49.511719 23.425781 49.378906 C 23.558594 49.246094 23.71875 49.179688 23.910156 49.179688 C 24.097656 49.179688 24.257812 49.246094 24.390625 49.378906 C 24.523438 49.511719 24.589844 49.671875 24.589844 49.859375 C 24.589844 50.046875 24.523438 50.207031 24.390625 50.339844 C 24.257812 50.472656 24.097656 50.539062 23.910156 50.539062 Z M 23.910156 50.539062 " fill-opacity="1" fill-rule="nonzero"/></g><g clip-path="url(#abbc540a4e)"><path fill="#a6a6a6" d="M 11.753906 54.039062 C 11.601562 54.039062 11.453125 54.070312 11.308594 54.128906 C 11.164062 54.1875 11.039062 54.273438 10.929688 54.382812 C 10.820312 54.492188 10.734375 54.617188 10.675781 54.757812 C 10.617188 54.902344 10.589844 55.050781 10.589844 55.207031 L 10.589844 60.84375 C 10.585938 61.003906 10.613281 61.152344 10.667969 61.300781 C 10.726562 61.445312 10.8125 61.574219 10.921875 61.6875 C 11.03125 61.796875 11.15625 61.886719 11.300781 61.945312 C 11.445312 62.007812 11.597656 62.035156 11.753906 62.035156 C 11.910156 62.035156 12.0625 62.007812 12.207031 61.945312 C 12.351562 61.886719 12.480469 61.796875 12.589844 61.6875 C 12.699219 61.574219 12.78125 61.445312 12.839844 61.300781 C 12.898438 61.152344 12.925781 61.003906 12.921875 60.84375 L 12.921875 55.207031 C 12.921875 55.050781 12.890625 54.902344 12.832031 54.757812 C 12.773438 54.617188 12.6875 54.492188 12.578125 54.382812 C 12.46875 54.273438 12.34375 54.1875 12.203125 54.128906 C 12.058594 54.070312 11.910156 54.039062 11.753906 54.039062 Z M 11.753906 54.039062 " fill-opacity="1" fill-rule="nonzero"/></g><g clip-path="url(#ac4791f0bb)"><path fill="#a6a6a6" d="M 29.351562 54.039062 C 29.199219 54.039062 29.050781 54.070312 28.90625 54.128906 C 28.761719 54.1875 28.636719 54.273438 28.527344 54.382812 C 28.417969 54.492188 28.335938 54.617188 28.273438 54.757812 C 28.214844 54.902344 28.1875 55.050781 28.1875 55.207031 L 28.1875 60.84375 C 28.183594 61.003906 28.210938 61.152344 28.269531 61.300781 C 28.324219 61.445312 28.410156 61.574219 28.519531 61.6875 C 28.628906 61.796875 28.757812 61.886719 28.902344 61.945312 C 29.046875 62.007812 29.195312 62.035156 29.351562 62.035156 C 29.511719 62.035156 29.660156 62.007812 29.804688 61.945312 C 29.949219 61.886719 30.078125 61.796875 30.1875 61.6875 C 30.296875 61.574219 30.378906 61.445312 30.4375 61.300781 C 30.496094 61.152344 30.523438 61.003906 30.519531 60.84375 L 30.519531 55.207031 C 30.519531 55.050781 30.492188 54.902344 30.429688 54.757812 C 30.371094 54.617188 30.289062 54.492188 30.179688 54.382812 C 30.070312 54.273438 29.941406 54.1875 29.800781 54.128906 C 29.65625 54.070312 29.507812 54.039062 29.351562 54.039062 Z M 29.351562 54.039062 " fill-opacity="1" fill-rule="nonzero"/></g><g clip-path="url(#256d63c9f2)"><g clip-path="url(#996757335a)"><path fill="#ffffff" d="M 25 0.164062 L 77.613281 0.164062 L 77.613281 74.152344 L 25 74.152344 Z M 25 0.164062 " fill-opacity="1" fill-rule="nonzero"/></g></g><g clip-path="url(#44a76cbf61)"><g clip-path="url(#b5af12d4b0)"><path stroke-linecap="butt" transform="matrix(0.746681, 0, 0, 0.746681, 25.000143, 0.169312)" fill="none" stroke-linejoin="miter" d="M 14.998466 -0.00179961 L 55.453514 -0.00179961 C 59.434672 -0.00179961 63.248422 1.578108 66.057727 4.392645 C 68.872265 7.207182 70.452172 11.020932 70.452172 14.996858 L 70.452172 84.083806 C 70.452172 88.064963 68.872265 91.878713 66.057727 94.693251 C 63.248422 97.502556 59.434672 99.082464 55.453514 99.082464 L 14.998466 99.082464 C 11.02254 99.082464 7.203558 97.502556 4.394253 94.693251 C 1.579715 91.878713 -0.000192003 88.064963 -0.000192003 84.083806 L -0.000192003 14.996858 C -0.000192003 11.020932 1.579715 7.207182 4.394253 4.392645 C 7.203558 1.578108 11.02254 -0.00179961 14.998466 -0.00179961 Z M 14.998466 -0.00179961 " stroke="#000000" stroke-width="10" stroke-opacity="1" stroke-miterlimit="4"/></g></g><g clip-path="url(#f59e02c338)"><path fill="#5271ff" d="M 64.109375 24.355469 C 64.109375 31.425781 58.375 37.160156 51.304688 37.160156 C 44.234375 37.160156 38.5 31.425781 38.5 24.355469 C 38.5 17.28125 44.234375 11.550781 51.304688 11.550781 C 58.375 11.550781 64.109375 17.28125 64.109375 24.355469 " fill-opacity="1" fill-rule="nonzero"/></g><path fill="#ffffff" d="M 55.851562 20.304688 C 55.851562 22.828125 53.808594 24.871094 51.289062 24.871094 C 48.765625 24.871094 46.722656 22.828125 46.722656 20.304688 C 46.722656 17.785156 48.765625 15.742188 51.289062 15.742188 C 53.808594 15.742188 55.851562 17.785156 55.851562 20.304688 " fill-opacity="1" fill-rule="nonzero"/><g clip-path="url(#684c25b142)"><path fill="#ffffff" d="M 51.289062 36.550781 C 54.519531 36.550781 57.46875 35.355469 59.722656 33.378906 C 59.023438 28.8125 56.960938 25.644531 51.289062 25.644531 C 45.773438 25.644531 43.636719 28.828125 42.886719 33.410156 C 45.136719 35.367188 48.074219 36.550781 51.289062 36.550781 " fill-opacity="1" fill-rule="nonzero"/></g><g clip-path="url(#79c0364f1d)"><g clip-path="url(#6c84806715)"><path fill="#faf1f1" d="M 34.101562 43.890625 L 68.503906 43.890625 L 68.503906 50.082031 L 34.101562 50.082031 Z M 34.101562 43.890625 " fill-opacity="1" fill-rule="nonzero"/></g></g><g clip-path="url(#7b26f98bda)"><g clip-path="url(#2219f0675c)"><path fill="#e8e5e5" d="M 34.101562 43.890625 L 68.503906 43.890625 L 68.503906 50.082031 L 34.101562 50.082031 Z M 34.101562 43.890625 " fill-opacity="1" fill-rule="nonzero"/></g></g><g clip-path="url(#457d983da8)"><g clip-path="url(#b9fe84e3ae)"><path fill="#faf1f1" d="M 34.101562 56.800781 L 68.503906 56.800781 L 68.503906 62.992188 L 34.101562 62.992188 Z M 34.101562 56.800781 " fill-opacity="1" fill-rule="nonzero"/></g></g><g clip-path="url(#a0e7beaad6)"><g clip-path="url(#981e452182)"><path fill="#e8e5e5" d="M 34.101562 56.800781 L 68.503906 56.800781 L 68.503906 62.992188 L 34.101562 62.992188 Z M 34.101562 56.800781 " fill-opacity="1" fill-rule="nonzero"/></g></g><g clip-path="url(#278f4e4bb4)"><g clip-path="url(#dd84eb2580)"><path fill="#ffffff" d="M 59.664062 24.355469 L 95.558594 24.355469 L 95.558594 74.828125 L 59.664062 74.828125 Z M 59.664062 24.355469 " fill-opacity="1" fill-rule="nonzero"/></g></g><g clip-path="url(#22add41910)"><g clip-path="url(#3da2c64502)"><path stroke-linecap="butt" transform="matrix(0.746681, 0, 0, 0.746681, 59.666036, 24.355855)" fill="none" stroke-linejoin="miter" d="M 14.996015 -0.000517373 L 33.065553 -0.000517373 C 37.041479 -0.000517373 40.855229 1.57939 43.669766 4.393927 C 46.484303 7.203233 48.064211 11.022215 48.064211 14.998141 L 48.064211 52.5968 C 48.064211 56.572726 46.484303 60.386476 43.669766 63.201013 C 40.855229 66.01555 37.041479 67.595458 33.065553 67.595458 L 14.996015 67.595458 C 11.020089 67.595458 7.206339 66.01555 4.391802 63.201013 C 1.582496 60.386476 0.00258856 56.572726 0.00258856 52.5968 L 0.00258856 14.998141 C 0.00258856 11.022215 1.582496 7.203233 4.391802 4.393927 C 7.206339 1.57939 11.020089 -0.000517373 14.996015 -0.000517373 Z M 14.996015 -0.000517373 " stroke="#000000" stroke-width="10" stroke-opacity="1" stroke-miterlimit="4"/></g></g><g clip-path="url(#a401ee0f8d)"><path fill="#5271ff" d="M 86.339844 40.855469 C 86.339844 45.675781 82.429688 49.585938 77.609375 49.585938 C 72.785156 49.585938 68.875 45.675781 68.875 40.855469 C 68.875 36.03125 72.785156 32.121094 77.609375 32.121094 C 82.429688 32.121094 86.339844 36.03125 86.339844 40.855469 " fill-opacity="1" fill-rule="nonzero"/></g><path fill="#ffffff" d="M 80.710938 38.09375 C 80.710938 39.8125 79.316406 41.207031 77.597656 41.207031 C 75.878906 41.207031 74.484375 39.8125 74.484375 38.09375 C 74.484375 36.375 75.878906 34.980469 77.597656 34.980469 C 79.316406 34.980469 80.710938 36.375 80.710938 38.09375 " fill-opacity="1" fill-rule="nonzero"/><g clip-path="url(#2545c11761)"><path fill="#ffffff" d="M 77.597656 49.171875 C 79.800781 49.171875 81.8125 48.355469 83.347656 47.011719 C 82.871094 43.894531 81.46875 41.734375 77.597656 41.734375 C 73.835938 41.734375 72.378906 43.90625 71.867188 47.03125 C 73.402344 48.363281 75.40625 49.171875 77.597656 49.171875 " fill-opacity="1" fill-rule="nonzero"/></g><g clip-path="url(#4bd583634e)"><g clip-path="url(#8f11af1024)"><path fill="#faf1f1" d="M 65.875 54.183594 L 89.34375 54.183594 L 89.34375 58.410156 L 65.875 58.410156 Z M 65.875 54.183594 " fill-opacity="1" fill-rule="nonzero"/></g></g><g clip-path="url(#aab5a72856)"><g clip-path="url(#6c25a4a09c)"><path fill="#e8e5e5" d="M 65.875 54.183594 L 89.34375 54.183594 L 89.34375 58.410156 L 65.875 58.410156 Z M 65.875 54.183594 " fill-opacity="1" fill-rule="nonzero"/></g></g><g clip-path="url(#e7fc2ce63b)"><g clip-path="url(#1f532f6239)"><path fill="#faf1f1" d="M 65.875 62.992188 L 89.34375 62.992188 L 89.34375 67.214844 L 65.875 67.214844 Z M 65.875 62.992188 " fill-opacity="1" fill-rule="nonzero"/></g></g><g clip-path="url(#60103df7ce)"><g clip-path="url(#28c00ddcfe)"><path fill="#e8e5e5" d="M 65.875 62.992188 L 89.34375 62.992188 L 89.34375 67.214844 L 65.875 67.214844 Z M 65.875 62.992188 " fill-opacity="1" fill-rule="nonzero"/></g></g></svg>