<svg xmlns="http://www.w3.org/2000/svg" xmlns:xlink="http://www.w3.org/1999/xlink" width="150" zoomAndPan="magnify" viewBox="0 0 112.5 74.999997" height="100" preserveAspectRatio="xMidYMid meet" version="1.0"><defs><clipPath id="3e81957e5e"><path d="M 6 0.164062 L 33 0.164062 L 33 25 L 6 25 Z M 6 0.164062 " clip-rule="nonzero"/></clipPath><clipPath id="875c075d36"><path d="M -1.832031 6.3125 L 23.980469 -5.464844 L 32.96875 14.234375 L 7.15625 26.011719 Z M -1.832031 6.3125 " clip-rule="nonzero"/></clipPath><clipPath id="b802d1cdff"><path d="M -1.832031 6.3125 L 23.980469 -5.464844 L 32.96875 14.234375 L 7.15625 26.011719 Z M -1.832031 6.3125 " clip-rule="nonzero"/></clipPath><clipPath id="92e0134331"><path d="M 19 1 L 92.792969 1 L 92.792969 74.832031 L 19 74.832031 Z M 19 1 " clip-rule="nonzero"/></clipPath><clipPath id="e486de14f5"><path d="M 75.726562 7 L 99 7 L 99 13 L 75.726562 13 Z M 75.726562 7 " clip-rule="nonzero"/></clipPath></defs><g clip-path="url(#3e81957e5e)"><g clip-path="url(#875c075d36)"><g clip-path="url(#b802d1cdff)"><path fill="#d9d9d9" d="M 12.101562 21.332031 L 6.242188 24.003906 L 7.585938 9.675781 L 12.269531 -0.113281 Z M 13.234375 23.351562 Z M 13.234375 23.351562 L 32.703125 14.464844 L 13.777344 1.058594 L 14.542969 11.253906 L 24.070312 15.785156 Z M 13.234375 23.351562 " fill-opacity="1" fill-rule="evenodd"/></g></g></g><g clip-path="url(#92e0134331)"><path fill="#000000" d="M 80.230469 41.824219 C 81.039062 41.828125 81.839844 41.753906 82.636719 41.597656 C 83.429688 41.445312 84.199219 41.214844 84.949219 40.90625 C 85.699219 40.601562 86.410156 40.222656 87.085938 39.773438 C 87.761719 39.328125 88.386719 38.816406 88.960938 38.246094 C 89.535156 37.675781 90.050781 37.054688 90.503906 36.378906 C 90.957031 35.707031 91.339844 34.996094 91.652344 34.246094 C 91.964844 33.496094 92.203125 32.726562 92.367188 31.929688 C 92.527344 31.132812 92.613281 30.328125 92.617188 29.515625 C 92.621094 28.703125 92.546875 27.898438 92.394531 27.101562 C 92.238281 26.304688 92.011719 25.527344 91.707031 24.777344 C 91.398438 24.023438 91.023438 23.308594 90.578125 22.628906 C 90.132812 21.953125 89.625 21.324219 89.058594 20.746094 C 88.488281 20.167969 87.867188 19.652344 87.199219 19.195312 C 86.527344 18.742188 85.820312 18.355469 85.074219 18.042969 C 84.328125 17.726562 83.5625 17.488281 82.769531 17.324219 C 81.976562 17.160156 81.175781 17.078125 80.367188 17.074219 C 80.191406 16.304688 79.894531 15.589844 79.476562 14.921875 C 79.054688 14.253906 78.539062 13.675781 77.925781 13.1875 C 77.3125 12.695312 76.636719 12.320312 75.894531 12.058594 C 75.15625 11.796875 74.394531 11.667969 73.609375 11.667969 C 73.308594 11.667969 73.007812 11.6875 72.707031 11.726562 C 72.347656 11.285156 71.957031 10.871094 71.535156 10.492188 C 71.113281 10.113281 70.660156 9.765625 70.183594 9.457031 C 69.707031 9.148438 69.210938 8.878906 68.691406 8.648438 C 68.171875 8.417969 67.636719 8.226562 67.089844 8.078125 C 66.542969 7.933594 65.984375 7.828125 65.417969 7.769531 C 64.855469 7.710938 64.289062 7.695312 63.722656 7.726562 C 63.15625 7.753906 62.59375 7.828125 62.039062 7.945312 C 61.484375 8.066406 60.941406 8.226562 60.410156 8.429688 C 59.894531 7.730469 59.332031 7.078125 58.71875 6.464844 C 58.105469 5.855469 57.453125 5.292969 56.753906 4.78125 C 56.054688 4.269531 55.324219 3.816406 54.558594 3.417969 C 53.792969 3.015625 53 2.675781 52.179688 2.398438 C 51.363281 2.121094 50.53125 1.90625 49.679688 1.753906 C 48.828125 1.601562 47.972656 1.515625 47.109375 1.496094 C 46.246094 1.472656 45.386719 1.519531 44.53125 1.628906 C 43.671875 1.738281 42.828125 1.914062 42 2.152344 C 41.167969 2.390625 40.363281 2.691406 39.578125 3.054688 C 38.792969 3.414062 38.039062 3.835938 37.316406 4.3125 C 36.597656 4.789062 35.914062 5.316406 35.273438 5.898438 C 34.632812 6.480469 34.039062 7.105469 33.492188 7.777344 C 32.945312 8.449219 32.453125 9.15625 32.011719 9.902344 C 31.570312 10.652344 31.191406 11.425781 30.867188 12.230469 C 30.546875 13.035156 30.285156 13.859375 30.089844 14.703125 C 29.890625 15.550781 29.757812 16.402344 29.6875 17.269531 C 28.9375 17.402344 28.207031 17.609375 27.492188 17.878906 C 26.78125 18.152344 26.097656 18.488281 25.449219 18.886719 C 24.796875 19.285156 24.1875 19.742188 23.621094 20.253906 C 23.054688 20.769531 22.539062 21.328125 22.078125 21.9375 C 21.613281 22.546875 21.210938 23.191406 20.867188 23.875 C 20.523438 24.5625 20.246094 25.269531 20.035156 26.007812 C 19.824219 26.742188 19.679688 27.492188 19.605469 28.253906 C 19.53125 29.015625 19.53125 29.78125 19.597656 30.542969 C 19.664062 31.304688 19.800781 32.054688 20.007812 32.792969 C 20.214844 33.53125 20.484375 34.242188 20.824219 34.929688 C 21.160156 35.617188 21.558594 36.265625 22.015625 36.878906 C 22.476562 37.492188 22.984375 38.058594 23.546875 38.574219 C 24.109375 39.089844 24.714844 39.550781 25.363281 39.957031 C 26.011719 40.363281 26.691406 40.703125 27.402344 40.980469 C 28.113281 41.257812 28.839844 41.46875 29.589844 41.609375 C 30.339844 41.75 31.097656 41.820312 31.859375 41.824219 L 34.511719 41.824219 L 34.511719 50.570312 C 34.511719 51.367188 34.375 52.144531 34.101562 52.898438 C 33.832031 53.648438 33.441406 54.332031 32.929688 54.949219 C 32.421875 55.5625 31.824219 56.074219 31.136719 56.476562 C 30.449219 56.882812 29.714844 57.160156 28.929688 57.304688 C 28.800781 56.949219 28.628906 56.613281 28.417969 56.292969 C 28.207031 55.976562 27.960938 55.6875 27.683594 55.429688 C 27.402344 55.171875 27.097656 54.949219 26.769531 54.761719 C 26.4375 54.574219 26.089844 54.425781 25.726562 54.324219 C 25.359375 54.21875 24.988281 54.15625 24.609375 54.140625 C 24.230469 54.125 23.855469 54.152344 23.480469 54.222656 C 23.109375 54.292969 22.75 54.410156 22.402344 54.566406 C 22.058594 54.722656 21.734375 54.917969 21.433594 55.152344 C 21.132812 55.382812 20.863281 55.648438 20.625 55.945312 C 20.386719 56.242188 20.1875 56.566406 20.023438 56.910156 C 19.863281 57.253906 19.742188 57.613281 19.660156 57.984375 C 19.582031 58.359375 19.546875 58.734375 19.558594 59.117188 C 19.566406 59.496094 19.621094 59.871094 19.71875 60.242188 C 19.8125 60.609375 19.953125 60.960938 20.132812 61.296875 C 20.3125 61.632812 20.527344 61.945312 20.78125 62.230469 C 21.035156 62.511719 21.316406 62.765625 21.625 62.984375 C 21.9375 63.203125 22.269531 63.378906 22.625 63.519531 C 22.976562 63.660156 23.339844 63.753906 23.71875 63.808594 C 24.09375 63.863281 24.46875 63.871094 24.847656 63.835938 C 25.226562 63.800781 25.59375 63.71875 25.953125 63.597656 C 26.3125 63.476562 26.652344 63.3125 26.972656 63.109375 C 27.296875 62.90625 27.589844 62.667969 27.855469 62.394531 C 28.121094 62.121094 28.351562 61.820312 28.546875 61.496094 C 28.738281 61.167969 28.894531 60.820312 29.007812 60.457031 C 29.597656 60.378906 30.179688 60.246094 30.746094 60.058594 C 31.3125 59.875 31.859375 59.640625 32.382812 59.355469 C 32.90625 59.070312 33.402344 58.742188 33.871094 58.371094 C 34.335938 57.996094 34.765625 57.585938 35.15625 57.132812 C 35.550781 56.683594 35.898438 56.199219 36.207031 55.6875 C 36.511719 55.171875 36.769531 54.636719 36.980469 54.074219 C 37.191406 53.515625 37.347656 52.941406 37.457031 52.351562 C 37.5625 51.761719 37.617188 51.167969 37.617188 50.570312 L 37.617188 41.824219 L 48.226562 41.824219 L 48.226562 65.355469 C 47.867188 65.476562 47.523438 65.640625 47.203125 65.84375 C 46.878906 66.046875 46.585938 66.285156 46.316406 66.558594 C 46.050781 66.832031 45.820312 67.132812 45.625 67.460938 C 45.425781 67.789062 45.269531 68.136719 45.15625 68.5 C 45.042969 68.867188 44.96875 69.238281 44.941406 69.621094 C 44.914062 70.003906 44.933594 70.382812 44.996094 70.761719 C 45.058594 71.136719 45.160156 71.503906 45.308594 71.855469 C 45.457031 72.210938 45.644531 72.539062 45.867188 72.851562 C 46.09375 73.160156 46.351562 73.4375 46.640625 73.683594 C 46.933594 73.933594 47.246094 74.144531 47.585938 74.316406 C 47.925781 74.488281 48.28125 74.621094 48.652344 74.710938 C 49.023438 74.796875 49.398438 74.84375 49.78125 74.84375 C 50.164062 74.84375 50.539062 74.796875 50.910156 74.710938 C 51.28125 74.621094 51.632812 74.488281 51.972656 74.316406 C 52.316406 74.144531 52.628906 73.933594 52.921875 73.683594 C 53.210938 73.4375 53.46875 73.160156 53.695312 72.851562 C 53.917969 72.539062 54.105469 72.210938 54.253906 71.855469 C 54.402344 71.503906 54.503906 71.136719 54.566406 70.761719 C 54.628906 70.382812 54.644531 70.003906 54.617188 69.621094 C 54.589844 69.238281 54.519531 68.867188 54.40625 68.5 C 54.289062 68.136719 54.136719 67.789062 53.9375 67.460938 C 53.742188 67.132812 53.511719 66.832031 53.246094 66.558594 C 52.976562 66.285156 52.683594 66.046875 52.359375 65.84375 C 52.039062 65.640625 51.695312 65.476562 51.335938 65.355469 L 51.335938 41.824219 L 61.949219 41.824219 L 61.949219 60.210938 C 61.585938 60.335938 61.246094 60.5 60.921875 60.703125 C 60.601562 60.90625 60.304688 61.144531 60.039062 61.417969 C 59.773438 61.691406 59.542969 61.992188 59.347656 62.316406 C 59.148438 62.644531 58.996094 62.992188 58.878906 63.355469 C 58.765625 63.722656 58.695312 64.09375 58.667969 64.476562 C 58.640625 64.859375 58.65625 65.238281 58.71875 65.613281 C 58.78125 65.992188 58.886719 66.359375 59.03125 66.710938 C 59.179688 67.0625 59.367188 67.394531 59.589844 67.703125 C 59.816406 68.011719 60.074219 68.289062 60.363281 68.535156 C 60.65625 68.785156 60.96875 68.992188 61.308594 69.167969 C 61.648438 69.339844 62.003906 69.46875 62.375 69.558594 C 62.746094 69.648438 63.121094 69.691406 63.5 69.691406 C 63.882812 69.691406 64.257812 69.648438 64.628906 69.558594 C 64.996094 69.46875 65.351562 69.339844 65.691406 69.167969 C 66.03125 68.992188 66.347656 68.785156 66.636719 68.535156 C 66.925781 68.289062 67.183594 68.011719 67.410156 67.703125 C 67.636719 67.394531 67.820312 67.0625 67.96875 66.710938 C 68.117188 66.359375 68.222656 65.992188 68.28125 65.613281 C 68.34375 65.238281 68.363281 64.859375 68.335938 64.476562 C 68.308594 64.09375 68.238281 63.722656 68.121094 63.355469 C 68.007812 62.992188 67.851562 62.644531 67.65625 62.316406 C 67.460938 61.992188 67.230469 61.691406 66.960938 61.417969 C 66.695312 61.144531 66.402344 60.90625 66.078125 60.703125 C 65.757812 60.5 65.414062 60.335938 65.054688 60.210938 L 65.054688 41.824219 L 74.683594 41.824219 L 74.683594 48.84375 C 74.6875 49.429688 74.738281 50.011719 74.84375 50.585938 C 74.949219 51.160156 75.101562 51.722656 75.304688 52.269531 C 75.511719 52.820312 75.761719 53.34375 76.0625 53.847656 C 76.359375 54.347656 76.699219 54.820312 77.082031 55.261719 C 77.464844 55.703125 77.886719 56.105469 78.339844 56.472656 C 78.792969 56.835938 79.277344 57.160156 79.789062 57.4375 C 80.304688 57.714844 80.835938 57.945312 81.390625 58.128906 C 81.941406 58.3125 82.507812 58.441406 83.085938 58.523438 C 83.199219 58.886719 83.355469 59.234375 83.550781 59.5625 C 83.746094 59.894531 83.976562 60.195312 84.242188 60.46875 C 84.507812 60.742188 84.800781 60.980469 85.125 61.1875 C 85.445312 61.390625 85.785156 61.554688 86.148438 61.679688 C 86.507812 61.800781 86.878906 61.882812 87.257812 61.917969 C 87.636719 61.953125 88.015625 61.945312 88.390625 61.890625 C 88.769531 61.839844 89.136719 61.742188 89.488281 61.601562 C 89.84375 61.464844 90.179688 61.285156 90.492188 61.066406 C 90.804688 60.847656 91.085938 60.59375 91.339844 60.308594 C 91.59375 60.023438 91.8125 59.710938 91.992188 59.375 C 92.171875 59.035156 92.3125 58.683594 92.410156 58.3125 C 92.507812 57.941406 92.558594 57.566406 92.570312 57.183594 C 92.578125 56.800781 92.542969 56.421875 92.464844 56.046875 C 92.386719 55.675781 92.265625 55.3125 92.101562 54.96875 C 91.9375 54.625 91.734375 54.300781 91.496094 54.003906 C 91.257812 53.707031 90.988281 53.4375 90.683594 53.207031 C 90.382812 52.972656 90.058594 52.773438 89.710938 52.617188 C 89.363281 52.460938 89.003906 52.347656 88.628906 52.273438 C 88.253906 52.203125 87.878906 52.175781 87.496094 52.191406 C 87.117188 52.210938 86.742188 52.269531 86.375 52.375 C 86.011719 52.480469 85.660156 52.628906 85.328125 52.816406 C 85 53.003906 84.691406 53.230469 84.414062 53.492188 C 84.132812 53.75 83.890625 54.039062 83.675781 54.359375 C 83.464844 54.675781 83.292969 55.015625 83.164062 55.375 C 82.40625 55.226562 81.695312 54.957031 81.035156 54.5625 C 80.371094 54.167969 79.796875 53.667969 79.304688 53.074219 C 78.816406 52.476562 78.441406 51.8125 78.179688 51.082031 C 77.921875 50.355469 77.792969 49.601562 77.792969 48.828125 L 77.792969 41.808594 Z M 24.386719 60.734375 C 24.15625 60.734375 23.9375 60.6875 23.722656 60.597656 C 23.511719 60.507812 23.324219 60.378906 23.164062 60.214844 C 23.003906 60.050781 22.878906 59.859375 22.792969 59.644531 C 22.703125 59.429688 22.660156 59.207031 22.664062 58.976562 C 22.664062 58.746094 22.710938 58.523438 22.800781 58.308594 C 22.886719 58.097656 23.015625 57.910156 23.179688 57.746094 C 23.34375 57.582031 23.53125 57.457031 23.742188 57.371094 C 23.957031 57.28125 24.179688 57.238281 24.410156 57.238281 C 24.636719 57.242188 24.859375 57.285156 25.074219 57.375 C 25.285156 57.464844 25.472656 57.589844 25.636719 57.753906 C 25.796875 57.917969 25.921875 58.105469 26.011719 58.320312 C 26.097656 58.535156 26.144531 58.757812 26.144531 58.988281 C 26.140625 59.21875 26.097656 59.445312 26.007812 59.660156 C 25.917969 59.875 25.792969 60.0625 25.625 60.226562 C 25.460938 60.390625 25.273438 60.519531 25.058594 60.605469 C 24.84375 60.695312 24.621094 60.738281 24.386719 60.734375 Z M 49.78125 71.714844 C 49.550781 71.710938 49.328125 71.667969 49.117188 71.578125 C 48.902344 71.488281 48.714844 71.363281 48.550781 71.199219 C 48.390625 71.035156 48.265625 70.847656 48.175781 70.632812 C 48.089844 70.417969 48.042969 70.195312 48.046875 69.960938 C 48.046875 69.730469 48.089844 69.507812 48.179688 69.292969 C 48.265625 69.082031 48.394531 68.890625 48.554688 68.726562 C 48.71875 68.566406 48.90625 68.4375 49.121094 68.351562 C 49.332031 68.261719 49.554688 68.21875 49.785156 68.21875 C 50.015625 68.21875 50.238281 68.261719 50.453125 68.351562 C 50.664062 68.441406 50.851562 68.566406 51.015625 68.730469 C 51.179688 68.894531 51.304688 69.082031 51.390625 69.296875 C 51.480469 69.511719 51.523438 69.734375 51.523438 69.964844 C 51.523438 70.199219 51.480469 70.421875 51.390625 70.632812 C 51.300781 70.847656 51.175781 71.039062 51.011719 71.203125 C 50.847656 71.367188 50.660156 71.492188 50.449219 71.582031 C 50.234375 71.667969 50.011719 71.714844 49.78125 71.714844 Z M 63.5 66.570312 C 63.269531 66.570312 63.046875 66.527344 62.832031 66.441406 C 62.621094 66.351562 62.429688 66.226562 62.265625 66.0625 C 62.101562 65.898438 61.976562 65.707031 61.886719 65.492188 C 61.796875 65.277344 61.753906 65.054688 61.753906 64.824219 C 61.753906 64.589844 61.796875 64.367188 61.886719 64.152344 C 61.972656 63.9375 62.097656 63.746094 62.261719 63.582031 C 62.425781 63.417969 62.613281 63.292969 62.828125 63.203125 C 63.042969 63.113281 63.265625 63.070312 63.496094 63.066406 C 63.726562 63.066406 63.949219 63.113281 64.164062 63.199219 C 64.378906 63.289062 64.566406 63.417969 64.730469 63.582031 C 64.894531 63.746094 65.019531 63.933594 65.109375 64.148438 C 65.195312 64.363281 65.242188 64.585938 65.242188 64.820312 C 65.242188 65.050781 65.195312 65.273438 65.109375 65.488281 C 65.019531 65.703125 64.894531 65.890625 64.730469 66.054688 C 64.566406 66.21875 64.378906 66.347656 64.167969 66.4375 C 63.953125 66.523438 63.730469 66.570312 63.5 66.570312 Z M 87.703125 55.292969 C 87.933594 55.292969 88.15625 55.335938 88.367188 55.425781 C 88.582031 55.515625 88.769531 55.640625 88.933594 55.804688 C 89.09375 55.96875 89.222656 56.15625 89.308594 56.371094 C 89.398438 56.585938 89.441406 56.808594 89.441406 57.039062 C 89.441406 57.273438 89.398438 57.496094 89.308594 57.710938 C 89.222656 57.921875 89.09375 58.113281 88.933594 58.277344 C 88.769531 58.441406 88.582031 58.566406 88.367188 58.65625 C 88.15625 58.746094 87.933594 58.789062 87.703125 58.789062 C 87.472656 58.789062 87.25 58.746094 87.035156 58.65625 C 86.824219 58.566406 86.636719 58.441406 86.472656 58.277344 C 86.308594 58.113281 86.183594 57.921875 86.09375 57.710938 C 86.007812 57.496094 85.960938 57.273438 85.960938 57.039062 C 85.964844 56.808594 86.007812 56.585938 86.097656 56.371094 C 86.183594 56.160156 86.308594 55.96875 86.472656 55.804688 C 86.636719 55.640625 86.824219 55.515625 87.039062 55.425781 C 87.25 55.339844 87.472656 55.292969 87.703125 55.292969 Z M 22.648438 29.449219 C 22.648438 28.863281 22.703125 28.289062 22.8125 27.714844 C 22.921875 27.140625 23.082031 26.585938 23.296875 26.042969 C 23.511719 25.5 23.773438 24.984375 24.082031 24.492188 C 24.394531 24 24.75 23.542969 25.144531 23.117188 C 25.542969 22.691406 25.976562 22.308594 26.445312 21.964844 C 26.914062 21.625 27.414062 21.328125 27.9375 21.078125 C 28.464844 20.832031 29.007812 20.636719 29.570312 20.488281 C 30.132812 20.34375 30.703125 20.253906 31.28125 20.21875 L 32.746094 20.105469 L 32.746094 18.632812 C 32.746094 17.878906 32.804688 17.125 32.925781 16.378906 C 33.046875 15.632812 33.226562 14.898438 33.464844 14.183594 C 33.707031 13.464844 34 12.769531 34.351562 12.101562 C 34.703125 11.433594 35.105469 10.796875 35.558594 10.191406 C 36.011719 9.585938 36.511719 9.023438 37.054688 8.5 C 37.597656 7.976562 38.179688 7.5 38.800781 7.074219 C 39.421875 6.644531 40.074219 6.269531 40.757812 5.945312 C 41.4375 5.625 42.140625 5.359375 42.863281 5.152344 C 43.589844 4.945312 44.324219 4.796875 45.074219 4.707031 C 45.820312 4.617188 46.570312 4.589844 47.324219 4.625 C 48.078125 4.660156 48.820312 4.753906 49.558594 4.910156 C 50.296875 5.0625 51.015625 5.277344 51.71875 5.546875 C 52.421875 5.820312 53.097656 6.148438 53.75 6.53125 C 54.398438 6.910156 55.015625 7.34375 55.59375 7.824219 C 56.175781 8.308594 56.714844 8.835938 57.207031 9.402344 C 57.703125 9.972656 58.152344 10.578125 58.550781 11.222656 L 59.328125 12.464844 L 60.613281 11.769531 C 61.761719 11.140625 62.988281 10.828125 64.296875 10.832031 C 64.9375 10.832031 65.570312 10.910156 66.191406 11.066406 C 66.8125 11.222656 67.402344 11.453125 67.96875 11.757812 C 68.53125 12.0625 69.050781 12.433594 69.523438 12.867188 C 70 13.296875 70.414062 13.78125 70.765625 14.320312 L 71.402344 15.28125 L 72.507812 14.953125 C 72.792969 14.863281 73.085938 14.8125 73.382812 14.792969 C 73.679688 14.777344 73.976562 14.792969 74.273438 14.84375 C 74.566406 14.894531 74.851562 14.980469 75.125 15.097656 C 75.398438 15.21875 75.65625 15.367188 75.894531 15.546875 C 76.136719 15.726562 76.351562 15.929688 76.542969 16.160156 C 76.738281 16.386719 76.898438 16.636719 77.035156 16.90625 C 77.167969 17.171875 77.269531 17.453125 77.339844 17.746094 C 77.40625 18.039062 77.441406 18.332031 77.441406 18.632812 L 77.441406 20.195312 L 80.238281 20.195312 C 80.84375 20.195312 81.441406 20.253906 82.035156 20.371094 C 82.628906 20.492188 83.203125 20.667969 83.761719 20.898438 C 84.324219 21.132812 84.851562 21.417969 85.355469 21.753906 C 85.859375 22.089844 86.324219 22.476562 86.75 22.90625 C 87.179688 23.335938 87.5625 23.800781 87.898438 24.308594 C 88.234375 24.8125 88.515625 25.34375 88.75 25.90625 C 88.980469 26.46875 89.15625 27.046875 89.273438 27.644531 C 89.390625 28.238281 89.449219 28.839844 89.449219 29.449219 C 89.449219 30.054688 89.390625 30.65625 89.273438 31.253906 C 89.15625 31.847656 88.980469 32.429688 88.75 32.988281 C 88.515625 33.550781 88.234375 34.082031 87.898438 34.589844 C 87.5625 35.09375 87.179688 35.5625 86.75 35.992188 C 86.324219 36.421875 85.859375 36.804688 85.355469 37.140625 C 84.851562 37.480469 84.324219 37.765625 83.761719 37.996094 C 83.203125 38.230469 82.628906 38.40625 82.035156 38.523438 C 81.441406 38.640625 80.84375 38.703125 80.238281 38.703125 L 31.859375 38.703125 C 31.253906 38.699219 30.65625 38.640625 30.0625 38.523438 C 29.46875 38.402344 28.894531 38.226562 28.335938 37.992188 C 27.777344 37.761719 27.246094 37.476562 26.746094 37.136719 C 26.242188 36.800781 25.777344 36.417969 25.347656 35.988281 C 24.921875 35.558594 24.539062 35.089844 24.203125 34.585938 C 23.867188 34.082031 23.582031 33.546875 23.351562 32.988281 C 23.121094 32.425781 22.945312 31.847656 22.828125 31.253906 C 22.707031 30.65625 22.648438 30.054688 22.648438 29.449219 Z M 22.648438 29.449219 " fill-opacity="1" fill-rule="nonzero"/></g><g clip-path="url(#e486de14f5)"><path fill="#d9d9d9" d="M 75.933594 7.960938 C 76.558594 8.597656 77.253906 9.179688 78.011719 9.710938 C 78.773438 10.242188 79.589844 10.710938 80.457031 11.117188 C 81.328125 11.523438 82.234375 11.859375 83.183594 12.128906 C 84.132812 12.394531 85.101562 12.589844 86.09375 12.707031 C 87.085938 12.828125 88.085938 12.871094 89.085938 12.835938 C 90.089844 12.804688 91.082031 12.695312 92.058594 12.507812 C 93.035156 12.324219 93.980469 12.066406 94.898438 11.738281 C 95.816406 11.410156 96.6875 11.011719 97.515625 10.550781 C 98.03125 10.304688 98.460938 10.015625 98.808594 9.6875 C 98.9375 9.527344 98.945312 9.363281 98.835938 9.1875 C 98.730469 9.015625 98.578125 8.953125 98.378906 8.996094 C 97.6875 9.390625 96.96875 9.738281 96.21875 10.03125 C 95.398438 10.277344 94.546875 10.480469 93.65625 10.640625 C 92.769531 10.804688 91.859375 10.917969 90.929688 10.984375 C 90.003906 11.054688 89.070312 11.074219 88.136719 11.050781 C 87.199219 11.023438 86.277344 10.953125 85.367188 10.832031 C 84.453125 10.714844 83.570312 10.550781 82.714844 10.34375 C 81.863281 10.136719 81.050781 9.886719 80.28125 9.597656 C 79.511719 9.304688 78.796875 8.980469 78.140625 8.617188 C 77.480469 8.257812 76.890625 7.863281 76.367188 7.441406 C 76.296875 7.382812 76.214844 7.359375 76.121094 7.367188 C 76.027344 7.375 75.953125 7.414062 75.890625 7.484375 C 75.832031 7.558594 75.808594 7.640625 75.816406 7.730469 C 75.824219 7.824219 75.863281 7.902344 75.933594 7.960938 " fill-opacity="1" fill-rule="nonzero"/></g><path fill="#d9d9d9" d="M 94.925781 7.269531 C 103.964844 6.367188 104.488281 8.566406 97.226562 13.597656 C 97.078125 13.695312 96.941406 13.703125 96.8125 13.625 C 96.6875 13.546875 96.667969 13.441406 96.753906 13.308594 C 101.429688 8.484375 101.429688 8.484375 94.746094 7.792969 C 94.59375 7.746094 94.542969 7.65625 94.589844 7.511719 C 94.636719 7.371094 94.75 7.289062 94.925781 7.269531 " fill-opacity="1" fill-rule="nonzero"/></svg>