<svg xmlns="http://www.w3.org/2000/svg" xmlns:xlink="http://www.w3.org/1999/xlink" width="500" zoomAndPan="magnify" viewBox="0 0 375 374.999991" height="500" preserveAspectRatio="xMidYMid meet" version="1.0"><defs><clipPath id="91a70501d6"><path d="M 1 159.203125 L 374 159.203125 L 374 215.453125 L 1 215.453125 Z M 1 159.203125 " clip-rule="nonzero"/></clipPath></defs><g clip-path="url(#91a70501d6)"><path fill="#000000" d="M 24.996094 181.730469 L 6.96875 181.730469 L 6.96875 163.710938 L 25.972656 163.710938 C 32.929688 163.710938 36.40625 166.757812 36.40625 172.851562 C 36.40625 178.765625 32.601562 181.722656 24.996094 181.722656 M 37.953125 163.5 C 35.480469 161.300781 32.027344 160.199219 27.585938 160.199219 L 1.769531 160.34375 L 1.769531 203.453125 L 6.96875 203.453125 L 6.921875 185.101562 L 26.128906 185.101562 C 30.949219 185.101562 34.738281 184 37.507812 181.800781 C 40.273438 179.601562 41.648438 176.550781 41.648438 172.648438 C 41.648438 168.746094 40.414062 165.707031 37.933594 163.5 Z M 71.625 194.402344 C 71.09375 195.859375 70.273438 197.078125 69.148438 198.070312 C 66.820312 200.332031 63.265625 201.457031 58.480469 201.457031 C 54.164062 201.457031 50.851562 200.359375 48.539062 198.164062 C 46.226562 195.964844 45.070312 193.027344 45.070312 189.351562 C 45.070312 187.433594 45.371094 185.730469 45.980469 184.253906 C 46.585938 182.777344 47.460938 181.515625 48.609375 180.492188 C 51 178.324219 54.292969 177.242188 58.484375 177.242188 C 67.765625 177.242188 72.410156 181.28125 72.410156 189.359375 C 72.410156 191.277344 72.144531 192.964844 71.617188 194.417969 M 72.5625 178.515625 C 69.390625 175.640625 64.699219 174.207031 58.484375 174.207031 C 52.609375 174.207031 48.074219 175.675781 44.871094 178.601562 C 41.984375 181.257812 40.539062 184.839844 40.539062 189.351562 C 40.539062 193.828125 42.027344 197.441406 45.011719 200.191406 C 46.660156 201.675781 48.578125 202.738281 50.757812 203.410156 C 52.941406 204.082031 55.523438 204.40625 58.472656 204.40625 C 64.65625 204.40625 69.363281 202.988281 72.597656 200.144531 C 75.488281 197.550781 76.933594 193.953125 76.933594 189.347656 C 76.933594 184.71875 75.46875 181.101562 72.550781 178.507812 Z M 111.90625 195.648438 C 111.90625 201.449219 106.675781 204.351562 96.214844 204.351562 C 93.019531 204.351562 90.328125 204.148438 88.136719 203.738281 C 85.945312 203.324219 84.171875 202.664062 82.804688 201.734375 C 81.75 201.03125 80.914062 200.097656 80.289062 198.953125 C 79.667969 197.8125 79.265625 196.375 79.082031 194.648438 L 83.949219 194.601562 C 83.949219 196.882812 84.800781 198.566406 86.511719 199.648438 C 88.339844 200.945312 91.578125 201.59375 96.226562 201.59375 C 103.535156 201.59375 107.191406 199.773438 107.191406 196.128906 C 107.191406 194 105.964844 192.527344 103.511719 191.730469 C 103.015625 191.578125 100.058594 191.167969 94.644531 190.503906 C 89.226562 189.839844 85.851562 189.25 84.515625 188.722656 C 81.628906 187.578125 80.1875 185.527344 80.1875 182.5625 C 80.1875 179.664062 81.476562 177.5 84.054688 176.082031 C 85.328125 175.496094 86.921875 175.039062 88.832031 174.714844 C 90.746094 174.390625 92.960938 174.230469 95.476562 174.230469 C 105.546875 174.230469 110.578125 177.371094 110.578125 183.648438 L 105.953125 183.648438 C 105.953125 179.234375 102.410156 177.027344 95.335938 177.027344 C 91.734375 177.027344 89.058594 177.46875 87.289062 178.371094 C 85.519531 179.273438 84.636719 180.640625 84.636719 182.5 C 84.636719 184.230469 85.828125 185.488281 88.222656 186.25 C 89.617188 186.652344 92.832031 187.117188 97.863281 187.640625 C 102.371094 188.042969 105.453125 188.609375 107.128906 189.355469 C 110.328125 190.589844 111.925781 192.6875 111.925781 195.648438 Z M 131.023438 203.5 L 129.042969 203.777344 L 127.808594 203.871094 C 124.640625 203.871094 122.355469 203.414062 120.953125 202.5 C 119.550781 201.589844 118.851562 199.988281 118.851562 197.699219 L 118.851562 178.03125 L 113.078125 178.03125 L 113.078125 175.128906 L 118.804688 175.128906 L 118.851562 165.835938 L 123.289062 165.835938 L 123.289062 175.140625 L 131.011719 175.140625 L 131.011719 178.078125 L 123.289062 178.03125 L 123.289062 197.171875 C 123.289062 198.597656 123.667969 199.582031 124.4375 200.125 C 125.207031 200.667969 126.554688 200.9375 128.503906 200.9375 C 128.785156 200.96875 129.09375 200.960938 129.4375 200.90625 C 129.777344 200.855469 130.289062 200.738281 130.976562 200.558594 L 131.023438 203.511719 Z M 161.710938 196.984375 C 160.5 197.96875 159.121094 198.726562 157.566406 199.25 C 156.015625 199.777344 154.230469 200.039062 152.214844 200.039062 C 142.933594 200.039062 138.292969 196.226562 138.292969 188.609375 C 138.292969 185.0625 139.480469 182.285156 141.855469 180.28125 C 144.230469 178.277344 147.574219 177.273438 151.886719 177.273438 C 156.234375 177.273438 159.53125 178.285156 161.78125 180.304688 C 164.03125 182.324219 165.15625 185.03125 165.15625 188.425781 C 165.15625 192.117188 164.007812 194.980469 161.710938 196.984375 M 169.59375 175.160156 L 165.15625 175.160156 L 165.109375 180.023438 C 163.152344 178.050781 161.757812 176.800781 160.917969 176.277344 C 158.441406 174.917969 155.21875 174.242188 151.277344 174.242188 C 145.5 174.242188 141.089844 175.550781 138.046875 178.175781 C 135.15625 180.582031 133.714844 184.066406 133.714844 188.632812 C 133.714844 190.886719 134.078125 192.898438 134.808594 194.671875 C 135.542969 196.445312 136.605469 197.949219 138.007812 199.183594 C 141.054688 201.710938 145.359375 202.976562 150.929688 202.976562 C 157.613281 202.976562 162.355469 201.160156 165.15625 197.523438 L 165.15625 202.558594 C 165.15625 205.769531 164.140625 208.253906 162.105469 210.011719 C 160.074219 211.769531 156.726562 212.652344 152.066406 212.652344 C 147.6875 212.652344 144.570312 212.050781 142.707031 210.855469 C 141.308594 209.933594 140.34375 208.332031 139.816406 206.0625 L 135.253906 206.0625 C 135.75 209.238281 137.109375 211.535156 139.304688 212.953125 C 141.851562 214.585938 146.15625 215.414062 152.214844 215.414062 C 163.800781 215.414062 169.59375 211.128906 169.59375 202.566406 Z M 193.589844 178.023438 C 192.265625 177.808594 191.015625 177.699219 189.878906 177.699219 C 182.582031 177.699219 178.941406 181.675781 178.941406 189.625 L 178.941406 203.449219 L 174.550781 203.449219 L 174.503906 175.160156 L 178.941406 175.203125 L 178.941406 180.253906 L 179.171875 180.253906 C 179.917969 178.261719 181.097656 176.753906 182.710938 175.730469 C 184.480469 174.738281 187.117188 174.238281 190.625 174.238281 L 193.601562 174.238281 L 193.601562 178.023438 Z M 197.71875 187.515625 C 198.28125 184.300781 199.535156 181.804688 201.492188 180.046875 C 202.765625 179.027344 204.207031 178.261719 205.820312 177.753906 C 207.433594 177.242188 209.25 176.988281 211.269531 176.988281 C 215.210938 176.988281 218.429688 178.0625 220.929688 180.210938 C 223.429688 182.359375 224.675781 184.796875 224.675781 187.507812 L 197.707031 187.507812 M 225.097656 178.78125 C 223.546875 177.234375 221.621094 176.085938 219.320312 175.351562 C 217.019531 174.617188 214.332031 174.234375 211.257812 174.234375 C 205.507812 174.234375 201.050781 175.5625 197.878906 178.21875 C 194.710938 180.875 193.125 184.492188 193.125 189.0625 C 193.125 193.632812 194.648438 197.261719 197.691406 199.949219 C 200.984375 202.914062 205.628906 204.398438 211.625 204.398438 C 214.011719 204.398438 216.226562 204.128906 218.261719 203.589844 C 220.292969 203.054688 222.074219 202.289062 223.59375 201.308594 C 226.265625 199.398438 227.957031 197.046875 228.675781 194.25 L 223.878906 194.25 C 222.234375 199.085938 218.132812 201.503906 211.585938 201.503906 C 206.957031 201.503906 203.402344 200.324219 200.921875 197.957031 C 198.777344 195.929688 197.707031 193.300781 197.707031 190.074219 L 229.339844 190.074219 C 229.339844 185.277344 227.929688 181.511719 225.097656 178.789062 Z M 276.21875 191.875 C 276.21875 200.273438 269.402344 204.472656 255.773438 204.472656 C 247.605469 204.472656 241.644531 203.027344 237.890625 200.132812 C 234.8125 197.753906 233.277344 194.128906 233.277344 189.25 L 238.765625 189.25 C 238.765625 197.09375 244.425781 201.011719 255.769531 201.011719 C 261.207031 201.011719 265.136719 200.210938 267.558594 198.605469 C 269.609375 197.1875 270.636719 194.96875 270.636719 191.945312 C 270.636719 188.953125 269.238281 186.847656 266.441406 185.652344 C 264.855469 185.003906 260.988281 184.183594 254.839844 183.191406 C 247.105469 182.015625 242.089844 180.847656 239.789062 179.675781 C 236.464844 177.945312 234.804688 175.015625 234.804688 170.882812 C 234.804688 167.027344 236.21875 164.160156 239.046875 162.277344 C 242.085938 160.238281 247.304688 159.203125 254.695312 159.203125 C 268.054688 159.203125 274.730469 163.613281 274.730469 172.433594 L 269.195312 172.433594 C 269.195312 165.828125 264.246094 162.523438 254.320312 162.523438 C 249.34375 162.523438 245.707031 163.1875 243.40625 164.515625 C 241.226562 165.9375 240.140625 168.023438 240.140625 170.769531 C 240.140625 173.640625 241.535156 175.664062 244.335938 176.839844 C 245.824219 177.519531 250.207031 178.460938 257.472656 179.664062 C 264.308594 180.683594 268.921875 181.875 271.316406 183.230469 C 274.585938 184.898438 276.207031 187.789062 276.207031 191.894531 Z M 320.785156 196.179688 C 318.734375 197.8125 316.417969 199.035156 313.835938 199.855469 C 311.253906 200.671875 308.355469 201.078125 305.171875 201.078125 C 298.640625 201.078125 293.363281 199.320312 289.34375 195.832031 C 285.324219 192.34375 283.304688 187.671875 283.304688 181.855469 C 283.304688 175.785156 285.300781 171.046875 289.296875 167.664062 C 293.292969 164.28125 298.585938 162.578125 305.175781 162.578125 C 311.863281 162.578125 317.117188 164.351562 320.941406 167.898438 C 322.960938 169.625 324.453125 171.640625 325.417969 173.960938 C 326.382812 176.28125 326.863281 178.90625 326.863281 181.867188 C 326.863281 187.90625 324.84375 192.683594 320.800781 196.199219 M 323.71875 199.058594 C 326.578125 197.054688 328.691406 194.625 330.058594 191.761719 C 331.425781 188.898438 332.113281 185.617188 332.113281 181.882812 C 332.113281 175.1875 329.875 169.824219 325.394531 165.78125 C 323 163.558594 320.109375 161.910156 316.722656 160.832031 C 313.335938 159.75 309.480469 159.203125 305.132812 159.203125 C 296.679688 159.203125 290.046875 161.242188 285.234375 165.3125 C 280.417969 169.386719 278.011719 174.90625 278.011719 181.875 C 278.011719 188.660156 280.441406 194.136719 285.300781 198.296875 C 290.160156 202.460938 296.800781 204.542969 305.21875 204.542969 C 308.507812 204.542969 311.378906 204.320312 313.835938 203.878906 C 316.289062 203.4375 318.371094 202.757812 320.078125 201.839844 L 328.183594 207.425781 L 331.566406 204.332031 L 323.71875 199.042969 Z M 373.199219 203.46875 L 335.707031 203.46875 L 335.707031 160.292969 L 340.863281 160.199219 L 340.863281 199.839844 L 373.246094 199.839844 L 373.199219 203.441406 Z M 373.199219 203.46875 " fill-opacity="1" fill-rule="nonzero"/></g></svg>