<svg xmlns="http://www.w3.org/2000/svg" xmlns:xlink="http://www.w3.org/1999/xlink" width="500" zoomAndPan="magnify" viewBox="0 0 375 374.999991" height="500" preserveAspectRatio="xMidYMid meet" version="1.0"><defs><clipPath id="33b87b2153"><path d="M 10.269531 10.269531 L 365 10.269531 L 365 365 L 10.269531 365 Z M 10.269531 10.269531 " clip-rule="nonzero"/></clipPath></defs><g clip-path="url(#33b87b2153)"><path fill="#000000" d="M 10.269531 364.726562 L 364.726562 364.726562 L 364.726562 10.273438 L 10.269531 10.273438 Z M 10.269531 364.726562 " fill-opacity="1" fill-rule="nonzero"/></g><path fill="#ffffff" d="M 88.640625 188.664062 L 88.527344 203.1875 L 134.664062 203.1875 L 134.664062 334.28125 L 167.296875 334.28125 L 167.296875 203.1875 L 213.433594 203.1875 L 213.433594 188.953125 C 213.433594 181.074219 213.265625 174.484375 213.039062 174.320312 C 212.871094 174.097656 184.796875 173.988281 150.753906 174.042969 L 88.804688 174.207031 Z M 88.640625 188.664062 " fill-opacity="1" fill-rule="nonzero"/><path fill="#ffffff" d="M 296.289062 173.804688 C 305.289062 176.050781 312.15625 180.050781 318.457031 186.574219 C 321.710938 190.0625 326.554688 196.417969 326.941406 197.941406 C 327.054688 198.398438 311.644531 208.738281 302.296875 214.542969 C 301.964844 214.761719 300.621094 213.296875 299.097656 211.050781 C 294.542969 204.40625 289.753906 201.539062 282.441406 201.042969 C 271.699219 200.308594 264.773438 205.929688 264.828125 215.332031 C 264.828125 218.085938 265.230469 219.71875 266.351562 221.960938 C 268.71875 226.863281 273.109375 229.785156 286.886719 235.753906 C 312.265625 246.664062 323.121094 253.863281 329.878906 264.109375 C 337.410156 275.53125 339.097656 293.753906 333.976562 307.308594 C 328.355469 322.054688 314.398438 332.066406 294.765625 335.390625 C 288.6875 336.453125 274.285156 336.289062 267.75 335.113281 C 253.519531 332.578125 240.019531 325.542969 231.695312 316.324219 C 228.429688 312.722656 222.074219 303.320312 222.460938 302.644531 C 222.640625 302.421875 224.09375 301.523438 225.730469 300.566406 C 227.308594 299.667969 233.273438 296.230469 238.894531 292.964844 L 249.074219 287.066406 L 251.21875 290.210938 C 254.195312 294.765625 260.730469 301.007812 264.664062 303.101562 C 275.976562 309.054688 291.496094 308.210938 299.152344 301.355469 C 302.421875 298.363281 303.765625 295.277344 303.765625 290.722656 C 303.765625 286.609375 303.265625 284.808594 301.121094 281.722656 C 298.363281 277.777344 292.742188 274.453125 276.765625 267.542969 C 258.472656 259.664062 250.597656 254.765625 243.394531 246.996094 C 239.230469 242.496094 235.296875 235.296875 233.664062 229.273438 C 232.304688 224.273438 231.972656 211.730469 233.039062 206.664062 C 236.820312 188.996094 250.152344 176.671875 269.386719 173.015625 C 275.628906 171.839844 290.152344 172.285156 296.289062 173.804688 Z M 296.289062 173.804688 " fill-opacity="1" fill-rule="nonzero"/></svg>