<svg xmlns="http://www.w3.org/2000/svg" xmlns:xlink="http://www.w3.org/1999/xlink" width="500" zoomAndPan="magnify" viewBox="0 0 375 374.999991" height="500" preserveAspectRatio="xMidYMid meet" version="1.0"><path fill="#090909" d="M 171.792969 4.988281 C 181.140625 -0.304688 193.054688 -0.328125 202.167969 4.988281 L 341.703125 83.644531 C 350.429688 88.550781 356.269531 98.28125 356.1875 108.339844 L 356.1875 266.050781 C 356.246094 276.53125 349.832031 286.472656 340.625 291.285156 L 201.839844 369.578125 C 200.660156 370.230469 199.441406 370.804688 198.183594 371.292969 C 196.925781 371.785156 195.640625 372.1875 194.328125 372.507812 C 193.015625 372.828125 191.691406 373.058594 190.347656 373.199219 C 189.003906 373.34375 187.660156 373.394531 186.308594 373.355469 C 184.960938 373.320312 183.621094 373.191406 182.289062 372.976562 C 180.957031 372.761719 179.644531 372.457031 178.351562 372.066406 C 177.058594 371.675781 175.800781 371.199219 174.570312 370.640625 C 173.339844 370.082031 172.15625 369.445312 171.011719 368.726562 L 129.363281 344.660156 C 126.527344 342.96875 123.335938 341.625 121.328125 338.878906 C 123.101562 336.496094 126.257812 336.191406 128.828125 335.140625 C 134.621094 333.292969 139.925781 330.46875 145.253906 327.476562 C 146.597656 326.542969 148.242188 326.890625 149.527344 327.734375 L 185.042969 348.269531 C 187.578125 349.730469 190.148438 347.804688 192.320312 346.578125 L 328.59375 269.671875 C 330.277344 268.855469 331.210938 267.078125 331.070312 265.234375 L 331.070312 109.042969 C 331.257812 106.9375 330.054688 105.023438 328.148438 104.171875 L 189.714844 26.214844 C 189.316406 25.9375 188.886719 25.730469 188.421875 25.582031 C 187.960938 25.4375 187.484375 25.367188 187 25.363281 C 186.515625 25.363281 186.042969 25.433594 185.578125 25.578125 C 185.113281 25.71875 184.683594 25.929688 184.28125 26.203125 L 46.046875 104.324219 C 44.179688 105.175781 42.894531 107.066406 43.125 109.171875 L 43.125 265.363281 C 42.964844 267.207031 43.945312 268.949219 45.636719 269.742188 L 82.578125 290.597656 C 89.515625 294.335938 98.03125 296.4375 105.671875 293.691406 C 106.503906 293.378906 107.308594 293.003906 108.082031 292.570312 C 108.855469 292.132812 109.59375 291.640625 110.292969 291.09375 C 110.992188 290.546875 111.644531 289.953125 112.253906 289.304688 C 112.863281 288.65625 113.417969 287.96875 113.921875 287.238281 C 114.425781 286.507812 114.871094 285.742188 115.257812 284.941406 C 115.648438 284.144531 115.972656 283.320312 116.234375 282.472656 C 116.496094 281.621094 116.695312 280.757812 116.824219 279.882812 C 116.957031 279.003906 117.019531 278.121094 117.015625 277.230469 L 117.050781 121.972656 C 116.886719 119.671875 119.0625 117.769531 121.292969 118.003906 L 139.050781 118.003906 C 141.386719 117.945312 143.21875 120.421875 142.90625 122.734375 L 142.871094 278.972656 C 142.882812 292.851562 137.179688 307.945312 124.339844 314.753906 C 108.523438 322.933594 88.96875 321.214844 73.335938 313.351562 L 33.617188 291.390625 C 24.269531 286.71875 17.996094 276.625 18.054688 266.15625 L 18.054688 108.445312 C 18.066406 107.171875 18.160156 105.902344 18.339844 104.636719 C 18.519531 103.375 18.78125 102.128906 19.125 100.898438 C 19.46875 99.671875 19.894531 98.472656 20.398438 97.300781 C 20.902344 96.128906 21.480469 94.996094 22.136719 93.898438 C 22.792969 92.804688 23.519531 91.757812 24.3125 90.761719 C 25.109375 89.761719 25.964844 88.824219 26.886719 87.9375 C 27.804688 87.054688 28.78125 86.234375 29.808594 85.480469 C 30.839844 84.726562 31.914062 84.046875 33.03125 83.433594 Z M 212.027344 114.3125 C 232.203125 113.140625 253.804688 113.539062 271.957031 123.480469 C 286.011719 131.097656 293.804688 147.078125 294.0625 162.710938 C 293.664062 164.8125 291.46875 165.980469 289.457031 165.828125 C 283.617188 165.816406 277.753906 165.910156 271.886719 165.792969 C 269.398438 165.886719 267.964844 163.597656 267.648438 161.402344 C 265.964844 153.925781 261.886719 146.53125 254.855469 142.921875 C 244.0625 137.511719 231.539062 137.78125 219.761719 137.898438 C 211.164062 138.363281 201.921875 139.101562 194.644531 144.148438 C 189.039062 147.980469 187.355469 155.828125 189.351562 161.925781 C 191.222656 166.402344 196.398438 167.839844 200.613281 169.171875 C 224.9375 175.527344 250.695312 175.011719 274.5625 183.269531 C 284.433594 186.683594 294.097656 193.316406 297.484375 203.65625 C 301.898438 217.511719 299.972656 234.078125 290.125 245.199219 C 282.132812 254.359375 270.5 259.21875 258.875 262.042969 C 243.417969 265.492188 227.390625 265.574219 211.703125 264.03125 C 196.945312 262.347656 181.597656 258.46875 170.207031 248.421875 C 160.464844 239.964844 155.71875 226.789062 156.1875 214.078125 C 156.304688 211.925781 158.441406 210.433594 160.511719 210.609375 L 178.03125 210.609375 C 180.394531 210.445312 182.121094 212.476562 182.238281 214.695312 C 183.324219 221.707031 186 229.300781 192.214844 233.386719 C 204.203125 241.121094 219.238281 240.585938 232.953125 240.804688 C 244.316406 240.304688 257.074219 240.152344 266.363281 232.628906 C 271.269531 228.339844 272.707031 221.179688 271.386719 215.011719 C 269.949219 209.800781 264.375 207.382812 259.703125 205.664062 C 235.695312 198.074219 209.644531 200.828125 185.871094 192.230469 C 176.222656 188.820312 166.886719 182.371094 163.183594 172.453125 C 158.011719 158.433594 160.382812 141.0625 171.28125 130.316406 C 181.792969 119.625 197.214844 115.503906 211.816406 114.03125 Z M 212.027344 114.3125 " fill-opacity="1" fill-rule="nonzero"/></svg>