<svg xmlns="http://www.w3.org/2000/svg" xmlns:xlink="http://www.w3.org/1999/xlink" width="500" zoomAndPan="magnify" viewBox="0 0 375 374.999991" height="500" preserveAspectRatio="xMidYMid meet" version="1.0"><path fill="#000000" d="M 154.449219 198.867188 C 154.449219 198.867188 144.566406 204.882812 161.320312 206.601562 C 181.507812 209.175781 192.246094 208.75 214.578125 204.453125 C 214.578125 204.453125 220.59375 208.320312 228.753906 211.324219 C 178.5 232.800781 114.929688 210.035156 154.449219 198.867188 Z M 148.003906 170.949219 C 148.003906 170.949219 137.269531 179.109375 154.019531 180.832031 C 175.925781 182.980469 193.105469 183.40625 222.742188 177.394531 C 222.742188 177.394531 226.605469 181.6875 233.050781 183.835938 C 172.488281 201.875 104.621094 185.554688 148.003906 170.953125 Z M 266.554688 219.910156 C 266.554688 219.910156 273.855469 225.925781 258.394531 230.648438 C 229.613281 239.238281 137.703125 241.816406 111.925781 230.648438 C 102.90625 226.785156 120.085938 221.199219 125.671875 220.339844 C 131.253906 219.050781 134.261719 219.050781 134.261719 219.050781 C 124.382812 212.179688 68.542969 233.226562 105.914062 239.238281 C 208.566406 255.992188 293.179688 231.9375 266.554688 219.910156 Z M 159.175781 141.738281 C 159.175781 141.738281 112.359375 152.90625 142.425781 156.773438 C 155.3125 158.492188 180.652344 158.0625 204.273438 156.34375 C 223.601562 154.625 242.933594 151.1875 242.933594 151.1875 C 242.933594 151.1875 236.058594 154.195312 231.335938 157.199219 C 183.660156 169.65625 92.175781 164.074219 118.371094 151.1875 C 140.707031 140.449219 159.175781 141.738281 159.175781 141.738281 Z M 242.929688 188.554688 C 291.035156 163.644531 268.703125 139.59375 253.238281 142.597656 C 249.371094 143.457031 247.65625 144.316406 247.65625 144.316406 C 247.65625 144.316406 248.945312 141.738281 251.949219 140.878906 C 282.445312 130.140625 306.5 173.09375 242.070312 189.84375 C 242.070312 189.84375 242.5 189.414062 242.929688 188.554688 Z M 163.898438 256.417969 C 210.285156 259.425781 281.148438 254.703125 282.878906 232.796875 C 282.878906 232.796875 279.441406 241.386719 244.652344 247.828125 C 205.136719 255.132812 156.171875 254.273438 127.402344 249.546875 C 127.402344 249.546875 133.414062 254.703125 163.910156 256.417969 Z M 163.898438 256.417969 " fill-opacity="1" fill-rule="nonzero"/><path fill="#090909" d="M 213.71875 0 C 213.71875 0 240.347656 27.058594 188.378906 67.863281 C 146.714844 100.9375 178.929688 119.835938 188.378906 141.308594 C 163.894531 119.40625 146.285156 100.078125 158.3125 82.039062 C 175.925781 55.40625 224.464844 42.53125 213.722656 0 Z M 199.984375 123.273438 C 212.441406 137.449219 196.546875 150.332031 196.546875 150.332031 C 196.546875 150.332031 228.332031 134.011719 213.726562 113.824219 C 200.414062 94.496094 190.105469 85.046875 245.941406 52.839844 C 245.941406 52.839844 157.890625 74.746094 199.984375 123.28125 Z M 168.195312 353.917969 L 168.195312 311.824219 C 168.195312 301.085938 162.179688 293.785156 147.148438 293.785156 C 138.558594 293.785156 131.253906 295.929688 124.8125 298.5 L 126.960938 306.230469 C 131.675781 304.515625 137.699219 302.796875 144.140625 302.796875 C 152.300781 302.796875 156.167969 306.230469 156.167969 313.105469 L 156.167969 318.6875 L 151.871094 318.6875 C 131.257812 318.6875 121.808594 326.417969 121.808594 338.875 C 121.808594 349.183594 128.25 355.195312 139.847656 355.195312 C 147.148438 355.195312 152.734375 351.761719 157.886719 347.464844 L 158.746094 353.90625 L 168.195312 353.90625 Z M 156.167969 340.171875 C 151.871094 344.039062 147.148438 346.1875 142.851562 346.1875 C 137.269531 346.1875 133.832031 342.75 133.832031 336.734375 C 133.832031 330.722656 137.269531 326.429688 151.011719 326.429688 L 156.167969 326.429688 Z M 208.570312 353.917969 L 193.535156 353.917969 L 175.496094 295.074219 L 188.382812 295.074219 L 199.550781 331.152344 L 202.128906 341.890625 C 207.710938 326.425781 212.007812 310.535156 213.726562 295.074219 L 226.609375 295.074219 C 223.171875 314.402344 217.160156 335.445312 208.570312 353.917969 Z M 278.148438 353.917969 L 278.148438 311.824219 C 278.148438 301.085938 272.136719 293.785156 257.101562 293.785156 C 248.511719 293.785156 241.210938 295.929688 234.769531 298.5 L 236.484375 306.230469 C 241.640625 304.515625 247.652344 302.796875 254.097656 302.796875 C 262.257812 302.796875 266.121094 306.230469 266.121094 313.105469 L 266.121094 318.6875 L 261.828125 318.6875 C 241.210938 318.6875 231.761719 326.417969 231.761719 338.875 C 231.761719 349.183594 237.773438 355.195312 249.371094 355.195312 C 257.105469 355.195312 262.6875 351.761719 267.839844 347.464844 L 268.699219 353.90625 L 278.148438 353.90625 Z M 266.121094 340.171875 C 261.828125 344.039062 257.105469 346.1875 252.808594 346.1875 C 247.222656 346.1875 243.789062 342.75 243.789062 336.734375 C 243.789062 330.722656 247.226562 326.429688 260.96875 326.429688 L 266.125 326.429688 L 266.125 340.164062 Z M 108.492188 363.796875 C 105.058594 368.953125 99.902344 372.816406 93.460938 374.964844 L 87.875 368.097656 C 92.167969 365.519531 96.464844 361.652344 98.183594 358.214844 C 99.898438 355.210938 100.332031 350.914062 100.332031 341.035156 L 100.332031 274.03125 L 113.214844 274.03125 L 113.214844 340.175781 C 113.214844 353.492188 111.929688 358.644531 108.5 363.800781 Z M 108.492188 363.796875 " fill-opacity="1" fill-rule="nonzero"/></svg>