<svg xmlns="http://www.w3.org/2000/svg" xmlns:xlink="http://www.w3.org/1999/xlink" width="500" zoomAndPan="magnify" viewBox="0 0 375 374.999991" height="500" preserveAspectRatio="xMidYMid meet" version="1.0"><defs><clipPath id="dc61aa07b9"><path d="M 32 115.226562 L 66 115.226562 L 66 241 L 32 241 Z M 32 115.226562 " clip-rule="nonzero"/></clipPath><clipPath id="0531b31ff9"><path d="M 0 115.226562 L 34 115.226562 L 34 243 L 0 243 Z M 0 115.226562 " clip-rule="nonzero"/></clipPath><clipPath id="aa00fc1490"><path d="M 30 223 L 39 223 L 39 259.976562 L 30 259.976562 Z M 30 223 " clip-rule="nonzero"/></clipPath></defs><g clip-path="url(#dc61aa07b9)"><path fill="#737373" d="M 32.703125 115.773438 L 36.554688 123.015625 C 37.394531 124.328125 38.367188 125.53125 39.464844 126.636719 C 42.691406 129.863281 45.761719 133.242188 48.511719 136.867188 C 55.042969 145.441406 59.449219 154.964844 62.597656 165.277344 C 64.484375 171.578125 65.511719 178.03125 65.589844 184.558594 C 65.90625 204.078125 59.214844 220.839844 45.679688 234.769531 C 43.480469 236.984375 41.121094 239.003906 38.597656 240.832031 C 37.253906 240.832031 36.628906 239.769531 36.078125 238.863281 C 35.015625 237.097656 34.421875 235.164062 34.109375 233.199219 C 33.636719 230.835938 33.320312 228.476562 33.480469 226.035156 L 33.480469 224.933594 C 33.402344 224.695312 32.222656 116.328125 32.691406 115.773438 Z M 32.703125 115.773438 " fill-opacity="1" fill-rule="nonzero"/></g><g clip-path="url(#0531b31ff9)"><path fill="#646161" d="M 32.703125 115.539062 C 32.542969 115.21875 32.382812 115.460938 32.226562 115.617188 C 32.304688 117.1875 31.753906 118.605469 30.886719 119.945312 C 29.941406 121.289062 28.679688 122.304688 27.421875 123.410156 C 20.417969 129.46875 14.910156 136.789062 10.5 144.972656 C 4.675781 155.992188 1.609375 167.796875 0.746094 180.230469 C 0.359375 184.71875 2.160156 200.539062 3.582031 205.097656 C 7.433594 217.222656 14.359375 227.371094 23.371094 236.183594 C 25.578125 238.304688 27.9375 240.277344 30.375 242.164062 C 31.082031 242.164062 31.164062 241.535156 31.320312 241.0625 C 31.628906 240.054688 31.867188 239.03125 32.027344 237.988281 C 32.734375 234.058594 33.128906 230.121094 33.597656 226.1875 L 32.734375 115.539062 Z M 32.703125 115.539062 " fill-opacity="1" fill-rule="nonzero"/></g><g clip-path="url(#aa00fc1490)"><path fill="#c2bfbf" d="M 36.566406 245.628906 C 36.722656 243.820312 37.625 242.328125 38.53125 240.832031 C 37.589844 240.441406 36.878906 239.652344 36.328125 238.78125 C 35.855469 237.992188 35.460938 237.015625 35.148438 236.183594 C 34.042969 232.878906 33.804688 229.417969 33.492188 226.03125 L 33.492188 223.980469 C 33.105469 224.300781 33.019531 226.972656 33.019531 227.367188 C 32.78125 230.984375 32.3125 234.53125 31.605469 237.988281 C 31.371094 239.402344 31.21875 240.824219 30.347656 242.082031 C 30.347656 242.242188 30.347656 242.402344 30.425781 242.632812 C 31.839844 246.804688 32.234375 251.054688 32.476562 255.382812 L 32.476562 256.957031 C 32.476562 258.84375 32.398438 258.453125 33.96875 259.078125 C 34.597656 259.3125 35.3125 259.394531 35.9375 259.867188 C 36.414062 259.867188 36.492188 259.476562 36.492188 259.160156 L 36.253906 256.5625 L 36.253906 249.316406 C 36.175781 248.058594 36.414062 246.796875 36.570312 245.617188 Z M 36.566406 245.628906 " fill-opacity="1" fill-rule="nonzero"/></g><path fill="#47474a" d="M 96.324219 212.714844 L 96.324219 220.207031 C 96.316406 220.507812 96.332031 220.800781 96.375 221.097656 C 96.472656 221.984375 97.015625 222.523438 97.816406 222.773438 C 98.566406 222.972656 99.324219 223.121094 100.089844 223.21875 C 100.535156 223.269531 100.683594 223.464844 100.734375 223.941406 C 100.785156 225.617188 100.636719 225.816406 99.007812 225.714844 C 95.210938 225.515625 91.410156 225.46875 87.617188 225.714844 L 87.253906 225.714844 C 86.070312 225.765625 85.972656 225.664062 85.972656 224.480469 C 85.972656 224.28125 86.023438 224.039062 86.023438 223.839844 C 86.023438 223.476562 86.269531 223.296875 86.617188 223.296875 C 87.410156 223.199219 88.144531 223 88.890625 222.855469 C 89.925781 222.609375 90.511719 221.964844 90.613281 220.929688 C 90.757812 219.796875 90.757812 218.613281 90.757812 217.476562 L 90.808594 204.261719 C 90.824219 203.871094 90.738281 203.507812 90.539062 203.167969 C 90.34375 202.828125 90.074219 202.566406 89.726562 202.386719 C 88.832031 201.890625 87.894531 201.496094 86.910156 201.203125 C 86.617188 201.105469 86.320312 201.058594 86.074219 200.90625 C 85.351562 200.558594 85.335938 199.921875 86.023438 199.523438 C 86.269531 199.378906 86.566406 199.277344 86.863281 199.230469 C 89.863281 198.785156 92.789062 198.046875 95.636719 197.007812 C 96.230469 196.8125 96.378906 196.863281 96.429688 197.453125 C 96.480469 197.8125 96.429688 198.246094 96.382812 198.585938 C 96.285156 199.230469 96.285156 199.867188 96.285156 200.460938 C 96.285156 200.707031 96.332031 200.957031 96.578125 201.105469 C 96.824219 201.253906 97.074219 201.105469 97.300781 200.960938 C 98.335938 200.167969 99.371094 199.429688 100.503906 198.796875 C 102.128906 197.90625 103.863281 197.117188 105.738281 196.871094 C 108.011719 196.578125 109.976562 197.167969 111.707031 198.648438 C 112.425781 199.289062 113.046875 200.011719 113.578125 200.816406 C 114.074219 201.539062 114.121094 201.554688 114.761719 201.0625 C 116.640625 199.679688 118.609375 198.449219 120.730469 197.5625 C 122.949219 196.625 125.21875 196.480469 127.488281 197.265625 C 129.804688 198.101562 131.382812 199.730469 132.320312 201.949219 C 133.117188 203.726562 133.453125 205.558594 133.453125 207.46875 L 133.453125 220.683594 C 133.453125 221.574219 133.816406 222.128906 134.6875 222.5625 C 135.628906 222.921875 136.664062 223.101562 137.648438 223.300781 C 138.289062 223.445312 138.289062 223.445312 138.289062 224.09375 C 138.191406 225.71875 138.046875 225.820312 136.464844 225.71875 C 132.503906 225.496094 128.542969 225.496094 124.582031 225.71875 C 123.789062 225.769531 123.789062 225.769531 123.746094 224.980469 L 123.746094 224.734375 C 123.695312 223.398438 123.695312 223.398438 124.976562 223.109375 L 126.257812 222.761719 C 126.707031 222.660156 127.074219 222.425781 127.359375 222.066406 C 127.644531 221.707031 127.789062 221.300781 127.789062 220.839844 L 127.933594 217.140625 L 127.835938 207.476562 C 127.796875 206.609375 127.617188 205.769531 127.296875 204.960938 C 126.0625 201.953125 123.351562 200.871094 120.734375 201.167969 C 118.761719 201.363281 117.035156 202.152344 115.410156 203.289062 C 115.0625 203.535156 114.816406 203.828125 114.867188 204.324219 C 115.3125 207.480469 115.011719 210.640625 115.066406 213.792969 L 115.066406 220.648438 C 115.066406 221.882812 115.558594 222.476562 116.742188 222.769531 L 119.015625 223.265625 C 119.363281 223.316406 119.558594 223.464844 119.558594 223.855469 L 119.558594 224.21875 C 119.507812 225.601562 119.414062 225.660156 118.027344 225.648438 C 114.085938 225.449219 110.136719 225.503906 106.242188 225.648438 C 104.90625 225.695312 104.800781 225.550781 104.859375 224.203125 C 104.910156 223.410156 105.003906 223.367188 105.75 223.21875 L 107.371094 222.921875 C 108.816406 222.625 109.347656 222.085938 109.445312 220.554688 L 109.589844 217.25 L 109.492188 207.335938 C 109.394531 206.101562 109.128906 204.917969 108.453125 203.785156 C 107.46875 201.960938 105.929688 201.027344 103.816406 200.925781 C 101.695312 200.78125 99.824219 201.566406 98.042969 202.546875 C 96.808594 203.269531 96.269531 204.125 96.367188 205.558594 L 96.367188 212.757812 Z M 189.230469 213.011719 L 189.230469 219.96875 C 189.238281 220.460938 189.273438 220.953125 189.328125 221.445312 C 189.351562 221.78125 189.472656 222.078125 189.691406 222.335938 C 189.910156 222.589844 190.183594 222.753906 190.511719 222.828125 C 191.367188 223.078125 192.238281 223.226562 193.125 223.273438 C 193.621094 223.324219 193.71875 223.519531 193.769531 223.914062 L 193.769531 224.261719 C 193.71875 225.984375 193.523438 226.183594 191.84375 226.085938 C 188.089844 225.839844 184.347656 225.886719 180.601562 226.085938 L 179.15625 226.136719 C 178.859375 226.136719 178.796875 225.992188 178.714844 225.792969 C 178.566406 225.101562 178.566406 224.410156 178.714844 223.71875 C 178.761719 223.425781 178.957031 223.359375 179.253906 223.277344 C 179.976562 223.179688 180.589844 223.03125 181.273438 222.914062 C 182.507812 222.621094 182.953125 222.121094 183 220.84375 L 183.144531 216.703125 L 183.144531 204.570312 C 183.144531 203.679688 182.796875 203.140625 182.011719 202.742188 C 181.125 202.25 180.183594 201.90625 179.195312 201.558594 C 178.902344 201.460938 178.605469 201.363281 178.359375 201.214844 C 177.71875 200.769531 177.636719 200.128906 178.261719 199.636719 C 178.546875 199.402344 178.878906 199.269531 179.246094 199.238281 C 182.40625 198.746094 185.460938 198.054688 188.421875 196.871094 C 188.765625 196.726562 188.914062 196.820312 189.0625 197.117188 C 189.210938 197.414062 189.261719 197.761719 189.207031 198.101562 L 189.0625 200.417969 C 189.0625 200.714844 188.917969 201.140625 189.160156 201.257812 C 189.457031 201.457031 189.652344 201.011719 189.898438 200.894531 C 191.363281 199.667969 192.957031 198.652344 194.683594 197.839844 C 196.214844 197.117188 197.789062 196.65625 199.566406 196.757812 C 202.871094 196.957031 205.238281 198.632812 206.765625 201.542969 C 207.558594 203.070312 207.898438 204.746094 208.046875 206.476562 L 208.191406 210.082031 L 208.242188 220.980469 C 208.292969 221.816406 208.589844 222.363281 209.425781 222.660156 C 210.292969 222.949219 211.183594 223.164062 212.089844 223.300781 C 212.882812 223.398438 212.925781 223.546875 212.976562 224.285156 L 212.976562 224.53125 C 212.878906 226.210938 212.777344 226.257812 211.101562 226.15625 C 207.417969 225.957031 203.734375 225.957031 200.054688 226.15625 C 199.558594 226.207031 199.070312 226.15625 198.609375 226.207031 C 198.316406 226.207031 198.117188 226.15625 198.070312 225.859375 C 197.972656 225.21875 197.871094 224.578125 198.019531 223.886719 C 198.070312 223.589844 198.21875 223.441406 198.558594 223.390625 L 200.832031 223.03125 C 201.628906 222.832031 202.066406 222.308594 202.167969 221.585938 L 202.265625 220.203125 L 202.214844 209.898438 C 202.214844 208.714844 202.164062 207.53125 201.917969 206.347656 C 201.328125 203.824219 199.40625 202.019531 196.796875 201.765625 C 194.523438 201.519531 192.464844 202.113281 190.582031 203.34375 C 189.644531 203.933594 189.246094 204.769531 189.246094 205.808594 L 189.246094 213.253906 C 189.246094 213.109375 189.246094 213.109375 189.296875 213.109375 Z M 189.230469 213.011719 " fill-opacity="1" fill-rule="nonzero"/><path fill="#c2bfbf" d="M 333.65625 199.054688 C 333.113281 195.453125 331.78125 192.25 329.464844 189.4375 C 327.410156 186.914062 324.878906 185.042969 321.867188 183.816406 C 318.761719 182.535156 315.453125 182.140625 312.101562 182.042969 C 310.71875 181.992188 291.882812 182.285156 290.5 182.042969 C 290.15625 181.992188 289.910156 182.089844 289.707031 182.386719 C 289.460938 182.75 289.214844 183.128906 289.066406 183.519531 C 288.472656 184.855469 288.472656 184.753906 289.902344 184.949219 C 291.085938 185.148438 292.21875 185.246094 293.355469 185.59375 C 294.390625 185.9375 295.132812 186.53125 295.375 187.664062 C 295.472656 188.203125 295.574219 205.5625 295.574219 213.652344 L 295.375 219.425781 C 295.328125 219.871094 295.28125 220.3125 295.132812 220.707031 C 294.933594 221.296875 294.589844 221.789062 294 222.042969 C 293.339844 222.351562 292.652344 222.53125 291.925781 222.582031 C 290.59375 222.726562 290.398438 222.78125 289.953125 224.261719 L 289.808594 224.800781 C 289.710938 225.445312 289.757812 225.542969 290.402344 225.542969 L 305.144531 225.6875 L 310.917969 225.589844 L 314.914062 225.09375 C 319.449219 224.257812 323.496094 222.382812 326.945312 219.375 C 328.933594 217.617188 330.511719 215.546875 331.679688 213.160156 C 333.0625 210.402344 333.652344 207.386719 333.800781 204.335938 C 334.046875 202.609375 333.945312 200.835938 333.65625 199.058594 Z M 326.503906 206.054688 C 326.304688 209.214844 325.667969 212.269531 324.039062 215.03125 C 321.96875 218.632812 319.007812 221.148438 314.917969 222.03125 C 313.140625 222.390625 311.367188 222.570312 309.503906 222.328125 C 308.167969 222.183594 306.890625 222.03125 305.65625 221.585938 C 303.4375 220.792969 302.648438 219.421875 302.601562 217.257812 L 302.550781 187.523438 C 302.550781 185.746094 303.34375 185.359375 304.621094 185.304688 C 306.546875 185.160156 308.519531 185.207031 310.441406 185.402344 C 312.5 185.601562 314.488281 186.082031 316.410156 186.84375 C 317.839844 187.441406 319.140625 188.246094 320.308594 189.261719 C 322.972656 191.535156 324.746094 194.386719 325.722656 197.742188 C 326.515625 200.457031 326.660156 203.214844 326.515625 205.976562 Z M 374.640625 210.890625 C 374.640625 210.59375 374.640625 210.351562 374.589844 210.054688 C 374.148438 207.339844 372.714844 205.269531 370.5 203.691406 C 369.070312 202.65625 367.441406 201.96875 365.765625 201.472656 C 365.46875 201.375 365.222656 201.273438 364.925781 201.226562 C 364.976562 200.980469 365.125 200.933594 365.273438 200.882812 C 366.257812 200.386719 367.199219 199.847656 368.035156 199.105469 C 369.566406 197.824219 370.558594 196.246094 371.089844 194.320312 C 371.386719 193.285156 371.386719 192.25 371.289062 191.164062 C 371.207031 189.875 370.851562 188.671875 370.21875 187.546875 C 369.589844 186.421875 368.746094 185.492188 367.6875 184.75 C 365.414062 183.074219 362.753906 182.382812 359.996094 182.332031 C 354.667969 182.234375 349.296875 182.332031 343.972656 182.332031 C 342.441406 182.332031 340.917969 182.429688 339.335938 182.1875 C 339.039062 182.136719 338.613281 182.042969 338.398438 182.386719 C 338.035156 183.03125 337.605469 183.667969 337.460938 184.410156 C 337.410156 184.753906 337.511719 184.949219 337.902344 185 L 341.304688 185.496094 C 342.640625 185.691406 343.578125 186.433594 343.671875 187.617188 C 343.769531 188.433594 343.816406 189.257812 343.816406 190.082031 L 343.71875 199.300781 L 343.667969 217.546875 C 343.667969 218.628906 343.523438 219.667969 343.324219 220.75 C 343.273438 221.101562 343.132812 221.410156 342.902344 221.679688 C 342.667969 221.945312 342.382812 222.128906 342.042969 222.230469 C 341.058594 222.523438 340.117188 222.820312 339.082031 222.820312 C 338.796875 222.792969 338.535156 222.859375 338.296875 223.015625 C 338.054688 223.171875 337.890625 223.386719 337.800781 223.660156 C 337.605469 224.101562 337.441406 224.597656 337.359375 225.039062 C 337.261719 225.632812 337.410156 225.835938 338 225.761719 C 338.445312 225.710938 354.71875 226.109375 357.773438 225.8125 C 359.601562 225.613281 361.382812 225.367188 363.199219 224.828125 C 366.300781 223.84375 369.167969 222.410156 371.433594 219.992188 C 373.308594 218.019531 374.394531 215.652344 374.488281 212.890625 C 374.632812 212.25 374.632812 211.609375 374.632812 210.917969 Z M 350.722656 190.683594 L 350.867188 186.738281 C 350.867188 186 351.164062 185.65625 351.90625 185.503906 C 353.089844 185.261719 354.273438 185.359375 355.457031 185.40625 C 356.640625 185.503906 357.773438 185.652344 358.957031 186 C 361.121094 186.640625 362.800781 187.875 363.789062 189.945312 C 364.246094 190.894531 364.476562 191.898438 364.480469 192.953125 C 364.53125 194.335938 364.429688 195.667969 363.886719 196.996094 C 363.050781 198.820312 361.722656 200.003906 359.796875 200.351562 C 357.871094 200.699219 352.398438 200.550781 351.5625 200.550781 C 350.820312 200.550781 350.769531 200.453125 350.769531 199.710938 L 350.769531 195.066406 C 350.652344 193.621094 350.636719 192.175781 350.71875 190.726562 Z M 366.746094 217.214844 C 365.910156 219.433594 364.378906 220.964844 362.210938 221.796875 C 361.027344 222.242188 359.84375 222.519531 358.601562 222.4375 C 357.070312 222.386719 355.546875 222.4375 354.019531 222.144531 C 351.949219 221.699219 351.007812 219.726562 350.863281 218.296875 C 350.617188 215.78125 350.765625 213.214844 350.71875 211.34375 L 350.71875 204.832031 C 350.71875 204.039062 350.816406 203.796875 351.65625 203.796875 L 356.292969 203.847656 L 359.449219 204.207031 C 361.667969 204.703125 363.691406 205.542969 365.269531 207.265625 C 366.550781 208.648438 367.246094 210.320312 367.390625 212.148438 C 367.535156 213.871094 367.441406 215.550781 366.800781 217.175781 Z M 366.746094 217.214844 " fill-opacity="1" fill-rule="nonzero"/><path fill="#47474a" d="M 241.457031 202.355469 L 242.738281 202.554688 C 244.121094 202.605469 245.75 202.113281 246.238281 200.1875 C 246.515625 199.25 246.515625 198.3125 246.238281 197.375 C 245.945312 197.375 245.796875 197.621094 245.648438 197.71875 C 244.90625 198.3125 244.070312 198.660156 243.183594 198.757812 C 241.40625 198.953125 239.632812 198.851562 237.90625 198.214844 L 235.488281 197.378906 C 233.789062 196.820312 232.042969 196.59375 230.257812 196.691406 C 227.742188 196.890625 225.375 197.726562 223.15625 198.910156 C 220.789062 200.191406 219.113281 202.117188 218.320312 204.730469 C 217.875 206.261719 217.824219 207.835938 218.023438 209.414062 C 218.519531 213.015625 220.390625 215.53125 223.742188 216.863281 C 223.941406 216.914062 224.089844 217.007812 224.285156 217.0625 C 224.730469 217.308594 224.78125 217.554688 224.382812 217.898438 L 223.148438 218.738281 L 220.191406 220.5625 C 219.449219 221.007812 219.351562 221.355469 219.597656 222.140625 C 219.898438 223.078125 220.421875 223.867188 221.175781 224.507812 C 221.855469 225.089844 222.613281 225.550781 223.445312 225.886719 C 223.984375 226.132812 223.984375 226.25 223.496094 226.683594 L 220.679688 228.703125 C 219.742188 229.425781 218.804688 230.148438 218.015625 231.070312 C 217.460938 231.664062 217.078125 232.355469 216.871094 233.140625 C 216.660156 233.925781 216.648438 234.714844 216.832031 235.507812 C 217.210938 237.265625 218.0625 238.742188 219.394531 239.949219 C 220.699219 241.152344 222.210938 241.976562 223.929688 242.410156 C 226.691406 243.207031 229.554688 243.25 232.363281 242.707031 C 236.40625 241.96875 239.941406 240.183594 242.722656 237.136719 C 244.644531 235.117188 245.777344 232.75 245.878906 229.917969 C 245.90625 229.511719 245.894531 229.109375 245.851562 228.703125 C 245.808594 228.300781 245.726562 227.902344 245.613281 227.511719 C 245.5 227.121094 245.351562 226.746094 245.167969 226.378906 C 244.988281 226.015625 244.777344 225.671875 244.535156 225.34375 C 244.292969 225.015625 244.023438 224.714844 243.730469 224.433594 C 243.433594 224.152344 243.117188 223.902344 242.777344 223.679688 C 242.4375 223.453125 242.082031 223.261719 241.707031 223.101562 C 241.332031 222.941406 240.949219 222.8125 240.550781 222.71875 L 237.890625 222.226562 L 229.753906 221.503906 C 228.863281 221.453125 227.976562 221.304688 227.238281 220.863281 C 226.296875 220.269531 226.054688 219.136719 226.644531 218.398438 C 227.089844 217.855469 227.628906 217.507812 228.324219 217.457031 L 229.898438 217.316406 C 231.460938 217.15625 232.953125 216.75 234.378906 216.101562 C 235.804688 215.453125 237.089844 214.589844 238.230469 213.519531 C 239.476562 212.363281 240.316406 210.96875 240.746094 209.324219 C 241.339844 207.203125 241.339844 204.996094 240.84375 202.828125 C 240.699219 202.289062 240.746094 202.238281 241.4375 202.335938 Z M 229.371094 226.921875 C 229.664062 226.972656 229.960938 226.921875 230.257812 226.921875 C 232.328125 227.019531 234.449219 227.164062 236.472656 227.714844 C 237.132812 227.910156 237.773438 228.15625 238.394531 228.453125 C 240.367188 229.535156 241.109375 231.414062 240.859375 233.433594 C 240.5625 235.652344 239.328125 237.230469 237.40625 238.269531 C 236.125 238.992188 234.691406 239.304688 233.210938 239.453125 C 232.671875 239.503906 232.175781 239.453125 231.636719 239.453125 C 229.910156 239.503906 228.234375 239.308594 226.605469 238.617188 C 225.472656 238.171875 224.535156 237.535156 223.695312 236.640625 C 221.972656 234.917969 221.171875 231.757812 223.746094 229.195312 C 225.324219 227.75 227.101562 226.730469 229.371094 226.921875 Z M 234.992188 211.535156 C 233.957031 214.144531 231.6875 214.9375 229.421875 214.589844 C 227.347656 214.292969 225.820312 213.160156 224.835938 211.285156 C 223.554688 208.769531 223.214844 206.160156 223.949219 203.445312 C 224.492188 201.421875 225.726562 199.894531 227.894531 199.546875 C 230.652344 199.050781 233.304688 200.039062 234.699219 202.800781 C 235.421875 204.136719 235.734375 205.761719 235.734375 208.078125 C 235.683594 209.015625 235.488281 210.296875 234.996094 211.53125 Z M 172.859375 208.179688 C 172.417969 205.515625 171.429688 203.097656 169.605469 201.078125 C 166.890625 198.066406 163.441406 196.746094 159.542969 196.734375 C 156.140625 196.683594 152.941406 197.671875 150.074219 199.449219 C 148.667969 200.292969 147.464844 201.363281 146.46875 202.667969 C 145.46875 203.972656 144.75 205.414062 144.304688 206.996094 C 143.46875 209.855469 143.511719 212.769531 144.160156 215.671875 C 145.886719 223.46875 151.90625 226.816406 159.101562 226.324219 C 161.222656 226.179688 163.242188 225.488281 165.164062 224.550781 C 168.023438 223.214844 170.097656 221.097656 171.523438 218.285156 C 172.65625 215.96875 173.148438 213.5 173.101562 210.6875 L 172.855469 208.175781 Z M 165.859375 219.125 C 165.683594 219.679688 165.429688 220.199219 165.105469 220.679688 C 164.777344 221.160156 164.386719 221.585938 163.9375 221.953125 C 163.484375 222.320312 162.992188 222.617188 162.453125 222.839844 C 161.914062 223.066406 161.359375 223.207031 160.777344 223.269531 C 158.613281 223.566406 156.585938 223.023438 154.761719 221.738281 C 153.429688 220.757812 152.394531 219.523438 151.65625 218.039062 C 149.636719 213.898438 149.289062 209.558594 150.320312 205.121094 C 150.660156 203.71875 151.351562 202.519531 152.390625 201.519531 C 154.21875 199.84375 156.335938 199.449219 158.707031 199.941406 C 160.980469 200.4375 162.703125 201.667969 164.121094 203.542969 C 165.539062 205.421875 166.191406 207.585938 166.585938 209.859375 C 166.785156 210.992188 166.785156 212.175781 166.832031 212.914062 C 166.832031 215.28125 166.632812 217.246094 165.890625 219.128906 Z M 280.609375 208.574219 C 280.25 205.714844 279.183594 203.101562 277.15625 200.933594 C 274.496094 198.023438 271.039062 196.789062 267.199219 196.738281 C 263.890625 196.6875 260.835938 197.625 258.023438 199.253906 C 254.867188 201.128906 252.699219 203.789062 251.863281 207.390625 C 251.363281 209.355469 251.214844 211.347656 251.417969 213.363281 C 251.621094 215.378906 252.164062 217.300781 253.046875 219.125 C 254.667969 222.578125 257.433594 224.796875 261.085938 225.785156 C 265.125 226.867188 268.976562 226.375 272.722656 224.550781 C 275.976562 222.972656 278.292969 220.507812 279.625 217.152344 C 280.417969 215.179688 280.707031 213.058594 280.757812 210.59375 C 280.808594 210.148438 280.707031 209.359375 280.613281 208.570312 Z M 273.804688 218.488281 C 273.011719 221.152344 271.339844 222.875 268.527344 223.273438 C 266.457031 223.566406 264.488281 223.074219 262.707031 221.890625 C 261.179688 220.855469 260.097656 219.472656 259.304688 217.847656 C 258.417969 216.125 257.921875 214.296875 257.730469 212.425781 C 257.433594 210.109375 257.433594 207.84375 257.972656 205.523438 C 258.078125 205.0625 258.226562 204.621094 258.417969 204.191406 C 259.800781 200.738281 262.855469 199.160156 266.457031 199.949219 C 268.875 200.492188 270.699219 201.828125 272.082031 203.847656 C 273.414062 205.820312 274.054688 207.988281 274.351562 210.34375 C 274.496094 211.28125 274.550781 212.265625 274.496094 213.101562 C 274.496094 215.027344 274.351562 216.800781 273.777344 218.527344 Z M 273.804688 218.488281 " fill-opacity="1" fill-rule="nonzero"/></svg>