<svg width="227" height="235" viewBox="0 0 227 235" fill="none" xmlns="http://www.w3.org/2000/svg">
<path d="M70.1221 160.144C90.7037 147.993 105.357 127.138 109.556 103.557C113.765 79.9309 106.267 54.784 90.7212 36.6495C84.786 29.7183 74.9994 19.1563 66.0744 27.8999C57.8953 35.9079 63.3465 48.4197 67.093 57.1844C76.7935 79.8966 92.0155 100.051 110.664 116.172C131.786 134.426 157.317 147.083 184.673 152.684C187.708 153.305 188.06 148.489 185.05 147.882C142.529 139.286 104.268 112.163 81.5307 75.2717C76.2234 66.6625 71.5516 57.4613 68.1848 47.9058C66.2953 42.5493 64.4108 35.1881 69.2681 30.7182C74.9808 25.4683 81.2155 32.4626 85.1845 36.6189C100.204 52.3562 108.218 74.3737 106.768 96.0723C105.085 121.234 90.4375 144.637 68.9953 157.72C67.5488 158.612 68.6372 161.02 70.1221 160.144Z" fill="#FD8363"/>
<path d="M69.5371 161.527C93.0213 150.001 110.297 127.347 114.346 101.378C118.184 76.7434 109.97 48.0725 91.0098 31.1989C87.1066 27.7228 82.4831 24.7395 77.2859 23.6701C73.3584 22.8657 67.4271 22.8042 64.6398 26.2783C61.4429 30.2497 62.6262 38.1979 63.1636 42.9057C63.8568 49.0021 65.5267 54.9634 67.8418 60.6312C77.926 85.2861 99.3019 104.857 120.421 120.193C146.349 139.016 176.734 152.828 208.306 158.666C210.55 159.081 211.381 155.241 209.132 154.721C184.248 148.997 160.572 140.264 138.56 127.201C117.68 114.803 97.5437 99.0082 82.8237 79.5421C75.9708 70.4742 70.2632 60.2189 67.6426 49.0807C66.466 44.0845 65.3688 38.1616 66.1679 33.0359C67.7915 22.7136 79.0859 26.6239 84.8345 30.4499C104.152 43.2749 113.175 70.9967 112.15 93.1787C110.849 121.242 93.5157 146.903 68.5888 159.527C67.3279 160.163 68.257 162.155 69.5371 161.527Z" fill="#FD8363"/>
<path d="M198.825 165.798C198.511 158.666 199.144 151.78 200.029 144.715C199.108 145.318 198.187 145.921 197.266 146.524C205.564 149.57 213.952 152.405 222.339 155.24C222.097 153.938 221.848 152.641 221.606 151.338C214.017 156.891 205.893 161.488 197.256 165.212C198.33 165.951 199.397 166.697 200.47 167.436C201.001 163.116 201.708 158.831 202.65 154.576C201.288 154.648 199.933 154.714 198.577 154.793C200.008 157.301 201.283 159.856 202.438 162.514C203.251 164.385 206.567 163.957 206.52 161.776C206.424 157.599 205.461 153.93 203.37 150.291C202.438 148.67 199.498 148.777 199.47 150.998C199.426 154.595 197.063 169.783 205.077 164.899C212.298 160.495 208.254 151.899 203.258 147.834C201.46 146.376 199.242 149.094 200.625 150.784C201.464 151.81 202.31 152.842 203.149 153.868C204.171 152.995 205.192 152.122 206.213 151.249C204.063 149.307 201.975 147.323 199.954 145.245C198.209 143.447 195.621 145.733 197.025 147.749C200.939 153.363 207.278 155.31 213.642 156.855C213.938 155.448 214.234 154.042 214.522 152.642C210.824 152.537 207.127 152.433 203.429 152.328C200.563 152.249 200.376 156.152 203.087 156.682C206.738 157.392 210.29 157.657 213.995 157.511C213.746 156.128 213.497 154.745 213.241 153.369C211.628 154.354 210.105 154.956 208.246 155.293C208.848 156.558 209.45 157.823 210.045 159.094C212.336 157.063 214.664 155.724 217.51 154.716C219.585 153.985 218.833 150.664 216.755 150.587C214.558 150.501 212.366 150.435 210.168 150.361C210.058 151.756 209.949 153.15 209.839 154.558C212.673 154.529 215.467 154.682 218.282 154.988C220.96 155.278 221.263 151.152 218.608 150.832C212.202 150.071 206.173 148.301 200.34 145.554C198.189 144.545 196.352 148.139 198.457 149.311C201.735 151.136 205.077 152.49 208.744 153.334C209.031 151.947 209.324 150.567 209.612 149.18C205.659 148.446 200.119 146.185 196.408 148.435C194.907 149.35 194.646 151.242 196.1 152.368C198.259 154.033 200.551 154.504 203.211 154.011C206.105 153.477 205.293 148.98 202.405 149.521C200.95 149.93 199.697 149.626 198.637 148.617C198.702 149.813 198.773 151.016 198.838 152.213C200.735 150.813 207.203 153.067 209.278 153.442C211.64 153.865 212.526 149.832 210.146 149.288C206.843 148.539 203.806 147.44 200.838 145.791C200.21 147.039 199.582 148.3 198.955 149.548C205.116 152.42 211.541 154.195 218.29 154.969C218.399 153.588 218.508 152.194 218.617 150.812C215.8 150.519 212.998 150.385 210.169 150.348C207.485 150.31 207.113 154.384 209.84 154.545C212.034 154.67 214.221 154.789 216.416 154.902C216.16 153.525 215.917 152.149 215.661 150.772C212.435 151.909 209.755 153.512 207.209 155.774C205.601 157.197 206.861 159.949 209.008 159.575C211.277 159.171 213.122 158.515 215.082 157.318C216.694 156.333 216.764 153.083 214.328 153.176C210.618 153.315 207.059 153.043 203.415 152.34C203.301 153.787 203.188 155.234 203.073 156.694C206.765 156.792 210.47 156.89 214.161 156.988C216.473 157.05 217.579 153.319 215.041 152.775C209.359 151.555 203.55 150.186 199.92 145.263C198.941 146.099 197.969 146.929 196.99 147.766C198.984 149.855 201.014 151.9 203.108 153.891C204.95 155.63 207.865 153.311 206.172 151.272C205.325 150.253 204.466 149.233 203.619 148.213C202.741 149.197 201.863 150.18 200.986 151.163C202.661 152.493 204.015 154.048 204.347 156.231C204.439 156.828 204.377 162.097 202.449 161.45C202.928 162.01 203.4 162.563 203.879 163.124C202.863 159.709 203.572 154.893 203.533 151.343C202.237 151.579 200.928 151.814 199.632 152.05C201.32 155.001 202.187 158.041 202.223 161.458C203.585 161.215 204.942 160.964 206.305 160.72C205.19 158.051 203.942 155.485 202.553 152.954C201.724 151.453 198.956 151.13 198.479 153.17C197.389 157.784 196.542 162.422 195.948 167.127C195.731 168.884 197.669 169.989 199.162 169.352C208.181 165.486 216.641 160.637 224.572 154.866C226.004 153.827 225.386 151.495 223.839 150.964C215.466 148.117 207.08 145.268 198.636 142.641C197.325 142.227 196.034 143.085 195.874 144.449C195.064 151.572 195.265 158.874 195.744 166.013C195.864 167.69 198.905 167.558 198.825 165.798Z" fill="#FD8363"/>
</svg>
