<svg xmlns="http://www.w3.org/2000/svg" xmlns:xlink="http://www.w3.org/1999/xlink" width="150" zoomAndPan="magnify" viewBox="0 0 112.5 74.999997" height="100" preserveAspectRatio="xMidYMid meet" version="1.0"><defs><clipPath id="071e1a69fd"><path d="M 8 3 L 38 3 L 38 35 L 8 35 Z M 8 3 " clip-rule="nonzero"/></clipPath><clipPath id="5e3d5feff3"><path d="M 8.882812 10.734375 L 32.496094 3.6875 L 40.398438 30.160156 L 16.785156 37.207031 Z M 8.882812 10.734375 " clip-rule="nonzero"/></clipPath><clipPath id="8633ecb882"><path d="M 8.882812 10.734375 L 32.496094 3.6875 L 40.398438 30.160156 L 16.785156 37.207031 Z M 8.882812 10.734375 " clip-rule="nonzero"/></clipPath><clipPath id="5ed6e869df"><path d="M 21 6 L 36 6 L 36 32 L 21 32 Z M 21 6 " clip-rule="nonzero"/></clipPath><clipPath id="d0fda017a9"><path d="M 8.882812 10.734375 L 32.496094 3.6875 L 40.398438 30.160156 L 16.785156 37.207031 Z M 8.882812 10.734375 " clip-rule="nonzero"/></clipPath><clipPath id="f29eb56ff2"><path d="M 8.882812 10.734375 L 32.496094 3.6875 L 40.398438 30.160156 L 16.785156 37.207031 Z M 8.882812 10.734375 " clip-rule="nonzero"/></clipPath><clipPath id="f0d0ff0d77"><path d="M 14 12 L 28 12 L 28 29 L 14 29 Z M 14 12 " clip-rule="nonzero"/></clipPath><clipPath id="2ad3855c43"><path d="M 8.882812 10.734375 L 32.496094 3.6875 L 40.398438 30.160156 L 16.785156 37.207031 Z M 8.882812 10.734375 " clip-rule="nonzero"/></clipPath><clipPath id="051a4b442c"><path d="M 8.882812 10.734375 L 32.496094 3.6875 L 40.398438 30.160156 L 16.785156 37.207031 Z M 8.882812 10.734375 " clip-rule="nonzero"/></clipPath><clipPath id="59c272db31"><path d="M 22 10 L 33 10 L 33 29 L 22 29 Z M 22 10 " clip-rule="nonzero"/></clipPath><clipPath id="01f82c0886"><path d="M 8.882812 10.734375 L 32.496094 3.6875 L 40.398438 30.160156 L 16.785156 37.207031 Z M 8.882812 10.734375 " clip-rule="nonzero"/></clipPath><clipPath id="28a13da67a"><path d="M 8.882812 10.734375 L 32.496094 3.6875 L 40.398438 30.160156 L 16.785156 37.207031 Z M 8.882812 10.734375 " clip-rule="nonzero"/></clipPath><clipPath id="01f0e14315"><path d="M 71 4 L 101 4 L 101 32 L 71 32 Z M 71 4 " clip-rule="nonzero"/></clipPath><clipPath id="b12b691c31"><path d="M 76.578125 0.164062 L 102.277344 8.042969 L 93.960938 35.171875 L 68.261719 27.292969 Z M 76.578125 0.164062 " clip-rule="nonzero"/></clipPath><clipPath id="a9a8633f3c"><path d="M 76.578125 0.164062 L 102.277344 8.042969 L 93.960938 35.171875 L 68.261719 27.292969 Z M 76.578125 0.164062 " clip-rule="nonzero"/></clipPath><clipPath id="3a8229a13d"><path d="M 80 4 L 101 4 L 101 32 L 80 32 Z M 80 4 " clip-rule="nonzero"/></clipPath><clipPath id="ebec0e4d85"><path d="M 76.578125 0.164062 L 102.277344 8.042969 L 93.960938 35.171875 L 68.261719 27.292969 Z M 76.578125 0.164062 " clip-rule="nonzero"/></clipPath><clipPath id="8f3c474039"><path d="M 76.578125 0.164062 L 102.277344 8.042969 L 93.960938 35.171875 L 68.261719 27.292969 Z M 76.578125 0.164062 " clip-rule="nonzero"/></clipPath><clipPath id="2a651c1232"><path d="M 74 7 L 92 7 L 92 28 L 74 28 Z M 74 7 " clip-rule="nonzero"/></clipPath><clipPath id="dd0a7f3df5"><path d="M 76.578125 0.164062 L 102.277344 8.042969 L 93.960938 35.171875 L 68.261719 27.292969 Z M 76.578125 0.164062 " clip-rule="nonzero"/></clipPath><clipPath id="6ad677a76f"><path d="M 76.578125 0.164062 L 102.277344 8.042969 L 93.960938 35.171875 L 68.261719 27.292969 Z M 76.578125 0.164062 " clip-rule="nonzero"/></clipPath><clipPath id="61c9f1bcaa"><path d="M 41.042969 4 L 68.667969 4 L 68.667969 29.863281 L 41.042969 29.863281 Z M 41.042969 4 " clip-rule="nonzero"/></clipPath><clipPath id="471a584ccd"><path d="M 7.46875 20.390625 L 102.53125 20.390625 L 102.53125 74.832031 L 7.46875 74.832031 Z M 7.46875 20.390625 " clip-rule="nonzero"/></clipPath><clipPath id="8d0a47cb32"><path d="M 14.1875 20.390625 L 95.636719 20.390625 C 97.421875 20.390625 99.128906 21.097656 100.390625 22.355469 C 101.648438 23.617188 102.359375 25.328125 102.359375 27.109375 L 102.359375 68.113281 C 102.359375 69.894531 101.648438 71.605469 100.390625 72.867188 C 99.128906 74.125 97.421875 74.835938 95.636719 74.835938 L 14.1875 74.835938 C 12.40625 74.835938 10.695312 74.125 9.433594 72.867188 C 8.175781 71.605469 7.46875 69.894531 7.46875 68.113281 L 7.46875 27.109375 C 7.46875 25.328125 8.175781 23.617188 9.433594 22.355469 C 10.695312 21.097656 12.40625 20.390625 14.1875 20.390625 Z M 14.1875 20.390625 " clip-rule="nonzero"/></clipPath><clipPath id="d7b56a9965"><path d="M 7.472656 20.390625 L 102.296875 20.390625 L 102.296875 74.832031 L 7.472656 74.832031 Z M 7.472656 20.390625 " clip-rule="nonzero"/></clipPath><clipPath id="a3ce5b5262"><path d="M 14.191406 20.390625 L 95.628906 20.390625 C 97.414062 20.390625 99.121094 21.097656 100.382812 22.355469 C 101.640625 23.617188 102.351562 25.328125 102.351562 27.109375 L 102.351562 68.109375 C 102.351562 69.890625 101.640625 71.597656 100.382812 72.859375 C 99.121094 74.117188 97.414062 74.828125 95.628906 74.828125 L 14.191406 74.828125 C 12.40625 74.828125 10.699219 74.117188 9.4375 72.859375 C 8.179688 71.597656 7.472656 69.890625 7.472656 68.109375 L 7.472656 27.109375 C 7.472656 25.328125 8.179688 23.617188 9.4375 22.355469 C 10.699219 21.097656 12.40625 20.390625 14.191406 20.390625 Z M 14.191406 20.390625 " clip-rule="nonzero"/></clipPath><clipPath id="4224dd9d16"><path d="M 24.613281 49 L 44 49 L 44 67 L 24.613281 67 Z M 24.613281 49 " clip-rule="nonzero"/></clipPath><clipPath id="5d58800a78"><path d="M 76 41.648438 L 85.09375 41.648438 L 85.09375 51 L 76 51 Z M 76 41.648438 " clip-rule="nonzero"/></clipPath><clipPath id="900d606c59"><path d="M 35.539062 30.402344 L 74.308594 30.402344 L 74.308594 37.375 L 35.539062 37.375 Z M 35.539062 30.402344 " clip-rule="nonzero"/></clipPath><clipPath id="2becfbea16"><path d="M 39.023438 30.402344 L 70.800781 30.402344 C 72.726562 30.402344 74.289062 31.964844 74.289062 33.890625 C 74.289062 35.816406 72.726562 37.375 70.800781 37.375 L 39.023438 37.375 C 37.097656 37.375 35.539062 35.816406 35.539062 33.890625 C 35.539062 31.964844 37.097656 30.402344 39.023438 30.402344 Z M 39.023438 30.402344 " clip-rule="nonzero"/></clipPath><clipPath id="61c36ee058"><path d="M 35.539062 30.402344 L 61.503906 30.402344 L 61.503906 37.375 L 35.539062 37.375 Z M 35.539062 30.402344 " clip-rule="nonzero"/></clipPath><clipPath id="4c15152109"><path d="M 39.023438 30.402344 L 58.011719 30.402344 C 59.9375 30.402344 61.5 31.964844 61.5 33.890625 C 61.5 35.816406 59.9375 37.375 58.011719 37.375 L 39.023438 37.375 C 37.097656 37.375 35.539062 35.816406 35.539062 33.890625 C 35.539062 31.964844 37.097656 30.402344 39.023438 30.402344 Z M 39.023438 30.402344 " clip-rule="nonzero"/></clipPath></defs><g clip-path="url(#071e1a69fd)"><g clip-path="url(#5e3d5feff3)"><g clip-path="url(#8633ecb882)"><path fill="#d6d3d3" d="M 18.191406 34.140625 L 8.898438 10.8125 L 32.378906 3.804688 L 37.394531 28.40625 L 28.570312 33.9375 Z M 18.191406 34.140625 " fill-opacity="1" fill-rule="nonzero"/></g></g></g><g clip-path="url(#5ed6e869df)"><g clip-path="url(#d0fda017a9)"><g clip-path="url(#f29eb56ff2)"><path fill="#e8e5e5" d="M 35.105469 27.425781 L 30.824219 6.402344 L 21.226562 9.265625 L 27.980469 31.898438 Z M 35.105469 27.425781 " fill-opacity="1" fill-rule="nonzero"/></g></g></g><g clip-path="url(#f0d0ff0d77)"><g clip-path="url(#2ad3855c43)"><g clip-path="url(#051a4b442c)"><path fill="#ebebeb" d="M 22.09375 12.210938 L 14.730469 14.40625 L 18.175781 23.058594 L 24.753906 21.09375 L 23.878906 18.15625 L 19.988281 19.316406 L 18.820312 16.386719 L 22.980469 15.144531 L 22.101562 12.207031 Z M 26.152344 25.78125 L 26.140625 25.789062 L 22.605469 25.878906 L 21.695312 23.597656 L 18.742188 24.480469 L 20.535156 28.972656 L 27.050781 28.839844 L 27.0625 28.832031 Z M 26.152344 25.78125 " fill-opacity="1" fill-rule="nonzero"/></g></g></g><g clip-path="url(#59c272db31)"><g clip-path="url(#01f82c0886)"><g clip-path="url(#28a13da67a)"><path fill="#ffffff" d="M 24.746094 21.097656 L 28.363281 20.019531 L 29.167969 23.929688 L 26.15625 25.792969 L 27.066406 28.847656 L 32.59375 25.382812 L 30.707031 16.117188 L 23.878906 18.15625 Z M 29.621094 10.820312 L 29.453125 10.011719 L 22.089844 12.210938 L 22.96875 15.148438 L 30.066406 13.03125 L 29.929688 12.351562 Z M 29.621094 10.820312 " fill-opacity="1" fill-rule="nonzero"/></g></g></g><g clip-path="url(#01f0e14315)"><g clip-path="url(#b12b691c31)"><g clip-path="url(#a9a8633f3c)"><path fill="#c8c7c7" d="M 75.171875 4.746094 L 89.199219 4.121094 L 100.816406 12.53125 L 93.59375 28.609375 L 80.867188 31.292969 L 71.984375 22.070312 Z M 75.171875 4.746094 " fill-opacity="1" fill-rule="nonzero"/></g></g></g><g clip-path="url(#3a8229a13d)"><g clip-path="url(#ebec0e4d85)"><g clip-path="url(#8f3c474039)"><path fill="#d9d9d9" d="M 100.816406 12.53125 L 89.199219 4.121094 L 80.867188 31.292969 L 93.59375 28.609375 Z M 100.816406 12.53125 " fill-opacity="1" fill-rule="nonzero"/></g></g></g><g clip-path="url(#2a651c1232)"><g clip-path="url(#dd0a7f3df5)"><g clip-path="url(#6ad677a76f)"><path fill="#ffffff" d="M 88.246094 7.300781 L 74.992188 22.414062 L 77.949219 23.253906 L 80.753906 19.78125 L 87.800781 21.941406 L 88.300781 26.460938 L 91.089844 27.378906 Z M 86.539062 12.933594 L 87.5 19.320312 L 82.507812 17.789062 L 86.546875 12.9375 Z M 86.539062 12.933594 " fill-opacity="1" fill-rule="nonzero"/></g></g></g><path fill="#d9d9d9" d="M 57.335938 16.902344 C 57.335938 18.246094 56.25 19.328125 54.90625 19.328125 C 53.566406 19.328125 52.480469 18.246094 52.480469 16.902344 C 52.480469 15.5625 53.566406 14.476562 54.90625 14.476562 C 56.25 14.476562 57.335938 15.5625 57.335938 16.902344 Z M 57.335938 16.902344 " fill-opacity="1" fill-rule="nonzero"/><path fill="#cdcbcb" d="M 54.90625 19.675781 C 53.378906 19.675781 52.136719 18.433594 52.136719 16.902344 C 52.136719 15.375 53.378906 14.128906 54.90625 14.128906 C 56.4375 14.128906 57.679688 15.375 57.679688 16.902344 C 57.679688 18.433594 56.4375 19.675781 54.90625 19.675781 Z M 54.90625 14.824219 C 53.761719 14.824219 52.828125 15.757812 52.828125 16.902344 C 52.828125 18.050781 53.761719 18.984375 54.90625 18.984375 C 56.054688 18.984375 56.988281 18.050781 56.988281 16.902344 C 56.988281 15.757812 56.054688 14.824219 54.90625 14.824219 Z M 54.90625 14.824219 " fill-opacity="1" fill-rule="nonzero"/><g clip-path="url(#61c9f1bcaa)"><path fill="#d9d9d9" d="M 68.425781 16.902344 C 68.425781 14.964844 66.410156 13.277344 63.234375 12.199219 C 63.632812 10.347656 63.6875 8.691406 63.347656 7.425781 C 63.066406 6.371094 62.53125 5.613281 61.757812 5.171875 C 61.292969 4.90625 60.757812 4.773438 60.175781 4.773438 C 58.644531 4.773438 56.785156 5.742188 54.910156 7.398438 C 53.035156 5.742188 51.171875 4.769531 49.640625 4.769531 C 49.054688 4.769531 48.523438 4.90625 48.058594 5.171875 C 47.285156 5.613281 46.75 6.371094 46.46875 7.429688 C 46.128906 8.695312 46.183594 10.347656 46.582031 12.199219 C 43.40625 13.277344 41.386719 14.964844 41.386719 16.902344 C 41.386719 18.839844 43.40625 20.53125 46.582031 21.609375 C 46.183594 23.460938 46.128906 25.113281 46.46875 26.378906 C 46.75 27.433594 47.285156 28.195312 48.058594 28.636719 C 48.527344 28.902344 49.058594 29.035156 49.640625 29.035156 C 51.171875 29.035156 53.035156 28.066406 54.910156 26.40625 C 56.785156 28.0625 58.644531 29.035156 60.175781 29.035156 C 60.761719 29.035156 61.292969 28.898438 61.757812 28.632812 C 62.53125 28.191406 63.066406 27.433594 63.347656 26.378906 C 63.6875 25.113281 63.632812 23.460938 63.234375 21.609375 C 66.40625 20.53125 68.425781 18.839844 68.425781 16.902344 Z M 61.070312 6.375 C 61.511719 6.628906 61.824219 7.101562 62.007812 7.785156 C 62.285156 8.824219 62.230469 10.21875 61.898438 11.800781 C 60.792969 11.511719 59.582031 11.292969 58.289062 11.148438 C 57.519531 10.109375 56.714844 9.171875 55.902344 8.347656 C 57.566406 6.902344 59.089844 6.160156 60.175781 6.160156 C 60.515625 6.160156 60.816406 6.234375 61.070312 6.375 Z M 58.917969 19.183594 C 58.464844 19.957031 58 20.675781 57.53125 21.34375 C 56.695312 21.417969 55.820312 21.457031 54.90625 21.457031 C 53.996094 21.457031 53.121094 21.417969 52.285156 21.34375 C 51.8125 20.675781 51.347656 19.957031 50.894531 19.183594 C 50.453125 18.425781 50.054688 17.664062 49.695312 16.902344 C 50.054688 16.144531 50.453125 15.378906 50.894531 14.625 C 51.347656 13.851562 51.816406 13.132812 52.285156 12.460938 C 53.121094 12.386719 53.996094 12.347656 54.90625 12.347656 C 55.820312 12.347656 56.695312 12.386719 57.53125 12.460938 C 58 13.132812 58.464844 13.847656 58.917969 14.625 C 59.359375 15.378906 59.761719 16.144531 60.121094 16.902344 C 59.761719 17.664062 59.359375 18.425781 58.917969 19.183594 Z M 60.839844 18.5625 C 61.125 19.28125 61.367188 19.984375 61.5625 20.664062 C 60.875 20.84375 60.136719 20.996094 59.347656 21.121094 C 59.609375 20.714844 59.867188 20.304688 60.117188 19.882812 C 60.371094 19.441406 60.609375 19.003906 60.839844 18.5625 Z M 54.90625 24.519531 C 54.402344 24.007812 53.890625 23.4375 53.378906 22.804688 C 53.882812 22.828125 54.390625 22.84375 54.90625 22.84375 C 55.425781 22.84375 55.933594 22.828125 56.433594 22.804688 C 55.925781 23.4375 55.414062 24.007812 54.90625 24.519531 Z M 50.464844 21.121094 C 49.679688 20.996094 48.9375 20.84375 48.253906 20.664062 C 48.449219 19.984375 48.6875 19.28125 48.972656 18.5625 C 49.203125 19.003906 49.441406 19.445312 49.699219 19.882812 C 49.945312 20.304688 50.203125 20.714844 50.464844 21.121094 Z M 48.972656 15.246094 C 48.6875 14.527344 48.449219 13.820312 48.253906 13.140625 C 48.9375 12.960938 49.679688 12.808594 50.46875 12.6875 C 50.207031 13.089844 49.949219 13.5 49.699219 13.925781 C 49.441406 14.363281 49.203125 14.804688 48.972656 15.246094 Z M 54.910156 9.289062 C 55.414062 9.800781 55.925781 10.367188 56.433594 11 C 55.933594 10.976562 55.425781 10.964844 54.90625 10.964844 C 54.390625 10.964844 53.882812 10.976562 53.378906 11 C 53.890625 10.367188 54.402344 9.800781 54.910156 9.289062 Z M 60.117188 13.925781 C 59.867188 13.5 59.609375 13.089844 59.347656 12.6875 C 60.136719 12.808594 60.875 12.960938 61.5625 13.140625 C 61.367188 13.820312 61.125 14.527344 60.839844 15.246094 C 60.609375 14.804688 60.371094 14.363281 60.117188 13.925781 Z M 47.804688 7.785156 C 47.992188 7.101562 48.304688 6.625 48.746094 6.375 C 49 6.230469 49.300781 6.15625 49.640625 6.15625 C 50.726562 6.15625 52.25 6.898438 53.914062 8.347656 C 53.101562 9.171875 52.296875 10.109375 51.527344 11.152344 C 50.234375 11.292969 49.023438 11.511719 47.917969 11.800781 C 47.582031 10.21875 47.527344 8.824219 47.804688 7.785156 Z M 42.773438 16.902344 C 42.773438 15.703125 44.320312 14.429688 46.921875 13.535156 C 47.238281 14.621094 47.65625 15.753906 48.167969 16.902344 C 47.65625 18.054688 47.238281 19.1875 46.921875 20.269531 C 44.320312 19.375 42.773438 18.101562 42.773438 16.902344 Z M 49.640625 27.648438 C 49.300781 27.648438 49 27.574219 48.746094 27.433594 C 48.304688 27.179688 47.988281 26.707031 47.804688 26.019531 C 47.527344 24.984375 47.582031 23.585938 47.917969 22.007812 C 49.023438 22.296875 50.234375 22.515625 51.527344 22.65625 C 52.296875 23.699219 53.101562 24.636719 53.914062 25.460938 C 52.25 26.90625 50.726562 27.648438 49.640625 27.648438 Z M 62.007812 26.019531 C 61.824219 26.703125 61.507812 27.179688 61.070312 27.429688 C 60.816406 27.574219 60.515625 27.648438 60.175781 27.648438 C 59.089844 27.648438 57.5625 26.90625 55.902344 25.457031 C 56.714844 24.636719 57.519531 23.699219 58.289062 22.65625 C 59.582031 22.515625 60.792969 22.292969 61.898438 22.007812 C 62.230469 23.585938 62.285156 24.984375 62.007812 26.019531 Z M 62.890625 20.269531 C 62.578125 19.1875 62.160156 18.054688 61.644531 16.902344 C 62.160156 15.753906 62.578125 14.621094 62.890625 13.535156 C 65.492188 14.429688 67.039062 15.703125 67.039062 16.902344 C 67.039062 18.101562 65.492188 19.375 62.890625 20.269531 Z M 62.890625 20.269531 " fill-opacity="1" fill-rule="nonzero"/><path fill="#cdcbcb" d="M 49.640625 29.382812 C 48.996094 29.382812 48.40625 29.234375 47.886719 28.9375 C 47.03125 28.445312 46.4375 27.617188 46.132812 26.46875 C 45.804688 25.246094 45.824219 23.648438 46.179688 21.835938 C 42.910156 20.660156 41.042969 18.875 41.042969 16.902344 C 41.042969 14.933594 42.910156 13.144531 46.179688 11.972656 C 45.824219 10.15625 45.804688 8.558594 46.132812 7.339844 C 46.4375 6.191406 47.03125 5.359375 47.886719 4.871094 C 49.632812 3.871094 52.171875 4.597656 54.910156 6.941406 C 57.648438 4.597656 60.179688 3.875 61.929688 4.871094 C 62.785156 5.359375 63.375 6.191406 63.683594 7.335938 C 64.011719 8.558594 63.992188 10.15625 63.632812 11.972656 C 66.90625 13.144531 68.773438 14.933594 68.773438 16.902344 C 68.773438 18.875 66.90625 20.660156 63.632812 21.835938 C 63.992188 23.652344 64.011719 25.246094 63.683594 26.46875 C 63.375 27.617188 62.785156 28.445312 61.929688 28.9375 C 60.179688 29.933594 57.644531 29.207031 54.90625 26.867188 C 52.984375 28.515625 51.167969 29.382812 49.640625 29.382812 Z M 49.640625 5.117188 C 49.117188 5.117188 48.644531 5.234375 48.230469 5.472656 C 47.539062 5.867188 47.058594 6.554688 46.800781 7.515625 C 46.484375 8.699219 46.527344 10.292969 46.921875 12.125 L 46.988281 12.425781 L 46.695312 12.527344 C 43.542969 13.597656 41.734375 15.191406 41.734375 16.902344 C 41.734375 18.613281 43.542969 20.210938 46.691406 21.28125 L 46.984375 21.378906 L 46.921875 21.683594 C 46.527344 23.511719 46.484375 25.105469 46.800781 26.289062 C 47.058594 27.253906 47.539062 27.941406 48.230469 28.335938 C 48.644531 28.570312 49.117188 28.6875 49.640625 28.6875 C 51.035156 28.6875 52.824219 27.785156 54.679688 26.148438 L 54.90625 25.945312 L 55.136719 26.148438 C 56.992188 27.785156 58.78125 28.6875 60.175781 28.6875 C 60.699219 28.6875 61.171875 28.566406 61.585938 28.332031 C 62.273438 27.9375 62.753906 27.25 63.011719 26.289062 C 63.332031 25.105469 63.289062 23.511719 62.894531 21.683594 L 62.828125 21.378906 L 63.121094 21.28125 C 66.273438 20.210938 68.082031 18.613281 68.082031 16.902344 C 68.082031 15.191406 66.273438 13.59375 63.121094 12.527344 L 62.828125 12.425781 L 62.894531 12.125 C 63.289062 10.292969 63.332031 8.699219 63.011719 7.515625 C 62.753906 6.554688 62.273438 5.867188 61.585938 5.472656 C 61.171875 5.238281 60.699219 5.117188 60.175781 5.117188 C 58.78125 5.117188 56.992188 6.019531 55.136719 7.660156 L 54.910156 7.863281 L 54.679688 7.660156 C 52.824219 6.019531 51.035156 5.117188 49.640625 5.117188 Z M 49.640625 27.996094 C 49.238281 27.996094 48.882812 27.90625 48.574219 27.734375 C 48.050781 27.433594 47.679688 26.886719 47.472656 26.109375 C 47.1875 25.050781 47.226562 23.605469 47.578125 21.933594 L 47.652344 21.578125 L 48.003906 21.671875 C 49.105469 21.957031 50.300781 22.175781 51.5625 22.3125 L 51.714844 22.328125 L 51.804688 22.449219 C 52.546875 23.457031 53.339844 24.386719 54.160156 25.214844 L 54.417969 25.476562 L 54.140625 25.722656 C 52.457031 27.1875 50.859375 27.996094 49.640625 27.996094 Z M 48.183594 22.429688 C 47.859375 23.84375 47.851562 25.050781 48.140625 25.929688 C 48.335938 26.511719 48.5625 26.925781 48.917969 27.132812 C 49.816406 27.644531 51.5625 26.964844 53.40625 25.433594 C 52.691406 24.6875 51.996094 23.863281 51.335938 22.984375 C 50.234375 22.855469 49.175781 22.671875 48.183594 22.429688 Z M 60.175781 27.992188 C 58.957031 27.992188 57.359375 27.1875 55.675781 25.71875 L 55.398438 25.476562 L 55.65625 25.214844 C 56.480469 24.382812 57.269531 23.453125 58.011719 22.449219 L 58.101562 22.328125 L 58.25 22.3125 C 59.511719 22.171875 60.710938 21.957031 61.8125 21.671875 L 62.164062 21.578125 L 62.238281 21.933594 C 62.589844 23.609375 62.628906 25.050781 62.34375 26.109375 C 62.136719 26.886719 61.765625 27.433594 61.242188 27.730469 C 60.933594 27.90625 60.578125 27.992188 60.175781 27.992188 Z M 56.410156 25.433594 C 58.253906 26.964844 59.996094 27.640625 60.898438 27.128906 C 61.253906 26.925781 61.480469 26.511719 61.671875 25.929688 C 61.964844 25.050781 61.953125 23.84375 61.628906 22.433594 C 60.640625 22.671875 59.582031 22.855469 58.476562 22.984375 C 57.824219 23.859375 57.128906 24.683594 56.410156 25.433594 Z M 54.90625 25.011719 L 54.660156 24.761719 C 54.125 24.21875 53.605469 23.636719 53.109375 23.023438 L 52.625 22.421875 L 53.394531 22.457031 C 54.386719 22.507812 55.429688 22.507812 56.417969 22.457031 L 57.191406 22.421875 L 56.707031 23.023438 C 56.214844 23.632812 55.691406 24.21875 55.15625 24.761719 Z M 54.144531 23.179688 C 54.394531 23.46875 54.648438 23.75 54.90625 24.019531 C 55.167969 23.75 55.421875 23.46875 55.671875 23.179688 C 55.167969 23.195312 54.648438 23.195312 54.144531 23.179688 Z M 54.90625 21.804688 C 54.019531 21.804688 53.125 21.765625 52.253906 21.691406 L 52.09375 21.675781 L 52 21.542969 C 51.5 20.832031 51.027344 20.09375 50.597656 19.355469 C 50.167969 18.621094 49.757812 17.847656 49.382812 17.050781 L 49.3125 16.902344 L 49.382812 16.753906 C 49.757812 15.960938 50.167969 15.183594 50.597656 14.449219 C 51.035156 13.703125 51.492188 12.988281 52.003906 12.261719 L 52.09375 12.128906 L 52.257812 12.117188 C 53.996094 11.964844 55.820312 11.964844 57.558594 12.117188 L 57.71875 12.128906 L 57.8125 12.261719 C 58.324219 12.992188 58.78125 13.707031 59.21875 14.449219 C 59.648438 15.191406 60.058594 15.964844 60.433594 16.753906 L 60.503906 16.902344 L 60.433594 17.050781 C 60.058594 17.839844 59.648438 18.617188 59.21875 19.359375 C 58.78125 20.101562 58.324219 20.816406 57.8125 21.542969 L 57.71875 21.675781 L 57.558594 21.691406 C 56.691406 21.765625 55.796875 21.804688 54.90625 21.804688 Z M 52.476562 21.011719 C 54.074219 21.144531 55.742188 21.144531 57.339844 21.011719 C 57.800781 20.347656 58.222656 19.6875 58.621094 19.007812 C 59.015625 18.332031 59.390625 17.621094 59.734375 16.902344 C 59.390625 16.183594 59.015625 15.476562 58.621094 14.800781 C 58.222656 14.117188 57.800781 13.460938 57.339844 12.792969 C 55.738281 12.664062 54.074219 12.664062 52.476562 12.792969 C 52.015625 13.457031 51.59375 14.113281 51.195312 14.800781 C 50.804688 15.472656 50.425781 16.179688 50.078125 16.902344 C 50.425781 17.628906 50.800781 18.335938 51.195312 19.007812 C 51.589844 19.683594 52.019531 20.355469 52.476562 21.011719 Z M 58.636719 21.582031 L 59.058594 20.933594 C 59.316406 20.53125 59.570312 20.125 59.816406 19.707031 C 60.070312 19.273438 60.304688 18.835938 60.535156 18.402344 L 60.882812 17.730469 L 61.164062 18.433594 C 61.445312 19.144531 61.691406 19.863281 61.894531 20.570312 L 61.996094 20.914062 L 61.652344 21.003906 C 60.945312 21.1875 60.191406 21.339844 59.402344 21.464844 Z M 60.785156 19.398438 C 60.667969 19.617188 60.542969 19.839844 60.414062 20.058594 C 60.296875 20.257812 60.179688 20.453125 60.058594 20.648438 C 60.425781 20.578125 60.78125 20.503906 61.125 20.417969 C 61.023438 20.078125 60.910156 19.738281 60.785156 19.398438 Z M 51.179688 21.582031 L 50.414062 21.464844 C 49.625 21.339844 48.867188 21.183594 48.164062 21.003906 L 47.820312 20.914062 L 47.921875 20.570312 C 48.125 19.867188 48.371094 19.148438 48.652344 18.433594 L 48.929688 17.730469 L 49.28125 18.402344 C 49.507812 18.839844 49.746094 19.273438 50 19.707031 C 50.246094 20.128906 50.5 20.535156 50.757812 20.933594 Z M 48.6875 20.417969 C 49.03125 20.5 49.390625 20.578125 49.753906 20.644531 C 49.632812 20.453125 49.515625 20.257812 49.398438 20.054688 C 49.269531 19.839844 49.148438 19.617188 49.027344 19.398438 C 48.90625 19.742188 48.792969 20.078125 48.6875 20.417969 Z M 62.660156 20.71875 L 62.558594 20.367188 C 62.25 19.292969 61.835938 18.175781 61.328125 17.046875 L 61.265625 16.902344 L 61.328125 16.761719 C 61.835938 15.632812 62.25 14.511719 62.558594 13.441406 L 62.660156 13.089844 L 63.003906 13.207031 C 65.75 14.152344 67.386719 15.535156 67.386719 16.902344 C 67.386719 18.273438 65.75 19.65625 63.003906 20.597656 Z M 62.023438 16.902344 C 62.460938 17.894531 62.828125 18.871094 63.121094 19.820312 C 65.304688 19.011719 66.695312 17.882812 66.695312 16.902344 C 66.695312 15.925781 65.304688 14.796875 63.121094 13.984375 C 62.828125 14.9375 62.460938 15.914062 62.023438 16.902344 Z M 47.15625 20.71875 L 46.808594 20.597656 C 44.066406 19.652344 42.429688 18.273438 42.429688 16.902344 C 42.429688 15.535156 44.066406 14.152344 46.808594 13.207031 L 47.15625 13.089844 L 47.257812 13.441406 C 47.566406 14.515625 47.980469 15.636719 48.484375 16.761719 L 48.550781 16.902344 L 48.484375 17.042969 C 47.980469 18.171875 47.566406 19.289062 47.257812 20.367188 Z M 46.695312 13.984375 C 44.511719 14.796875 43.121094 15.925781 43.121094 16.902344 C 43.121094 17.882812 44.511719 19.007812 46.695312 19.820312 C 46.988281 18.867188 47.355469 17.890625 47.789062 16.902344 C 47.355469 15.917969 46.988281 14.9375 46.695312 13.984375 Z M 48.929688 16.078125 L 48.652344 15.371094 C 48.371094 14.660156 48.125 13.941406 47.917969 13.238281 L 47.820312 12.894531 L 48.164062 12.804688 C 48.871094 12.621094 49.625 12.46875 50.414062 12.34375 L 51.179688 12.226562 L 50.757812 12.875 C 50.496094 13.273438 50.242188 13.679688 49.996094 14.101562 C 49.742188 14.535156 49.507812 14.96875 49.28125 15.40625 Z M 48.6875 13.390625 C 48.792969 13.726562 48.90625 14.066406 49.027344 14.40625 C 49.148438 14.1875 49.273438 13.96875 49.398438 13.75 C 49.515625 13.550781 49.632812 13.355469 49.753906 13.160156 C 49.390625 13.230469 49.03125 13.304688 48.6875 13.390625 Z M 60.882812 16.078125 L 60.535156 15.40625 C 60.304688 14.96875 60.070312 14.535156 59.816406 14.101562 C 59.570312 13.679688 59.316406 13.273438 59.058594 12.875 L 58.636719 12.226562 L 59.402344 12.34375 C 60.191406 12.46875 60.945312 12.621094 61.648438 12.804688 L 61.996094 12.894531 L 61.894531 13.238281 C 61.691406 13.945312 61.445312 14.664062 61.164062 15.375 Z M 60.058594 13.160156 C 60.179688 13.355469 60.296875 13.550781 60.414062 13.75 C 60.542969 13.96875 60.667969 14.1875 60.789062 14.40625 C 60.910156 14.066406 61.023438 13.726562 61.128906 13.390625 C 60.78125 13.304688 60.425781 13.230469 60.058594 13.160156 Z M 62.164062 12.226562 L 61.8125 12.136719 C 60.710938 11.847656 59.515625 11.632812 58.25 11.496094 L 58.097656 11.480469 L 58.007812 11.355469 C 57.265625 10.351562 56.476562 9.421875 55.65625 8.59375 L 55.398438 8.328125 L 55.675781 8.085938 C 57.914062 6.136719 60.003906 5.371094 61.238281 6.074219 C 61.761719 6.375 62.132812 6.921875 62.34375 7.695312 C 62.625 8.753906 62.589844 10.199219 62.238281 11.871094 Z M 58.476562 10.824219 C 59.582031 10.949219 60.640625 11.136719 61.628906 11.375 C 61.988281 10.054688 62.039062 8.882812 61.675781 7.875 C 61.464844 7.300781 61.253906 6.878906 60.898438 6.675781 C 60 6.164062 58.253906 6.839844 56.410156 8.371094 C 57.125 9.121094 57.820312 9.945312 58.476562 10.824219 Z M 47.652344 12.226562 L 47.578125 11.871094 C 47.226562 10.199219 47.1875 8.757812 47.472656 7.699219 C 47.679688 6.917969 48.050781 6.371094 48.574219 6.074219 C 49.816406 5.367188 51.902344 6.136719 54.140625 8.085938 L 54.421875 8.332031 L 54.160156 8.59375 C 53.339844 9.421875 52.546875 10.355469 51.804688 11.359375 L 51.714844 11.480469 L 51.566406 11.496094 C 50.304688 11.632812 49.105469 11.851562 48.003906 12.136719 Z M 49.640625 6.503906 C 49.359375 6.503906 49.117188 6.5625 48.917969 6.675781 C 48.5625 6.878906 48.378906 7.3125 48.140625 7.875 C 47.765625 8.761719 47.832031 9.964844 48.183594 11.375 C 49.175781 11.136719 50.234375 10.949219 51.339844 10.824219 C 51.996094 9.945312 52.691406 9.121094 53.40625 8.371094 C 51.972656 7.179688 50.613281 6.503906 49.640625 6.503906 Z M 52.625 11.382812 L 53.109375 10.785156 C 53.601562 10.171875 54.125 9.589844 54.660156 9.046875 L 54.90625 8.796875 L 55.152344 9.046875 C 55.691406 9.589844 56.214844 10.175781 56.703125 10.78125 L 57.1875 11.382812 L 56.417969 11.347656 C 55.425781 11.300781 54.386719 11.300781 53.394531 11.347656 Z M 54.90625 10.617188 C 55.164062 10.617188 55.417969 10.621094 55.671875 10.625 C 55.425781 10.339844 55.167969 10.058594 54.910156 9.785156 C 54.648438 10.058594 54.394531 10.335938 54.144531 10.625 C 54.398438 10.621094 54.652344 10.617188 54.90625 10.617188 Z M 54.90625 10.617188 " fill-opacity="1" fill-rule="nonzero"/></g><g clip-path="url(#471a584ccd)"><g clip-path="url(#8d0a47cb32)"><path fill="#ffffff" d="M 7.46875 20.390625 L 102.320312 20.390625 L 102.320312 74.835938 L 7.46875 74.835938 Z M 7.46875 20.390625 " fill-opacity="1" fill-rule="nonzero"/></g></g><g clip-path="url(#d7b56a9965)"><g clip-path="url(#a3ce5b5262)"><path stroke-linecap="butt" transform="matrix(0.746681, 0, 0, 0.746681, 7.470853, 20.389127)" fill="none" stroke-linejoin="miter" d="M 9.000564 0.00200678 L 118.066495 0.00200678 C 120.457282 0.00200678 122.743439 0.948905 124.433208 2.633442 C 126.117745 4.323211 127.069875 6.6146 127.069875 9.000155 L 127.069875 63.909787 C 127.069875 66.295343 126.117745 68.5815 124.433208 70.271269 C 122.743439 71.955806 120.457282 72.907936 118.066495 72.907936 L 9.000564 72.907936 C 6.609777 72.907936 4.323619 71.955806 2.633851 70.271269 C 0.949314 68.5815 0.00241553 66.295343 0.00241553 63.909787 L 0.00241553 9.000155 C 0.00241553 6.6146 0.949314 4.323211 2.633851 2.633442 C 4.323619 0.948905 6.609777 0.00200678 9.000564 0.00200678 Z M 9.000564 0.00200678 " stroke="#000000" stroke-width="8" stroke-opacity="1" stroke-miterlimit="4"/></g></g><path fill="#5271ff" d="M 77.164062 48.53125 C 73.980469 51.339844 70.503906 54.441406 67.320312 57.246094 C 67.324219 57.25 67.324219 57.253906 67.324219 57.253906 C 67.359375 57.300781 67.390625 57.347656 67.417969 57.402344 C 67.449219 57.457031 67.472656 57.507812 67.492188 57.5625 C 67.726562 58.085938 67.867188 58.648438 67.90625 59.214844 C 71.359375 56.171875 75.105469 52.832031 78.558594 49.789062 C 78.015625 49.464844 77.535156 49.039062 77.164062 48.53125 Z M 77.164062 48.53125 " fill-opacity="1" fill-rule="nonzero"/><path fill="#5271ff" d="M 51.136719 48.550781 C 51.085938 49.242188 50.871094 49.910156 50.527344 50.5 C 53.421875 53.050781 56.609375 55.894531 59.503906 58.445312 C 59.652344 57.8125 59.933594 57.214844 60.347656 56.703125 C 57.375 54.085938 54.109375 51.171875 51.136719 48.550781 Z M 51.136719 48.550781 " fill-opacity="1" fill-rule="nonzero"/><g clip-path="url(#4224dd9d16)"><path fill="#5271ff" d="M 31.882812 58.589844 C 31.152344 58.039062 30.242188 57.699219 29.207031 57.644531 C 26.691406 57.507812 24.871094 59.785156 24.746094 62.105469 C 24.609375 64.625 26.890625 66.441406 29.207031 66.566406 C 31.625 66.699219 33.394531 64.601562 33.640625 62.382812 C 33.660156 62.300781 33.675781 62.210938 33.667969 62.105469 C 33.675781 62.003906 33.664062 61.914062 33.644531 61.832031 C 33.574219 61.164062 33.386719 60.546875 33.09375 60.007812 C 36.484375 57.019531 40.015625 53.886719 43.402344 50.902344 C 43.007812 50.386719 42.722656 49.78125 42.601562 49.125 C 39.078125 52.230469 35.40625 55.484375 31.882812 58.589844 Z M 26.613281 62.105469 C 26.433594 58.757812 31.621094 58.777344 31.800781 62.105469 C 31.621094 65.449219 26.792969 65.449219 26.613281 62.105469 Z M 26.613281 62.105469 " fill-opacity="1" fill-rule="nonzero"/></g><path fill="#5271ff" d="M 51.261719 47.855469 C 51.253906 47.820312 51.25 47.785156 51.242188 47.75 C 51.242188 47.703125 51.234375 47.65625 51.226562 47.605469 C 50.804688 45.359375 48.726562 43.777344 46.449219 43.96875 C 44.132812 44.164062 42.449219 46.136719 42.386719 48.410156 C 42.378906 48.707031 42.402344 48.992188 42.453125 49.269531 C 42.578125 49.929688 42.859375 50.53125 43.257812 51.046875 C 44.136719 52.191406 45.570312 52.910156 47.058594 52.863281 C 48.613281 52.816406 49.9375 51.910156 50.675781 50.644531 C 51.019531 50.054688 51.234375 49.390625 51.28125 48.695312 C 51.300781 48.417969 51.296875 48.136719 51.261719 47.855469 Z M 47.058594 50.996094 C 45.515625 51.136719 44.328125 49.890625 44.253906 48.410156 C 44.183594 47.078125 45.285156 46.074219 46.503906 45.832031 C 47.933594 45.550781 49.113281 46.714844 49.40625 48.003906 C 49.523438 49.480469 48.632812 50.855469 47.058594 50.996094 Z M 47.058594 50.996094 " fill-opacity="1" fill-rule="nonzero"/><path fill="#5271ff" d="M 67.5625 57.253906 C 67.535156 57.199219 67.503906 57.152344 67.472656 57.109375 C 67.472656 57.105469 67.46875 57.101562 67.46875 57.101562 C 66.171875 55.050781 63.597656 54.394531 61.445312 55.53125 C 60.945312 55.796875 60.53125 56.148438 60.199219 56.558594 C 59.789062 57.066406 59.507812 57.664062 59.355469 58.300781 C 59.085938 59.433594 59.242188 60.675781 59.835938 61.714844 C 61.015625 63.769531 63.601562 64.320312 65.664062 63.390625 C 67.378906 62.613281 68.179688 60.820312 68.054688 59.070312 C 68.011719 58.5 67.875 57.9375 67.640625 57.414062 C 67.617188 57.363281 67.59375 57.308594 67.5625 57.253906 Z M 64.894531 61.6875 C 63.785156 62.34375 62.289062 61.945312 61.550781 60.929688 C 60.695312 59.75 61.019531 58.085938 62.199219 57.261719 C 63.492188 56.355469 65.195312 56.898438 65.949219 58.199219 C 66.597656 59.492188 66.113281 60.960938 64.894531 61.6875 Z M 64.894531 61.6875 " fill-opacity="1" fill-rule="nonzero"/><g clip-path="url(#5d58800a78)"><path fill="#5271ff" d="M 85.128906 45.925781 C 85.0625 43.582031 83.082031 41.8125 80.828125 41.671875 C 80.777344 41.667969 80.726562 41.664062 80.671875 41.664062 C 80.617188 41.664062 80.566406 41.667969 80.519531 41.671875 C 78.171875 41.8125 76.410156 43.582031 76.214844 45.925781 C 76.128906 46.953125 76.449219 47.90625 77.019531 48.679688 C 77.390625 49.183594 77.867188 49.613281 78.414062 49.933594 C 79.203125 50.402344 80.132812 50.644531 81.070312 50.566406 C 83.441406 50.367188 85.191406 48.273438 85.128906 45.925781 Z M 81.015625 48.703125 C 79.351562 49.03125 78.039062 47.453125 78.082031 45.925781 C 78.121094 44.5625 79.382812 43.570312 80.671875 43.53125 C 82.019531 43.570312 83.144531 44.5625 83.257812 45.925781 C 83.378906 47.339844 82.34375 48.441406 81.015625 48.703125 Z M 81.015625 48.703125 " fill-opacity="1" fill-rule="nonzero"/></g><g clip-path="url(#900d606c59)"><g clip-path="url(#2becfbea16)"><path fill="#faf1f1" d="M 35.539062 30.402344 L 74.28125 30.402344 L 74.28125 37.375 L 35.539062 37.375 Z M 35.539062 30.402344 " fill-opacity="1" fill-rule="nonzero"/></g></g><g clip-path="url(#61c36ee058)"><g clip-path="url(#4c15152109)"><path fill="#e8e5e5" d="M 35.539062 30.402344 L 74.28125 30.402344 L 74.28125 37.375 L 35.539062 37.375 Z M 35.539062 30.402344 " fill-opacity="1" fill-rule="nonzero"/></g></g></svg>